<svg width="387" height="387" viewBox="0 0 387 387" fill="none" xmlns="http://www.w3.org/2000/svg">
<g filter="url(#filter0_d_2194_17)">
<path d="M332 16H25C20.0294 16 16 20.0294 16 25V332C16 336.971 20.0294 341 25 341H332C336.971 341 341 336.971 341 332V25C341 20.0294 336.971 16 332 16Z" stroke="#CCCCCC" stroke-width="2.59" stroke-miterlimit="10" stroke-dasharray="10.37 10.37"/>
</g>
<path d="M178.38 147.29H207.57C208.42 147.29 208.67 147.63 208.67 148.48V150.26C208.67 151.11 208.42 151.36 207.57 151.36H178.38V180.55C178.38 181.4 178.13 181.65 177.28 181.65H175.5C174.65 181.65 174.4 181.39 174.4 180.55V151.36H145.21C144.36 151.36 144.11 151.1 144.11 150.26V148.48C144.11 147.63 144.37 147.29 145.21 147.29H174.4V118.1C174.4 117.34 174.65 117 175.5 117H177.28C178.13 117 178.38 117.34 178.38 118.1V147.29Z" fill="#B3B3B3"/>
<path d="M142.549 205.195H140.834C140.733 204.701 140.555 204.268 140.302 203.895C140.053 203.521 139.749 203.208 139.389 202.955C139.034 202.696 138.64 202.503 138.207 202.374C137.774 202.245 137.322 202.18 136.852 202.18C135.994 202.18 135.218 202.397 134.522 202.83C133.83 203.263 133.28 203.902 132.869 204.745C132.464 205.589 132.261 206.624 132.261 207.85C132.261 209.076 132.464 210.111 132.869 210.954C133.28 211.798 133.83 212.436 134.522 212.869C135.218 213.303 135.994 213.519 136.852 213.519C137.322 213.519 137.774 213.455 138.207 213.326C138.64 213.197 139.034 213.005 139.389 212.752C139.749 212.494 140.053 212.178 140.302 211.805C140.555 211.427 140.733 210.993 140.834 210.505H142.549C142.42 211.228 142.185 211.876 141.844 212.448C141.503 213.019 141.079 213.505 140.572 213.906C140.065 214.303 139.495 214.605 138.864 214.812C138.237 215.02 137.566 215.123 136.852 215.123C135.644 215.123 134.57 214.828 133.63 214.238C132.69 213.648 131.95 212.809 131.41 211.722C130.871 210.634 130.602 209.343 130.602 207.85C130.602 206.356 130.871 205.066 131.41 203.978C131.95 202.89 132.69 202.051 133.63 201.461C134.57 200.871 135.644 200.576 136.852 200.576C137.566 200.576 138.237 200.68 138.864 200.887C139.495 201.095 140.065 201.399 140.572 201.8C141.079 202.196 141.503 202.68 141.844 203.252C142.185 203.819 142.42 204.466 142.549 205.195ZM145.099 214.93V204.31H146.675V205.914H146.786C146.979 205.388 147.33 204.962 147.837 204.635C148.344 204.307 148.915 204.144 149.551 204.144C149.671 204.144 149.821 204.146 150.001 204.151C150.18 204.155 150.316 204.162 150.409 204.171V205.831C150.353 205.817 150.226 205.796 150.028 205.769C149.835 205.736 149.63 205.72 149.413 205.72C148.897 205.72 148.436 205.828 148.03 206.045C147.629 206.257 147.311 206.552 147.076 206.93C146.846 207.303 146.73 207.73 146.73 208.209V214.93H145.099ZM152.343 214.93V204.31H153.974V214.93H152.343ZM153.172 202.54C152.854 202.54 152.58 202.431 152.35 202.215C152.124 201.998 152.011 201.738 152.011 201.433C152.011 201.129 152.124 200.869 152.35 200.652C152.58 200.436 152.854 200.327 153.172 200.327C153.491 200.327 153.762 200.436 153.988 200.652C154.219 200.869 154.334 201.129 154.334 201.433C154.334 201.738 154.219 201.998 153.988 202.215C153.762 202.431 153.491 202.54 153.172 202.54ZM160.088 215.179C159.415 215.179 158.805 215.052 158.256 214.798C157.708 214.54 157.272 214.169 156.949 213.685C156.627 213.197 156.465 212.607 156.465 211.915C156.465 211.307 156.585 210.814 156.825 210.436C157.065 210.053 157.385 209.753 157.786 209.537C158.187 209.32 158.629 209.159 159.113 209.053C159.602 208.942 160.093 208.855 160.586 208.79C161.231 208.707 161.755 208.645 162.156 208.603C162.561 208.557 162.856 208.481 163.041 208.375C163.23 208.269 163.324 208.085 163.324 207.822V207.767C163.324 207.085 163.137 206.554 162.764 206.176C162.395 205.799 161.835 205.61 161.084 205.61C160.305 205.61 159.694 205.78 159.252 206.121C158.809 206.462 158.498 206.826 158.318 207.214L156.77 206.66C157.046 206.015 157.415 205.513 157.876 205.153C158.341 204.789 158.848 204.536 159.397 204.393C159.95 204.245 160.494 204.171 161.029 204.171C161.37 204.171 161.761 204.213 162.204 204.296C162.651 204.374 163.082 204.538 163.497 204.787C163.916 205.036 164.264 205.411 164.541 205.914C164.817 206.416 164.956 207.089 164.956 207.933V214.93H163.324V213.492H163.241C163.13 213.722 162.946 213.969 162.688 214.231C162.43 214.494 162.086 214.718 161.658 214.902C161.229 215.086 160.706 215.179 160.088 215.179ZM160.337 213.713C160.982 213.713 161.526 213.586 161.969 213.333C162.416 213.079 162.752 212.752 162.978 212.351C163.209 211.95 163.324 211.528 163.324 211.085V209.592C163.255 209.675 163.103 209.751 162.868 209.82C162.637 209.885 162.37 209.942 162.066 209.993C161.766 210.039 161.473 210.081 161.188 210.118C160.906 210.15 160.678 210.177 160.503 210.2C160.079 210.256 159.683 210.346 159.314 210.47C158.95 210.59 158.655 210.772 158.429 211.016C158.208 211.256 158.097 211.583 158.097 211.998C158.097 212.565 158.307 212.994 158.726 213.284C159.15 213.57 159.687 213.713 160.337 213.713ZM167.934 214.93V204.31H169.51V205.914H169.621C169.815 205.388 170.165 204.962 170.672 204.635C171.179 204.307 171.751 204.144 172.387 204.144C172.506 204.144 172.656 204.146 172.836 204.151C173.016 204.155 173.152 204.162 173.244 204.171V205.831C173.189 205.817 173.062 205.796 172.864 205.769C172.67 205.736 172.465 205.72 172.248 205.72C171.732 205.72 171.271 205.828 170.866 206.045C170.465 206.257 170.146 206.552 169.911 206.93C169.681 207.303 169.566 207.73 169.566 208.209V214.93H167.934ZM192.104 200.77V214.93H190.444L182.728 203.812H182.59V214.93H180.875V200.77H182.535L190.279 211.915H190.417V200.77H192.104ZM199.628 215.151C198.669 215.151 197.828 214.923 197.104 214.466C196.385 214.01 195.823 213.372 195.417 212.551C195.016 211.731 194.816 210.772 194.816 209.675C194.816 208.569 195.016 207.603 195.417 206.778C195.823 205.953 196.385 205.312 197.104 204.856C197.828 204.4 198.669 204.171 199.628 204.171C200.587 204.171 201.426 204.4 202.145 204.856C202.868 205.312 203.431 205.953 203.832 206.778C204.237 207.603 204.44 208.569 204.44 209.675C204.44 210.772 204.237 211.731 203.832 212.551C203.431 213.372 202.868 214.01 202.145 214.466C201.426 214.923 200.587 215.151 199.628 215.151ZM199.628 213.685C200.356 213.685 200.956 213.498 201.426 213.125C201.896 212.752 202.244 212.261 202.47 211.652C202.696 211.044 202.809 210.385 202.809 209.675C202.809 208.965 202.696 208.304 202.47 207.691C202.244 207.078 201.896 206.582 201.426 206.204C200.956 205.826 200.356 205.637 199.628 205.637C198.9 205.637 198.301 205.826 197.83 206.204C197.36 206.582 197.012 207.078 196.786 207.691C196.561 208.304 196.448 208.965 196.448 209.675C196.448 210.385 196.561 211.044 196.786 211.652C197.012 212.261 197.36 212.752 197.83 213.125C198.301 213.498 198.9 213.685 199.628 213.685ZM215.235 204.31L211.308 214.93H209.648L205.721 204.31H207.491L210.423 212.772H210.533L213.465 204.31H215.235ZM221.323 215.151C220.364 215.151 219.523 214.923 218.799 214.466C218.08 214.01 217.518 213.372 217.112 212.551C216.711 211.731 216.51 210.772 216.51 209.675C216.51 208.569 216.711 207.603 217.112 206.778C217.518 205.953 218.08 205.312 218.799 204.856C219.523 204.4 220.364 204.171 221.323 204.171C222.281 204.171 223.12 204.4 223.839 204.856C224.563 205.312 225.125 205.953 225.526 206.778C225.932 207.603 226.135 208.569 226.135 209.675C226.135 210.772 225.932 211.731 225.526 212.551C225.125 213.372 224.563 214.01 223.839 214.466C223.12 214.923 222.281 215.151 221.323 215.151ZM221.323 213.685C222.051 213.685 222.65 213.498 223.12 213.125C223.59 212.752 223.938 212.261 224.164 211.652C224.39 211.044 224.503 210.385 224.503 209.675C224.503 208.965 224.39 208.304 224.164 207.691C223.938 207.078 223.59 206.582 223.12 206.204C222.65 205.826 222.051 205.637 221.323 205.637C220.594 205.637 219.995 205.826 219.525 206.204C219.055 206.582 218.707 207.078 218.481 207.691C218.255 208.304 218.142 208.965 218.142 209.675C218.142 210.385 218.255 211.044 218.481 211.652C218.707 212.261 219.055 212.752 219.525 213.125C219.995 213.498 220.594 213.685 221.323 213.685Z" fill="#B3B3B3"/>
<path d="M162.109 229.265H160.394C160.293 228.772 160.116 228.339 159.862 227.965C159.613 227.592 159.309 227.278 158.949 227.025C158.594 226.767 158.2 226.573 157.767 226.444C157.334 226.315 156.882 226.25 156.412 226.25C155.555 226.25 154.778 226.467 154.082 226.9C153.39 227.334 152.84 227.972 152.429 228.816C152.024 229.659 151.821 230.694 151.821 231.92C151.821 233.146 152.024 234.181 152.429 235.024C152.84 235.868 153.39 236.506 154.082 236.94C154.778 237.373 155.555 237.59 156.412 237.59C156.882 237.59 157.334 237.525 157.767 237.396C158.2 237.267 158.594 237.076 158.949 236.822C159.309 236.564 159.613 236.248 159.862 235.875C160.116 235.497 160.293 235.064 160.394 234.575H162.109C161.98 235.299 161.745 235.946 161.404 236.518C161.063 237.089 160.639 237.576 160.132 237.977C159.625 238.373 159.055 238.675 158.424 238.882C157.797 239.09 157.126 239.194 156.412 239.194C155.204 239.194 154.13 238.899 153.19 238.309C152.25 237.719 151.51 236.88 150.971 235.792C150.431 234.704 150.162 233.413 150.162 231.92C150.162 230.427 150.431 229.136 150.971 228.048C151.51 226.96 152.25 226.121 153.19 225.531C154.13 224.941 155.204 224.646 156.412 224.646C157.126 224.646 157.797 224.75 158.424 224.958C159.055 225.165 159.625 225.469 160.132 225.87C160.639 226.267 161.063 226.751 161.404 227.322C161.745 227.889 161.98 228.537 162.109 229.265ZM167.784 239.249C167.111 239.249 166.5 239.122 165.952 238.869C165.403 238.611 164.967 238.239 164.645 237.755C164.322 237.267 164.161 236.677 164.161 235.985C164.161 235.377 164.281 234.884 164.52 234.506C164.76 234.123 165.08 233.824 165.481 233.607C165.882 233.39 166.325 233.229 166.809 233.123C167.297 233.012 167.788 232.925 168.282 232.86C168.927 232.777 169.45 232.715 169.851 232.674C170.257 232.628 170.552 232.551 170.736 232.445C170.925 232.339 171.02 232.155 171.02 231.892V231.837C171.02 231.155 170.833 230.625 170.46 230.247C170.091 229.869 169.531 229.68 168.779 229.68C168 229.68 167.39 229.85 166.947 230.191C166.505 230.533 166.194 230.897 166.014 231.284L164.465 230.731C164.742 230.085 165.11 229.583 165.571 229.224C166.037 228.859 166.544 228.606 167.092 228.463C167.645 228.315 168.189 228.242 168.724 228.242C169.065 228.242 169.457 228.283 169.899 228.366C170.347 228.445 170.778 228.608 171.192 228.857C171.612 229.106 171.96 229.482 172.236 229.984C172.513 230.486 172.651 231.159 172.651 232.003V239H171.02V237.562H170.937C170.826 237.792 170.642 238.039 170.383 238.302C170.125 238.564 169.782 238.788 169.353 238.972C168.925 239.157 168.401 239.249 167.784 239.249ZM168.033 237.783C168.678 237.783 169.222 237.656 169.664 237.403C170.112 237.149 170.448 236.822 170.674 236.421C170.904 236.02 171.02 235.598 171.02 235.156V233.662C170.95 233.745 170.798 233.821 170.563 233.891C170.333 233.955 170.065 234.013 169.761 234.063C169.462 234.109 169.169 234.151 168.883 234.188C168.602 234.22 168.374 234.248 168.199 234.271C167.775 234.326 167.378 234.416 167.009 234.54C166.645 234.66 166.35 234.842 166.124 235.087C165.903 235.326 165.793 235.654 165.793 236.068C165.793 236.635 166.002 237.064 166.422 237.354C166.846 237.64 167.383 237.783 168.033 237.783ZM177.261 232.611V239H175.63V228.38H177.206V230.039H177.344C177.593 229.5 177.971 229.067 178.478 228.74C178.985 228.408 179.64 228.242 180.442 228.242C181.161 228.242 181.79 228.389 182.329 228.684C182.869 228.975 183.288 229.417 183.588 230.012C183.887 230.602 184.037 231.348 184.037 232.252V239H182.405V232.363C182.405 231.528 182.189 230.878 181.755 230.413C181.322 229.943 180.727 229.707 179.972 229.707C179.451 229.707 178.985 229.82 178.575 230.046C178.169 230.272 177.849 230.602 177.614 231.035C177.379 231.468 177.261 231.994 177.261 232.611ZM190.144 239.249C189.471 239.249 188.86 239.122 188.312 238.869C187.763 238.611 187.328 238.239 187.005 237.755C186.682 237.267 186.521 236.677 186.521 235.985C186.521 235.377 186.641 234.884 186.88 234.506C187.12 234.123 187.44 233.824 187.841 233.607C188.242 233.39 188.685 233.229 189.169 233.123C189.658 233.012 190.148 232.925 190.642 232.86C191.287 232.777 191.81 232.715 192.211 232.674C192.617 232.628 192.912 232.551 193.096 232.445C193.285 232.339 193.38 232.155 193.38 231.892V231.837C193.38 231.155 193.193 230.625 192.82 230.247C192.451 229.869 191.891 229.68 191.139 229.68C190.36 229.68 189.75 229.85 189.307 230.191C188.865 230.533 188.554 230.897 188.374 231.284L186.825 230.731C187.102 230.085 187.47 229.583 187.931 229.224C188.397 228.859 188.904 228.606 189.452 228.463C190.006 228.315 190.549 228.242 191.084 228.242C191.425 228.242 191.817 228.283 192.26 228.366C192.707 228.445 193.138 228.608 193.552 228.857C193.972 229.106 194.32 229.482 194.597 229.984C194.873 230.486 195.011 231.159 195.011 232.003V239H193.38V237.562H193.297C193.186 237.792 193.002 238.039 192.744 238.302C192.485 238.564 192.142 238.788 191.713 238.972C191.285 239.157 190.762 239.249 190.144 239.249ZM190.393 237.783C191.038 237.783 191.582 237.656 192.024 237.403C192.472 237.149 192.808 236.822 193.034 236.421C193.264 236.02 193.38 235.598 193.38 235.156V233.662C193.31 233.745 193.158 233.821 192.923 233.891C192.693 233.955 192.425 234.013 192.121 234.063C191.822 234.109 191.529 234.151 191.243 234.188C190.962 234.22 190.734 234.248 190.559 234.271C190.135 234.326 189.738 234.416 189.369 234.54C189.005 234.66 188.71 234.842 188.484 235.087C188.263 235.326 188.153 235.654 188.153 236.068C188.153 236.635 188.362 237.064 188.782 237.354C189.206 237.64 189.743 237.783 190.393 237.783ZM199.621 224.84V239H197.99V224.84H199.621Z" fill="#B3B3B3"/>
<defs>
<filter id="filter0_d_2194_17" x="0.0150023" y="0.0150785" width="386.35" height="386.35" filterUnits="userSpaceOnUse" color-interpolation-filters="sRGB">
<feFlood flood-opacity="0" result="BackgroundImageFix"/>
<feColorMatrix in="SourceAlpha" type="matrix" values="0 0 0 0 0 0 0 0 0 0 0 0 0 0 0 0 0 0 127 0" result="hardAlpha"/>
<feOffset dx="14.69" dy="14.69"/>
<feGaussianBlur stdDeviation="14.69"/>
<feColorMatrix type="matrix" values="0 0 0 0 0.345098 0 0 0 0 0.34902 0 0 0 0 0.356863 0 0 0 0.2 0"/>
<feBlend mode="normal" in2="BackgroundImageFix" result="effect1_dropShadow_2194_17"/>
<feBlend mode="normal" in="SourceGraphic" in2="effect1_dropShadow_2194_17" result="shape"/>
</filter>
</defs>
</svg>
