<svg width="387" height="387" viewBox="0 0 387 387" fill="none" xmlns="http://www.w3.org/2000/svg">
<g filter="url(#filter0_d_2105_367)">
<path d="M332 16H25C20.0294 16 16 20.0294 16 25V332C16 336.971 20.0294 341 25 341H332C336.971 341 341 336.971 341 332V25C341 20.0294 336.971 16 332 16Z" stroke="#CCCCCC" stroke-width="2.59" stroke-miterlimit="10" stroke-dasharray="10.37 10.37"/>
</g>
<path d="M178.38 147.29H207.57C208.42 147.29 208.67 147.63 208.67 148.48V150.26C208.67 151.11 208.42 151.36 207.57 151.36H178.38V180.55C178.38 181.4 178.13 181.65 177.28 181.65H175.5C174.65 181.65 174.4 181.39 174.4 180.55V151.36H145.21C144.36 151.36 144.11 151.1 144.11 150.26V148.48C144.11 147.63 144.37 147.29 145.21 147.29H174.4V118.1C174.4 117.34 174.65 117 175.5 117H177.28C178.13 117 178.38 117.34 178.38 118.1V147.29Z" fill="#B3B3B3"/>
<path d="M142.549 203.985H140.835C140.733 203.492 140.556 203.059 140.302 202.685C140.054 202.312 139.749 201.999 139.39 201.745C139.035 201.487 138.641 201.293 138.207 201.164C137.774 201.035 137.322 200.971 136.852 200.971C135.995 200.971 135.218 201.187 134.522 201.621C133.831 202.054 133.28 202.692 132.87 203.536C132.464 204.379 132.261 205.414 132.261 206.64C132.261 207.866 132.464 208.901 132.87 209.745C133.28 210.588 133.831 211.227 134.522 211.66C135.218 212.093 135.995 212.31 136.852 212.31C137.322 212.31 137.774 212.245 138.207 212.116C138.641 211.987 139.035 211.796 139.39 211.542C139.749 211.284 140.054 210.968 140.302 210.595C140.556 210.217 140.733 209.784 140.835 209.295H142.549C142.42 210.019 142.185 210.667 141.844 211.238C141.503 211.81 141.079 212.296 140.572 212.697C140.065 213.093 139.496 213.395 138.864 213.603C138.237 213.81 137.567 213.914 136.852 213.914C135.645 213.914 134.571 213.619 133.63 213.029C132.69 212.439 131.95 211.6 131.411 210.512C130.872 209.424 130.602 208.134 130.602 206.64C130.602 205.147 130.872 203.856 131.411 202.768C131.95 201.681 132.69 200.842 133.63 200.252C134.571 199.662 135.645 199.367 136.852 199.367C137.567 199.367 138.237 199.47 138.864 199.678C139.496 199.885 140.065 200.189 140.572 200.59C141.079 200.987 141.503 201.471 141.844 202.042C142.185 202.609 142.42 203.257 142.549 203.985ZM145.099 213.72V203.1H146.675V204.704H146.786C146.98 204.179 147.33 203.752 147.837 203.425C148.344 203.098 148.916 202.934 149.552 202.934C149.672 202.934 149.821 202.937 150.001 202.941C150.181 202.946 150.317 202.953 150.409 202.962V204.621C150.354 204.607 150.227 204.587 150.029 204.559C149.835 204.527 149.63 204.511 149.413 204.511C148.897 204.511 148.436 204.619 148.031 204.836C147.63 205.048 147.312 205.343 147.076 205.721C146.846 206.094 146.731 206.52 146.731 207V213.72H145.099ZM152.343 213.72V203.1H153.975V213.72H152.343ZM153.173 201.33C152.855 201.33 152.581 201.222 152.35 201.005C152.124 200.789 152.011 200.528 152.011 200.224C152.011 199.92 152.124 199.659 152.35 199.443C152.581 199.226 152.855 199.118 153.173 199.118C153.491 199.118 153.763 199.226 153.989 199.443C154.219 199.659 154.335 199.92 154.335 200.224C154.335 200.528 154.219 200.789 153.989 201.005C153.763 201.222 153.491 201.33 153.173 201.33ZM160.089 213.969C159.416 213.969 158.805 213.842 158.257 213.589C157.708 213.331 157.272 212.96 156.95 212.476C156.627 211.987 156.466 211.397 156.466 210.706C156.466 210.097 156.586 209.604 156.825 209.226C157.065 208.843 157.385 208.544 157.786 208.327C158.187 208.111 158.63 207.949 159.114 207.843C159.602 207.733 160.093 207.645 160.587 207.581C161.232 207.498 161.755 207.435 162.156 207.394C162.562 207.348 162.857 207.272 163.041 207.166C163.23 207.06 163.325 206.875 163.325 206.613V206.557C163.325 205.875 163.138 205.345 162.764 204.967C162.396 204.589 161.836 204.4 161.084 204.4C160.305 204.4 159.695 204.571 159.252 204.912C158.81 205.253 158.499 205.617 158.319 206.004L156.77 205.451C157.047 204.806 157.415 204.303 157.876 203.944C158.342 203.58 158.849 203.326 159.397 203.183C159.95 203.036 160.494 202.962 161.029 202.962C161.37 202.962 161.762 203.003 162.204 203.086C162.652 203.165 163.083 203.328 163.497 203.577C163.917 203.826 164.265 204.202 164.541 204.704C164.818 205.207 164.956 205.88 164.956 206.723V213.72H163.325V212.282H163.242C163.131 212.513 162.947 212.759 162.688 213.022C162.43 213.285 162.087 213.508 161.658 213.693C161.23 213.877 160.706 213.969 160.089 213.969ZM160.338 212.503C160.983 212.503 161.527 212.377 161.969 212.123C162.416 211.87 162.753 211.542 162.979 211.141C163.209 210.74 163.325 210.318 163.325 209.876V208.383C163.255 208.466 163.103 208.542 162.868 208.611C162.638 208.675 162.37 208.733 162.066 208.784C161.767 208.83 161.474 208.871 161.188 208.908C160.907 208.94 160.679 208.968 160.504 208.991C160.08 209.046 159.683 209.136 159.314 209.261C158.95 209.38 158.655 209.563 158.429 209.807C158.208 210.047 158.097 210.374 158.097 210.789C158.097 211.356 158.307 211.784 158.727 212.075C159.151 212.36 159.688 212.503 160.338 212.503ZM167.934 213.72V203.1H169.511V204.704H169.622C169.815 204.179 170.165 203.752 170.672 203.425C171.179 203.098 171.751 202.934 172.387 202.934C172.507 202.934 172.657 202.937 172.837 202.941C173.016 202.946 173.152 202.953 173.244 202.962V204.621C173.189 204.607 173.062 204.587 172.864 204.559C172.671 204.527 172.465 204.511 172.249 204.511C171.733 204.511 171.272 204.619 170.866 204.836C170.465 205.048 170.147 205.343 169.912 205.721C169.681 206.094 169.566 206.52 169.566 207V213.72H167.934ZM192.104 199.56V213.72H190.445L182.729 202.602H182.591V213.72H180.876V199.56H182.535L190.279 210.706H190.417V199.56H192.104ZM199.629 213.941C198.67 213.941 197.829 213.713 197.105 213.257C196.386 212.801 195.823 212.162 195.418 211.342C195.017 210.521 194.816 209.563 194.816 208.466C194.816 207.359 195.017 206.394 195.418 205.569C195.823 204.743 196.386 204.103 197.105 203.646C197.829 203.19 198.67 202.962 199.629 202.962C200.587 202.962 201.426 203.19 202.145 203.646C202.869 204.103 203.431 204.743 203.832 205.569C204.238 206.394 204.441 207.359 204.441 208.466C204.441 209.563 204.238 210.521 203.832 211.342C203.431 212.162 202.869 212.801 202.145 213.257C201.426 213.713 200.587 213.941 199.629 213.941ZM199.629 212.476C200.357 212.476 200.956 212.289 201.426 211.916C201.896 211.542 202.244 211.051 202.47 210.443C202.696 209.835 202.809 209.175 202.809 208.466C202.809 207.756 202.696 207.094 202.47 206.481C202.244 205.868 201.896 205.373 201.426 204.995C200.956 204.617 200.357 204.428 199.629 204.428C198.9 204.428 198.301 204.617 197.831 204.995C197.361 205.373 197.013 205.868 196.787 206.481C196.561 207.094 196.448 207.756 196.448 208.466C196.448 209.175 196.561 209.835 196.787 210.443C197.013 211.051 197.361 211.542 197.831 211.916C198.301 212.289 198.9 212.476 199.629 212.476ZM215.235 203.1L211.308 213.72H209.649L205.722 203.1H207.492L210.423 211.563H210.534L213.465 203.1H215.235ZM221.323 213.941C220.364 213.941 219.523 213.713 218.799 213.257C218.08 212.801 217.518 212.162 217.112 211.342C216.711 210.521 216.511 209.563 216.511 208.466C216.511 207.359 216.711 206.394 217.112 205.569C217.518 204.743 218.08 204.103 218.799 203.646C219.523 203.19 220.364 202.962 221.323 202.962C222.282 202.962 223.121 203.19 223.84 203.646C224.564 204.103 225.126 204.743 225.527 205.569C225.933 206.394 226.135 207.359 226.135 208.466C226.135 209.563 225.933 210.521 225.527 211.342C225.126 212.162 224.564 212.801 223.84 213.257C223.121 213.713 222.282 213.941 221.323 213.941ZM221.323 212.476C222.051 212.476 222.651 212.289 223.121 211.916C223.591 211.542 223.939 211.051 224.165 210.443C224.391 209.835 224.504 209.175 224.504 208.466C224.504 207.756 224.391 207.094 224.165 206.481C223.939 205.868 223.591 205.373 223.121 204.995C222.651 204.617 222.051 204.428 221.323 204.428C220.595 204.428 219.996 204.617 219.525 204.995C219.055 205.373 218.707 205.868 218.481 206.481C218.256 207.094 218.143 207.756 218.143 208.466C218.143 209.175 218.256 209.835 218.481 210.443C218.707 211.051 219.055 211.542 219.525 211.916C219.996 212.289 220.595 212.476 221.323 212.476Z" fill="#B3B3B3"/>
<path d="M150.32 227.345H148.605C148.504 226.852 148.326 226.419 148.073 226.045C147.824 225.672 147.52 225.358 147.16 225.105C146.805 224.847 146.411 224.653 145.978 224.524C145.545 224.395 145.093 224.331 144.623 224.331C143.765 224.331 142.989 224.547 142.293 224.98C141.601 225.414 141.051 226.052 140.64 226.896C140.235 227.739 140.032 228.774 140.032 230C140.032 231.226 140.235 232.261 140.64 233.104C141.051 233.948 141.601 234.586 142.293 235.02C142.989 235.453 143.765 235.67 144.623 235.67C145.093 235.67 145.545 235.605 145.978 235.476C146.411 235.347 146.805 235.156 147.16 234.902C147.52 234.644 147.824 234.328 148.073 233.955C148.326 233.577 148.504 233.144 148.605 232.655H150.32C150.191 233.379 149.956 234.026 149.615 234.598C149.274 235.169 148.85 235.656 148.343 236.057C147.836 236.453 147.266 236.755 146.635 236.963C146.008 237.17 145.337 237.274 144.623 237.274C143.415 237.274 142.341 236.979 141.401 236.389C140.461 235.799 139.721 234.96 139.181 233.872C138.642 232.784 138.373 231.494 138.373 230C138.373 228.507 138.642 227.216 139.181 226.128C139.721 225.04 140.461 224.201 141.401 223.611C142.341 223.021 143.415 222.726 144.623 222.726C145.337 222.726 146.008 222.83 146.635 223.038C147.266 223.245 147.836 223.549 148.343 223.95C148.85 224.347 149.274 224.831 149.615 225.402C149.956 225.969 150.191 226.617 150.32 227.345ZM155.995 237.329C155.322 237.329 154.711 237.202 154.162 236.949C153.614 236.691 153.178 236.32 152.856 235.836C152.533 235.347 152.372 234.757 152.372 234.066C152.372 233.457 152.492 232.964 152.731 232.586C152.971 232.203 153.291 231.904 153.692 231.687C154.093 231.47 154.536 231.309 155.02 231.203C155.508 231.093 155.999 231.005 156.493 230.94C157.138 230.857 157.661 230.795 158.062 230.754C158.468 230.708 158.763 230.632 158.947 230.526C159.136 230.42 159.23 230.235 159.23 229.972V229.917C159.23 229.235 159.044 228.705 158.67 228.327C158.302 227.949 157.742 227.76 156.99 227.76C156.211 227.76 155.601 227.93 155.158 228.272C154.716 228.613 154.404 228.977 154.225 229.364L152.676 228.811C152.953 228.166 153.321 227.663 153.782 227.304C154.248 226.939 154.755 226.686 155.303 226.543C155.856 226.396 156.4 226.322 156.935 226.322C157.276 226.322 157.668 226.363 158.11 226.446C158.558 226.525 158.989 226.688 159.403 226.937C159.823 227.186 160.171 227.562 160.447 228.064C160.724 228.567 160.862 229.24 160.862 230.083V237.08H159.23V235.642H159.148C159.037 235.872 158.853 236.119 158.594 236.382C158.336 236.644 157.993 236.868 157.564 237.052C157.136 237.237 156.612 237.329 155.995 237.329ZM156.244 235.863C156.889 235.863 157.433 235.736 157.875 235.483C158.322 235.229 158.659 234.902 158.885 234.501C159.115 234.1 159.23 233.678 159.23 233.236V231.742C159.161 231.825 159.009 231.901 158.774 231.971C158.544 232.035 158.276 232.093 157.972 232.143C157.673 232.19 157.38 232.231 157.094 232.268C156.813 232.3 156.585 232.328 156.41 232.351C155.985 232.406 155.589 232.496 155.22 232.621C154.856 232.74 154.561 232.922 154.335 233.167C154.114 233.406 154.003 233.734 154.003 234.149C154.003 234.715 154.213 235.144 154.633 235.435C155.057 235.72 155.594 235.863 156.244 235.863ZM168.459 226.46V227.843H162.955V226.46H168.459ZM164.56 223.916H166.191V234.038C166.191 234.499 166.258 234.845 166.392 235.075C166.53 235.301 166.705 235.453 166.917 235.531C167.134 235.605 167.362 235.642 167.602 235.642C167.781 235.642 167.929 235.633 168.044 235.614C168.159 235.591 168.252 235.573 168.321 235.559L168.653 237.025C168.542 237.066 168.388 237.108 168.189 237.149C167.991 237.195 167.74 237.218 167.436 237.218C166.975 237.218 166.523 237.119 166.081 236.921C165.643 236.723 165.279 236.421 164.988 236.015C164.702 235.61 164.56 235.098 164.56 234.48V223.916ZM174.039 237.329C173.366 237.329 172.755 237.202 172.206 236.949C171.658 236.691 171.222 236.32 170.9 235.836C170.577 235.347 170.416 234.757 170.416 234.066C170.416 233.457 170.536 232.964 170.775 232.586C171.015 232.203 171.335 231.904 171.736 231.687C172.137 231.47 172.58 231.309 173.064 231.203C173.552 231.093 174.043 231.005 174.537 230.94C175.182 230.857 175.705 230.795 176.106 230.754C176.512 230.708 176.807 230.632 176.991 230.526C177.18 230.42 177.274 230.235 177.274 229.972V229.917C177.274 229.235 177.088 228.705 176.714 228.327C176.346 227.949 175.786 227.76 175.034 227.76C174.255 227.76 173.645 227.93 173.202 228.272C172.76 228.613 172.448 228.977 172.269 229.364L170.72 228.811C170.997 228.166 171.365 227.663 171.826 227.304C172.292 226.939 172.799 226.686 173.347 226.543C173.9 226.396 174.444 226.322 174.979 226.322C175.32 226.322 175.712 226.363 176.154 226.446C176.602 226.525 177.032 226.688 177.447 226.937C177.867 227.186 178.215 227.562 178.491 228.064C178.768 228.567 178.906 229.24 178.906 230.083V237.08H177.274V235.642H177.192C177.081 235.872 176.897 236.119 176.638 236.382C176.38 236.644 176.037 236.868 175.608 237.052C175.18 237.237 174.656 237.329 174.039 237.329ZM174.288 235.863C174.933 235.863 175.477 235.736 175.919 235.483C176.366 235.229 176.703 234.902 176.929 234.501C177.159 234.1 177.274 233.678 177.274 233.236V231.742C177.205 231.825 177.053 231.901 176.818 231.971C176.588 232.035 176.32 232.093 176.016 232.143C175.717 232.19 175.424 232.231 175.138 232.268C174.857 232.3 174.629 232.328 174.454 232.351C174.029 232.406 173.633 232.496 173.264 232.621C172.9 232.74 172.605 232.922 172.379 233.167C172.158 233.406 172.047 233.734 172.047 234.149C172.047 234.715 172.257 235.144 172.677 235.435C173.101 235.72 173.638 235.863 174.288 235.863ZM174.343 225.022L176.03 221.814H177.938L175.781 225.022H174.343ZM183.516 222.92V237.08H181.884V222.92H183.516ZM190.819 237.301C189.86 237.301 189.019 237.073 188.295 236.617C187.576 236.161 187.014 235.522 186.608 234.702C186.207 233.881 186.007 232.922 186.007 231.825C186.007 230.719 186.207 229.753 186.608 228.928C187.014 228.103 187.576 227.463 188.295 227.006C189.019 226.55 189.86 226.322 190.819 226.322C191.778 226.322 192.617 226.55 193.336 227.006C194.06 227.463 194.622 228.103 195.023 228.928C195.428 229.753 195.631 230.719 195.631 231.825C195.631 232.922 195.428 233.881 195.023 234.702C194.622 235.522 194.06 236.161 193.336 236.617C192.617 237.073 191.778 237.301 190.819 237.301ZM190.819 235.836C191.547 235.836 192.147 235.649 192.617 235.276C193.087 234.902 193.435 234.411 193.661 233.803C193.887 233.194 194 232.535 194 231.825C194 231.116 193.887 230.454 193.661 229.841C193.435 229.228 193.087 228.733 192.617 228.355C192.147 227.977 191.547 227.788 190.819 227.788C190.091 227.788 189.492 227.977 189.021 228.355C188.551 228.733 188.203 229.228 187.977 229.841C187.752 230.454 187.639 231.116 187.639 231.825C187.639 232.535 187.752 233.194 187.977 233.803C188.203 234.411 188.551 234.902 189.021 235.276C189.492 235.649 190.091 235.836 190.819 235.836ZM202.409 241.284C201.621 241.284 200.943 241.182 200.376 240.98C199.809 240.781 199.337 240.519 198.959 240.191C198.585 239.869 198.288 239.523 198.067 239.154L199.367 238.242C199.514 238.435 199.701 238.656 199.927 238.905C200.153 239.159 200.461 239.378 200.853 239.562C201.25 239.751 201.768 239.846 202.409 239.846C203.266 239.846 203.974 239.638 204.531 239.223C205.089 238.809 205.368 238.159 205.368 237.274V235.116H205.23C205.11 235.31 204.939 235.55 204.718 235.836C204.501 236.117 204.188 236.368 203.778 236.589C203.372 236.806 202.824 236.914 202.132 236.914C201.275 236.914 200.505 236.711 199.823 236.306C199.145 235.9 198.608 235.31 198.212 234.536C197.82 233.761 197.624 232.821 197.624 231.715C197.624 230.627 197.816 229.68 198.198 228.873C198.581 228.062 199.113 227.435 199.795 226.992C200.477 226.545 201.266 226.322 202.16 226.322C202.851 226.322 203.4 226.437 203.805 226.668C204.216 226.893 204.529 227.151 204.746 227.442C204.967 227.728 205.138 227.963 205.257 228.147H205.423V226.46H207V237.384C207 238.297 206.792 239.039 206.377 239.611C205.967 240.187 205.414 240.609 204.718 240.876C204.027 241.148 203.257 241.284 202.409 241.284ZM202.354 235.448C203.008 235.448 203.561 235.299 204.013 234.999C204.465 234.699 204.808 234.268 205.043 233.706C205.278 233.144 205.396 232.471 205.396 231.687C205.396 230.922 205.28 230.247 205.05 229.661C204.82 229.076 204.478 228.617 204.027 228.285C203.575 227.954 203.017 227.788 202.354 227.788C201.662 227.788 201.086 227.963 200.625 228.313C200.169 228.663 199.825 229.134 199.595 229.724C199.369 230.314 199.256 230.968 199.256 231.687C199.256 232.425 199.371 233.077 199.602 233.644C199.837 234.206 200.182 234.649 200.639 234.971C201.1 235.289 201.671 235.448 202.354 235.448ZM214.301 237.301C213.342 237.301 212.501 237.073 211.777 236.617C211.058 236.161 210.496 235.522 210.09 234.702C209.689 233.881 209.489 232.922 209.489 231.825C209.489 230.719 209.689 229.753 210.09 228.928C210.496 228.103 211.058 227.463 211.777 227.006C212.501 226.55 213.342 226.322 214.301 226.322C215.26 226.322 216.099 226.55 216.818 227.006C217.541 227.463 218.104 228.103 218.505 228.928C218.91 229.753 219.113 230.719 219.113 231.825C219.113 232.922 218.91 233.881 218.505 234.702C218.104 235.522 217.541 236.161 216.818 236.617C216.099 237.073 215.26 237.301 214.301 237.301ZM214.301 235.836C215.029 235.836 215.629 235.649 216.099 235.276C216.569 234.902 216.917 234.411 217.143 233.803C217.369 233.194 217.481 232.535 217.481 231.825C217.481 231.116 217.369 230.454 217.143 229.841C216.917 229.228 216.569 228.733 216.099 228.355C215.629 227.977 215.029 227.788 214.301 227.788C213.573 227.788 212.974 227.977 212.503 228.355C212.033 228.733 211.685 229.228 211.459 229.841C211.233 230.454 211.121 231.116 211.121 231.825C211.121 232.535 211.233 233.194 211.459 233.803C211.685 234.411 212.033 234.902 212.503 235.276C212.974 235.649 213.573 235.836 214.301 235.836Z" fill="#B3B3B3"/>
<defs>
<filter id="filter0_d_2105_367" x="0.0150785" y="0.0150785" width="386.35" height="386.35" filterUnits="userSpaceOnUse" color-interpolation-filters="sRGB">
<feFlood flood-opacity="0" result="BackgroundImageFix"/>
<feColorMatrix in="SourceAlpha" type="matrix" values="0 0 0 0 0 0 0 0 0 0 0 0 0 0 0 0 0 0 127 0" result="hardAlpha"/>
<feOffset dx="14.69" dy="14.69"/>
<feGaussianBlur stdDeviation="14.69"/>
<feColorMatrix type="matrix" values="0 0 0 0 0.345098 0 0 0 0 0.34902 0 0 0 0 0.356863 0 0 0 0.2 0"/>
<feBlend mode="normal" in2="BackgroundImageFix" result="effect1_dropShadow_2105_367"/>
<feBlend mode="normal" in="SourceGraphic" in2="effect1_dropShadow_2105_367" result="shape"/>
</filter>
</defs>
</svg>
