<svg width="387" height="387" viewBox="0 0 387 387" fill="none" xmlns="http://www.w3.org/2000/svg">
<g filter="url(#filter0_d_2113_374)">
<path d="M332 16H25C20.0294 16 16 20.0294 16 25V332C16 336.971 20.0294 341 25 341H332C336.971 341 341 336.971 341 332V25C341 20.0294 336.971 16 332 16Z" stroke="#CCCCCC" stroke-width="2.59" stroke-miterlimit="10" stroke-dasharray="10.37 10.37"/>
</g>
<path d="M178.38 147.29H207.57C208.42 147.29 208.67 147.63 208.67 148.48V150.26C208.67 151.11 208.42 151.36 207.57 151.36H178.38V180.55C178.38 181.4 178.13 181.65 177.28 181.65H175.5C174.65 181.65 174.4 181.39 174.4 180.55V151.36H145.21C144.36 151.36 144.11 151.1 144.11 150.26V148.48C144.11 147.63 144.37 147.29 145.21 147.29H174.4V118.1C174.4 117.34 174.65 117 175.5 117H177.28C178.13 117 178.38 117.34 178.38 118.1V147.29Z" fill="#B3B3B3"/>
<path d="M142.549 203.985H140.835C140.733 203.492 140.556 203.059 140.302 202.685C140.054 202.312 139.749 201.999 139.39 201.745C139.035 201.487 138.641 201.293 138.207 201.164C137.774 201.035 137.322 200.971 136.852 200.971C135.995 200.971 135.218 201.187 134.522 201.621C133.831 202.054 133.28 202.692 132.87 203.536C132.464 204.379 132.261 205.414 132.261 206.64C132.261 207.866 132.464 208.901 132.87 209.745C133.28 210.588 133.831 211.227 134.522 211.66C135.218 212.093 135.995 212.31 136.852 212.31C137.322 212.31 137.774 212.245 138.207 212.116C138.641 211.987 139.035 211.796 139.39 211.542C139.749 211.284 140.054 210.968 140.302 210.595C140.556 210.217 140.733 209.784 140.835 209.295H142.549C142.42 210.019 142.185 210.667 141.844 211.238C141.503 211.81 141.079 212.296 140.572 212.697C140.065 213.093 139.496 213.395 138.864 213.603C138.237 213.81 137.567 213.914 136.852 213.914C135.645 213.914 134.571 213.619 133.63 213.029C132.69 212.439 131.95 211.6 131.411 210.512C130.872 209.424 130.602 208.134 130.602 206.64C130.602 205.147 130.872 203.856 131.411 202.768C131.95 201.681 132.69 200.842 133.63 200.252C134.571 199.662 135.645 199.367 136.852 199.367C137.567 199.367 138.237 199.47 138.864 199.678C139.496 199.885 140.065 200.189 140.572 200.59C141.079 200.987 141.503 201.471 141.844 202.042C142.185 202.609 142.42 203.257 142.549 203.985ZM145.099 213.72V203.1H146.675V204.704H146.786C146.98 204.179 147.33 203.752 147.837 203.425C148.344 203.098 148.916 202.934 149.552 202.934C149.672 202.934 149.821 202.937 150.001 202.941C150.181 202.946 150.317 202.953 150.409 202.962V204.621C150.354 204.607 150.227 204.587 150.029 204.559C149.835 204.527 149.63 204.511 149.413 204.511C148.897 204.511 148.436 204.619 148.031 204.836C147.63 205.048 147.312 205.343 147.076 205.721C146.846 206.094 146.731 206.52 146.731 207V213.72H145.099ZM152.343 213.72V203.1H153.975V213.72H152.343ZM153.173 201.33C152.855 201.33 152.581 201.222 152.35 201.005C152.124 200.789 152.011 200.528 152.011 200.224C152.011 199.92 152.124 199.659 152.35 199.443C152.581 199.226 152.855 199.118 153.173 199.118C153.491 199.118 153.763 199.226 153.989 199.443C154.219 199.659 154.335 199.92 154.335 200.224C154.335 200.528 154.219 200.789 153.989 201.005C153.763 201.222 153.491 201.33 153.173 201.33ZM160.089 213.969C159.416 213.969 158.805 213.842 158.257 213.589C157.708 213.331 157.272 212.96 156.95 212.476C156.627 211.987 156.466 211.397 156.466 210.706C156.466 210.097 156.586 209.604 156.825 209.226C157.065 208.843 157.385 208.544 157.786 208.327C158.187 208.111 158.63 207.949 159.114 207.843C159.602 207.733 160.093 207.645 160.587 207.581C161.232 207.498 161.755 207.435 162.156 207.394C162.562 207.348 162.857 207.272 163.041 207.166C163.23 207.06 163.325 206.875 163.325 206.613V206.557C163.325 205.875 163.138 205.345 162.764 204.967C162.396 204.589 161.836 204.4 161.084 204.4C160.305 204.4 159.695 204.571 159.252 204.912C158.81 205.253 158.499 205.617 158.319 206.004L156.77 205.451C157.047 204.806 157.415 204.303 157.876 203.944C158.342 203.58 158.849 203.326 159.397 203.183C159.95 203.036 160.494 202.962 161.029 202.962C161.37 202.962 161.762 203.003 162.204 203.086C162.652 203.165 163.083 203.328 163.497 203.577C163.917 203.826 164.265 204.202 164.541 204.704C164.818 205.207 164.956 205.88 164.956 206.723V213.72H163.325V212.282H163.242C163.131 212.513 162.947 212.759 162.688 213.022C162.43 213.285 162.087 213.508 161.658 213.693C161.23 213.877 160.706 213.969 160.089 213.969ZM160.338 212.503C160.983 212.503 161.527 212.377 161.969 212.123C162.416 211.87 162.753 211.542 162.979 211.141C163.209 210.74 163.325 210.318 163.325 209.876V208.383C163.255 208.466 163.103 208.542 162.868 208.611C162.638 208.675 162.37 208.733 162.066 208.784C161.767 208.83 161.474 208.871 161.188 208.908C160.907 208.94 160.679 208.968 160.504 208.991C160.08 209.046 159.683 209.136 159.314 209.261C158.95 209.38 158.655 209.563 158.429 209.807C158.208 210.047 158.097 210.374 158.097 210.789C158.097 211.356 158.307 211.784 158.727 212.075C159.151 212.36 159.688 212.503 160.338 212.503ZM167.934 213.72V203.1H169.511V204.704H169.622C169.815 204.179 170.165 203.752 170.672 203.425C171.179 203.098 171.751 202.934 172.387 202.934C172.507 202.934 172.657 202.937 172.837 202.941C173.016 202.946 173.152 202.953 173.244 202.962V204.621C173.189 204.607 173.062 204.587 172.864 204.559C172.671 204.527 172.465 204.511 172.249 204.511C171.733 204.511 171.272 204.619 170.866 204.836C170.465 205.048 170.147 205.343 169.912 205.721C169.681 206.094 169.566 206.52 169.566 207V213.72H167.934ZM192.104 199.56V213.72H190.445L182.729 202.602H182.591V213.72H180.876V199.56H182.535L190.279 210.706H190.417V199.56H192.104ZM199.629 213.941C198.67 213.941 197.829 213.713 197.105 213.257C196.386 212.801 195.823 212.162 195.418 211.342C195.017 210.521 194.816 209.563 194.816 208.466C194.816 207.359 195.017 206.394 195.418 205.569C195.823 204.743 196.386 204.103 197.105 203.646C197.829 203.19 198.67 202.962 199.629 202.962C200.587 202.962 201.426 203.19 202.145 203.646C202.869 204.103 203.431 204.743 203.832 205.569C204.238 206.394 204.441 207.359 204.441 208.466C204.441 209.563 204.238 210.521 203.832 211.342C203.431 212.162 202.869 212.801 202.145 213.257C201.426 213.713 200.587 213.941 199.629 213.941ZM199.629 212.476C200.357 212.476 200.956 212.289 201.426 211.916C201.896 211.542 202.244 211.051 202.47 210.443C202.696 209.835 202.809 209.175 202.809 208.466C202.809 207.756 202.696 207.094 202.47 206.481C202.244 205.868 201.896 205.373 201.426 204.995C200.956 204.617 200.357 204.428 199.629 204.428C198.9 204.428 198.301 204.617 197.831 204.995C197.361 205.373 197.013 205.868 196.787 206.481C196.561 207.094 196.448 207.756 196.448 208.466C196.448 209.175 196.561 209.835 196.787 210.443C197.013 211.051 197.361 211.542 197.831 211.916C198.301 212.289 198.9 212.476 199.629 212.476ZM215.235 203.1L211.308 213.72H209.649L205.722 203.1H207.492L210.423 211.563H210.534L213.465 203.1H215.235ZM221.323 213.941C220.364 213.941 219.523 213.713 218.799 213.257C218.08 212.801 217.518 212.162 217.112 211.342C216.711 210.521 216.511 209.563 216.511 208.466C216.511 207.359 216.711 206.394 217.112 205.569C217.518 204.743 218.08 204.103 218.799 203.646C219.523 203.19 220.364 202.962 221.323 202.962C222.282 202.962 223.121 203.19 223.84 203.646C224.564 204.103 225.126 204.743 225.527 205.569C225.933 206.394 226.135 207.359 226.135 208.466C226.135 209.563 225.933 210.521 225.527 211.342C225.126 212.162 224.564 212.801 223.84 213.257C223.121 213.713 222.282 213.941 221.323 213.941ZM221.323 212.476C222.051 212.476 222.651 212.289 223.121 211.916C223.591 211.542 223.939 211.051 224.165 210.443C224.391 209.835 224.504 209.175 224.504 208.466C224.504 207.756 224.391 207.094 224.165 206.481C223.939 205.868 223.591 205.373 223.121 204.995C222.651 204.617 222.051 204.428 221.323 204.428C220.595 204.428 219.996 204.617 219.525 204.995C219.055 205.373 218.707 205.868 218.481 206.481C218.256 207.094 218.143 207.756 218.143 208.466C218.143 209.175 218.256 209.835 218.481 210.443C218.707 211.051 219.055 211.542 219.525 211.916C219.996 212.289 220.595 212.476 221.323 212.476Z" fill="#B3B3B3"/>
<path d="M140.715 238V223.84H145.499C146.61 223.84 147.518 224.041 148.223 224.442C148.933 224.838 149.459 225.375 149.8 226.053C150.141 226.73 150.311 227.486 150.311 228.32C150.311 229.155 150.141 229.913 149.8 230.595C149.463 231.277 148.942 231.821 148.237 232.227C147.532 232.628 146.629 232.828 145.527 232.828H142.097V231.307H145.472C146.232 231.307 146.843 231.176 147.304 230.913C147.765 230.65 148.099 230.295 148.306 229.848C148.518 229.397 148.624 228.887 148.624 228.32C148.624 227.753 148.518 227.246 148.306 226.799C148.099 226.352 147.762 226.002 147.297 225.748C146.831 225.49 146.214 225.361 145.444 225.361H142.429V238H140.715ZM152.852 238V227.38H154.429V228.984H154.539C154.733 228.459 155.083 228.032 155.59 227.705C156.097 227.378 156.669 227.214 157.305 227.214C157.425 227.214 157.575 227.216 157.754 227.221C157.934 227.226 158.07 227.233 158.162 227.242V228.901C158.107 228.887 157.98 228.867 157.782 228.839C157.588 228.807 157.383 228.79 157.167 228.79C156.65 228.79 156.19 228.899 155.784 229.115C155.383 229.327 155.065 229.622 154.83 230C154.599 230.374 154.484 230.8 154.484 231.28V238H152.852ZM164.088 238.221C163.129 238.221 162.288 237.993 161.564 237.537C160.845 237.08 160.283 236.442 159.877 235.622C159.476 234.801 159.275 233.842 159.275 232.745C159.275 231.639 159.476 230.673 159.877 229.848C160.283 229.023 160.845 228.383 161.564 227.926C162.288 227.47 163.129 227.242 164.088 227.242C165.046 227.242 165.885 227.47 166.604 227.926C167.328 228.383 167.89 229.023 168.291 229.848C168.697 230.673 168.9 231.639 168.9 232.745C168.9 233.842 168.697 234.801 168.291 235.622C167.89 236.442 167.328 237.08 166.604 237.537C165.885 237.993 165.046 238.221 164.088 238.221ZM164.088 236.755C164.816 236.755 165.415 236.569 165.885 236.195C166.355 235.822 166.703 235.331 166.929 234.723C167.155 234.114 167.268 233.455 167.268 232.745C167.268 232.035 167.155 231.374 166.929 230.761C166.703 230.148 166.355 229.652 165.885 229.274C165.415 228.896 164.816 228.707 164.088 228.707C163.359 228.707 162.76 228.896 162.29 229.274C161.82 229.652 161.472 230.148 161.246 230.761C161.02 231.374 160.907 232.035 160.907 232.745C160.907 233.455 161.02 234.114 161.246 234.723C161.472 235.331 161.82 235.822 162.29 236.195C162.76 236.569 163.359 236.755 164.088 236.755ZM175.401 238.221C174.516 238.221 173.735 237.998 173.057 237.551C172.379 237.099 171.849 236.463 171.467 235.642C171.084 234.817 170.893 233.842 170.893 232.718C170.893 231.602 171.084 230.634 171.467 229.814C171.849 228.993 172.382 228.359 173.064 227.912C173.746 227.465 174.534 227.242 175.428 227.242C176.12 227.242 176.666 227.357 177.067 227.587C177.473 227.813 177.782 228.071 177.994 228.362C178.21 228.648 178.378 228.883 178.498 229.067H178.637V223.84H180.268V238H178.692V236.368H178.498C178.378 236.562 178.208 236.806 177.987 237.101C177.765 237.392 177.45 237.652 177.039 237.882C176.629 238.108 176.083 238.221 175.401 238.221ZM175.622 236.755C176.277 236.755 176.83 236.585 177.281 236.244C177.733 235.898 178.077 235.421 178.312 234.813C178.547 234.2 178.664 233.492 178.664 232.69C178.664 231.897 178.549 231.203 178.319 230.609C178.088 230.01 177.747 229.544 177.295 229.212C176.844 228.876 176.286 228.707 175.622 228.707C174.931 228.707 174.354 228.885 173.894 229.24C173.437 229.59 173.094 230.067 172.863 230.671C172.637 231.27 172.525 231.943 172.525 232.69C172.525 233.446 172.64 234.133 172.87 234.75C173.105 235.363 173.451 235.852 173.907 236.216C174.368 236.576 174.94 236.755 175.622 236.755ZM190.176 233.658V227.38H191.808V238H190.176V236.202H190.066C189.817 236.742 189.429 237.2 188.904 237.578C188.379 237.952 187.715 238.138 186.913 238.138C186.249 238.138 185.659 237.993 185.143 237.703C184.626 237.408 184.221 236.965 183.926 236.375C183.631 235.781 183.483 235.032 183.483 234.128V227.38H185.115V234.017C185.115 234.792 185.332 235.41 185.765 235.87C186.203 236.331 186.761 236.562 187.438 236.562C187.844 236.562 188.256 236.458 188.676 236.251C189.1 236.043 189.455 235.725 189.741 235.297C190.031 234.868 190.176 234.322 190.176 233.658ZM199.415 227.38V228.763H193.911V227.38H199.415ZM195.516 224.836H197.147V234.958C197.147 235.419 197.214 235.764 197.348 235.995C197.486 236.221 197.661 236.373 197.873 236.451C198.09 236.525 198.318 236.562 198.558 236.562C198.738 236.562 198.885 236.553 199 236.534C199.115 236.511 199.208 236.493 199.277 236.479L199.609 237.945C199.498 237.986 199.344 238.028 199.145 238.069C198.947 238.115 198.696 238.138 198.392 238.138C197.931 238.138 197.479 238.039 197.037 237.841C196.599 237.643 196.235 237.341 195.944 236.935C195.658 236.53 195.516 236.018 195.516 235.4V224.836ZM206.07 238.221C205.111 238.221 204.27 237.993 203.546 237.537C202.827 237.08 202.265 236.442 201.859 235.622C201.458 234.801 201.258 233.842 201.258 232.745C201.258 231.639 201.458 230.673 201.859 229.848C202.265 229.023 202.827 228.383 203.546 227.926C204.27 227.47 205.111 227.242 206.07 227.242C207.029 227.242 207.868 227.47 208.587 227.926C209.31 228.383 209.873 229.023 210.274 229.848C210.679 230.673 210.882 231.639 210.882 232.745C210.882 233.842 210.679 234.801 210.274 235.622C209.873 236.442 209.31 237.08 208.587 237.537C207.868 237.993 207.029 238.221 206.07 238.221ZM206.07 236.755C206.798 236.755 207.397 236.569 207.868 236.195C208.338 235.822 208.686 235.331 208.912 234.723C209.137 234.114 209.25 233.455 209.25 232.745C209.25 232.035 209.137 231.374 208.912 230.761C208.686 230.148 208.338 229.652 207.868 229.274C207.397 228.896 206.798 228.707 206.07 228.707C205.342 228.707 204.742 228.896 204.272 229.274C203.802 229.652 203.454 230.148 203.228 230.761C203.002 231.374 202.889 232.035 202.889 232.745C202.889 233.455 203.002 234.114 203.228 234.723C203.454 235.331 203.802 235.822 204.272 236.195C204.742 236.569 205.342 236.755 206.07 236.755Z" fill="#B3B3B3"/>
<defs>
<filter id="filter0_d_2113_374" x="0.0150785" y="0.0150785" width="386.35" height="386.35" filterUnits="userSpaceOnUse" color-interpolation-filters="sRGB">
<feFlood flood-opacity="0" result="BackgroundImageFix"/>
<feColorMatrix in="SourceAlpha" type="matrix" values="0 0 0 0 0 0 0 0 0 0 0 0 0 0 0 0 0 0 127 0" result="hardAlpha"/>
<feOffset dx="14.69" dy="14.69"/>
<feGaussianBlur stdDeviation="14.69"/>
<feColorMatrix type="matrix" values="0 0 0 0 0.345098 0 0 0 0 0.34902 0 0 0 0 0.356863 0 0 0 0.2 0"/>
<feBlend mode="normal" in2="BackgroundImageFix" result="effect1_dropShadow_2113_374"/>
<feBlend mode="normal" in="SourceGraphic" in2="effect1_dropShadow_2113_374" result="shape"/>
</filter>
</defs>
</svg>
