<svg width="387" height="387" viewBox="0 0 387 387" fill="none" xmlns="http://www.w3.org/2000/svg">
<g filter="url(#filter0_d_2183_20)">
<path d="M332 16H25C20.0294 16 16 20.0294 16 25V332C16 336.971 20.0294 341 25 341H332C336.971 341 341 336.971 341 332V25C341 20.0294 336.971 16 332 16Z" stroke="#CCCCCC" stroke-width="2.59" stroke-miterlimit="10" stroke-dasharray="10.37 10.37"/>
</g>
<path d="M178.38 147.29H207.57C208.42 147.29 208.67 147.63 208.67 148.48V150.26C208.67 151.11 208.42 151.36 207.57 151.36H178.38V180.55C178.38 181.4 178.13 181.65 177.28 181.65H175.5C174.65 181.65 174.4 181.39 174.4 180.55V151.36H145.21C144.36 151.36 144.11 151.1 144.11 150.26V148.48C144.11 147.63 144.37 147.29 145.21 147.29H174.4V118.1C174.4 117.34 174.65 117 175.5 117H177.28C178.13 117 178.38 117.34 178.38 118.1V147.29Z" fill="#B3B3B3"/>
<path d="M142.549 203.975H140.834C140.733 203.482 140.555 203.048 140.302 202.675C140.053 202.302 139.749 201.988 139.389 201.735C139.034 201.477 138.64 201.283 138.207 201.154C137.774 201.025 137.322 200.96 136.852 200.96C135.994 200.96 135.218 201.177 134.522 201.61C133.83 202.044 133.28 202.682 132.869 203.526C132.464 204.369 132.261 205.404 132.261 206.63C132.261 207.856 132.464 208.891 132.869 209.734C133.28 210.578 133.83 211.216 134.522 211.65C135.218 212.083 135.994 212.299 136.852 212.299C137.322 212.299 137.774 212.235 138.207 212.106C138.64 211.977 139.034 211.786 139.389 211.532C139.749 211.274 140.053 210.958 140.302 210.585C140.555 210.207 140.733 209.774 140.834 209.285H142.549C142.42 210.009 142.185 210.656 141.844 211.228C141.503 211.799 141.079 212.286 140.572 212.687C140.065 213.083 139.495 213.385 138.864 213.592C138.237 213.8 137.566 213.904 136.852 213.904C135.644 213.904 134.57 213.609 133.63 213.019C132.69 212.429 131.95 211.59 131.41 210.502C130.871 209.414 130.602 208.123 130.602 206.63C130.602 205.137 130.871 203.846 131.41 202.758C131.95 201.67 132.69 200.831 133.63 200.241C134.57 199.651 135.644 199.356 136.852 199.356C137.566 199.356 138.237 199.46 138.864 199.668C139.495 199.875 140.065 200.179 140.572 200.58C141.079 200.977 141.503 201.461 141.844 202.032C142.185 202.599 142.42 203.247 142.549 203.975ZM145.099 213.71V203.09H146.675V204.694H146.786C146.979 204.169 147.33 203.742 147.837 203.415C148.344 203.088 148.915 202.924 149.551 202.924C149.671 202.924 149.821 202.926 150.001 202.931C150.18 202.936 150.316 202.942 150.409 202.952V204.611C150.353 204.597 150.226 204.576 150.028 204.549C149.835 204.517 149.63 204.5 149.413 204.5C148.897 204.5 148.436 204.609 148.03 204.825C147.629 205.037 147.311 205.332 147.076 205.71C146.846 206.084 146.73 206.51 146.73 206.989V213.71H145.099ZM152.343 213.71V203.09H153.974V213.71H152.343ZM153.172 201.32C152.854 201.32 152.58 201.212 152.35 200.995C152.124 200.778 152.011 200.518 152.011 200.214C152.011 199.909 152.124 199.649 152.35 199.432C152.58 199.216 152.854 199.107 153.172 199.107C153.491 199.107 153.762 199.216 153.988 199.432C154.219 199.649 154.334 199.909 154.334 200.214C154.334 200.518 154.219 200.778 153.988 200.995C153.762 201.212 153.491 201.32 153.172 201.32ZM160.088 213.959C159.415 213.959 158.805 213.832 158.256 213.579C157.708 213.32 157.272 212.949 156.949 212.465C156.627 211.977 156.465 211.387 156.465 210.695C156.465 210.087 156.585 209.594 156.825 209.216C157.065 208.833 157.385 208.534 157.786 208.317C158.187 208.1 158.629 207.939 159.113 207.833C159.602 207.722 160.093 207.635 160.586 207.57C161.231 207.487 161.755 207.425 162.156 207.384C162.561 207.337 162.856 207.261 163.041 207.155C163.23 207.049 163.324 206.865 163.324 206.602V206.547C163.324 205.865 163.137 205.335 162.764 204.957C162.395 204.579 161.835 204.39 161.084 204.39C160.305 204.39 159.694 204.56 159.252 204.901C158.809 205.243 158.498 205.607 158.318 205.994L156.77 205.441C157.046 204.795 157.415 204.293 157.876 203.933C158.341 203.569 158.848 203.316 159.397 203.173C159.95 203.025 160.494 202.952 161.029 202.952C161.37 202.952 161.761 202.993 162.204 203.076C162.651 203.154 163.082 203.318 163.497 203.567C163.916 203.816 164.264 204.192 164.541 204.694C164.817 205.196 164.956 205.869 164.956 206.713V213.71H163.324V212.272H163.241C163.13 212.502 162.946 212.749 162.688 213.012C162.43 213.274 162.086 213.498 161.658 213.682C161.229 213.867 160.706 213.959 160.088 213.959ZM160.337 212.493C160.982 212.493 161.526 212.366 161.969 212.113C162.416 211.859 162.752 211.532 162.978 211.131C163.209 210.73 163.324 210.308 163.324 209.866V208.372C163.255 208.455 163.103 208.531 162.868 208.6C162.637 208.665 162.37 208.723 162.066 208.773C161.766 208.819 161.473 208.861 161.188 208.898C160.906 208.93 160.678 208.958 160.503 208.981C160.079 209.036 159.683 209.126 159.314 209.25C158.95 209.37 158.655 209.552 158.429 209.797C158.208 210.036 158.097 210.364 158.097 210.778C158.097 211.345 158.307 211.774 158.726 212.064C159.15 212.35 159.687 212.493 160.337 212.493ZM167.934 213.71V203.09H169.51V204.694H169.621C169.815 204.169 170.165 203.742 170.672 203.415C171.179 203.088 171.751 202.924 172.387 202.924C172.506 202.924 172.656 202.926 172.836 202.931C173.016 202.936 173.152 202.942 173.244 202.952V204.611C173.189 204.597 173.062 204.576 172.864 204.549C172.67 204.517 172.465 204.5 172.248 204.5C171.732 204.5 171.271 204.609 170.866 204.825C170.465 205.037 170.146 205.332 169.911 205.71C169.681 206.084 169.566 206.51 169.566 206.989V213.71H167.934ZM192.104 199.55V213.71H190.444L182.728 202.592H182.59V213.71H180.875V199.55H182.535L190.279 210.695H190.417V199.55H192.104ZM199.628 213.931C198.669 213.931 197.828 213.703 197.104 213.247C196.385 212.79 195.823 212.152 195.417 211.332C195.016 210.511 194.816 209.552 194.816 208.455C194.816 207.349 195.016 206.383 195.417 205.558C195.823 204.733 196.385 204.093 197.104 203.636C197.828 203.18 198.669 202.952 199.628 202.952C200.587 202.952 201.426 203.18 202.145 203.636C202.868 204.093 203.431 204.733 203.832 205.558C204.237 206.383 204.44 207.349 204.44 208.455C204.44 209.552 204.237 210.511 203.832 211.332C203.431 212.152 202.868 212.79 202.145 213.247C201.426 213.703 200.587 213.931 199.628 213.931ZM199.628 212.465C200.356 212.465 200.956 212.279 201.426 211.905C201.896 211.532 202.244 211.041 202.47 210.433C202.696 209.824 202.809 209.165 202.809 208.455C202.809 207.745 202.696 207.084 202.47 206.471C202.244 205.858 201.896 205.362 201.426 204.984C200.956 204.606 200.356 204.417 199.628 204.417C198.9 204.417 198.301 204.606 197.83 204.984C197.36 205.362 197.012 205.858 196.786 206.471C196.561 207.084 196.448 207.745 196.448 208.455C196.448 209.165 196.561 209.824 196.786 210.433C197.012 211.041 197.36 211.532 197.83 211.905C198.301 212.279 198.9 212.465 199.628 212.465ZM215.235 203.09L211.308 213.71H209.648L205.721 203.09H207.491L210.423 211.553H210.533L213.465 203.09H215.235ZM221.323 213.931C220.364 213.931 219.523 213.703 218.799 213.247C218.08 212.79 217.518 212.152 217.112 211.332C216.711 210.511 216.51 209.552 216.51 208.455C216.51 207.349 216.711 206.383 217.112 205.558C217.518 204.733 218.08 204.093 218.799 203.636C219.523 203.18 220.364 202.952 221.323 202.952C222.281 202.952 223.12 203.18 223.839 203.636C224.563 204.093 225.125 204.733 225.526 205.558C225.932 206.383 226.135 207.349 226.135 208.455C226.135 209.552 225.932 210.511 225.526 211.332C225.125 212.152 224.563 212.79 223.839 213.247C223.12 213.703 222.281 213.931 221.323 213.931ZM221.323 212.465C222.051 212.465 222.65 212.279 223.12 211.905C223.59 211.532 223.938 211.041 224.164 210.433C224.39 209.824 224.503 209.165 224.503 208.455C224.503 207.745 224.39 207.084 224.164 206.471C223.938 205.858 223.59 205.362 223.12 204.984C222.65 204.606 222.051 204.417 221.323 204.417C220.594 204.417 219.995 204.606 219.525 204.984C219.055 205.362 218.707 205.858 218.481 206.471C218.255 207.084 218.142 207.745 218.142 208.455C218.142 209.165 218.255 209.824 218.481 210.433C218.707 211.041 219.055 211.532 219.525 211.905C219.995 212.279 220.594 212.465 221.323 212.465Z" fill="#B3B3B3"/>
<path d="M136.28 224.431V222.91H146.9V224.431H142.448V237.07H140.733V224.431H136.28ZM152.238 237.292C151.215 237.292 150.332 237.066 149.59 236.614C148.852 236.158 148.283 235.522 147.882 234.706C147.486 233.885 147.287 232.931 147.287 231.843C147.287 230.755 147.486 229.797 147.882 228.967C148.283 228.133 148.841 227.483 149.555 227.017C150.274 226.547 151.113 226.312 152.072 226.312C152.625 226.312 153.171 226.404 153.711 226.589C154.25 226.773 154.741 227.073 155.183 227.487C155.626 227.898 155.978 228.442 156.241 229.119C156.504 229.797 156.635 230.631 156.635 231.622V232.313H148.449V230.903H154.976C154.976 230.304 154.856 229.769 154.616 229.299C154.381 228.829 154.045 228.458 153.607 228.186C153.174 227.914 152.662 227.778 152.072 227.778C151.422 227.778 150.86 227.939 150.385 228.262C149.915 228.58 149.553 228.995 149.299 229.506C149.046 230.018 148.919 230.566 148.919 231.152V232.092C148.919 232.894 149.057 233.574 149.334 234.132C149.615 234.685 150.005 235.107 150.502 235.397C151 235.683 151.579 235.826 152.238 235.826C152.666 235.826 153.054 235.766 153.399 235.646C153.75 235.522 154.052 235.337 154.305 235.093C154.559 234.844 154.755 234.535 154.893 234.166L156.469 234.609C156.303 235.144 156.024 235.614 155.633 236.019C155.241 236.42 154.757 236.734 154.181 236.96C153.604 237.181 152.957 237.292 152.238 237.292ZM159.117 237.07V226.45H160.694V228.11H160.832C161.053 227.543 161.41 227.103 161.904 226.789C162.397 226.471 162.989 226.312 163.681 226.312C164.381 226.312 164.964 226.471 165.43 226.789C165.9 227.103 166.266 227.543 166.529 228.11H166.64C166.912 227.561 167.32 227.126 167.864 226.803C168.408 226.476 169.06 226.312 169.82 226.312C170.77 226.312 171.546 226.609 172.15 227.204C172.754 227.794 173.056 228.714 173.056 229.963V237.07H171.424V229.963C171.424 229.179 171.21 228.619 170.781 228.283C170.353 227.946 169.848 227.778 169.267 227.778C168.52 227.778 167.942 228.004 167.532 228.455C167.121 228.902 166.916 229.469 166.916 230.156V237.07H165.257V229.797C165.257 229.193 165.061 228.707 164.669 228.338C164.277 227.964 163.773 227.778 163.155 227.778C162.731 227.778 162.335 227.891 161.966 228.117C161.602 228.342 161.307 228.656 161.081 229.057C160.86 229.453 160.749 229.912 160.749 230.433V237.07H159.117ZM176.039 241.053V226.45H177.616V228.137H177.809C177.929 227.953 178.095 227.718 178.307 227.432C178.524 227.142 178.833 226.884 179.234 226.658C179.639 226.427 180.188 226.312 180.879 226.312C181.774 226.312 182.562 226.536 183.244 226.983C183.926 227.43 184.458 228.064 184.841 228.884C185.224 229.705 185.415 230.672 185.415 231.788C185.415 232.913 185.224 233.888 184.841 234.713C184.458 235.533 183.928 236.169 183.251 236.621C182.573 237.068 181.792 237.292 180.907 237.292C180.225 237.292 179.679 237.179 179.268 236.953C178.858 236.722 178.542 236.462 178.321 236.171C178.1 235.876 177.929 235.632 177.809 235.439H177.671V241.053H176.039ZM177.644 231.76C177.644 232.562 177.761 233.27 177.996 233.883C178.231 234.491 178.575 234.968 179.026 235.314C179.478 235.655 180.031 235.826 180.686 235.826C181.368 235.826 181.937 235.646 182.393 235.286C182.854 234.922 183.2 234.434 183.431 233.821C183.666 233.203 183.783 232.516 183.783 231.76C183.783 231.014 183.668 230.341 183.438 229.741C183.212 229.138 182.868 228.661 182.407 228.31C181.951 227.955 181.377 227.778 180.686 227.778C180.022 227.778 179.464 227.946 179.013 228.283C178.561 228.614 178.22 229.08 177.989 229.679C177.759 230.274 177.644 230.967 177.644 231.76ZM189.536 222.91V237.07H187.904V222.91H189.536ZM195.649 237.319C194.977 237.319 194.366 237.192 193.817 236.939C193.269 236.681 192.833 236.31 192.51 235.826C192.188 235.337 192.027 234.747 192.027 234.056C192.027 233.447 192.146 232.954 192.386 232.576C192.626 232.194 192.946 231.894 193.347 231.677C193.748 231.461 194.191 231.299 194.675 231.193C195.163 231.083 195.654 230.995 196.147 230.931C196.793 230.848 197.316 230.785 197.717 230.744C198.122 230.698 198.417 230.622 198.602 230.516C198.791 230.41 198.885 230.225 198.885 229.963V229.907C198.885 229.225 198.699 228.695 198.325 228.317C197.956 227.939 197.396 227.75 196.645 227.75C195.866 227.75 195.255 227.921 194.813 228.262C194.37 228.603 194.059 228.967 193.879 229.354L192.331 228.801C192.607 228.156 192.976 227.653 193.437 227.294C193.903 226.93 194.41 226.676 194.958 226.533C195.511 226.386 196.055 226.312 196.59 226.312C196.931 226.312 197.323 226.354 197.765 226.436C198.212 226.515 198.643 226.678 199.058 226.927C199.478 227.176 199.826 227.552 200.102 228.054C200.379 228.557 200.517 229.23 200.517 230.073V237.07H198.885V235.632H198.802C198.692 235.863 198.507 236.109 198.249 236.372C197.991 236.635 197.648 236.858 197.219 237.043C196.79 237.227 196.267 237.319 195.649 237.319ZM195.898 235.853C196.544 235.853 197.088 235.727 197.53 235.473C197.977 235.22 198.314 234.892 198.54 234.491C198.77 234.09 198.885 233.669 198.885 233.226V231.733C198.816 231.816 198.664 231.892 198.429 231.961C198.198 232.025 197.931 232.083 197.627 232.134C197.327 232.18 197.035 232.221 196.749 232.258C196.468 232.29 196.239 232.318 196.064 232.341C195.64 232.396 195.244 232.486 194.875 232.611C194.511 232.731 194.216 232.913 193.99 233.157C193.769 233.397 193.658 233.724 193.658 234.139C193.658 234.706 193.868 235.134 194.287 235.425C194.711 235.711 195.248 235.853 195.898 235.853ZM208.114 226.45V227.833H202.61V226.45H208.114ZM204.214 223.906H205.846V234.028C205.846 234.489 205.913 234.835 206.046 235.065C206.185 235.291 206.36 235.443 206.572 235.522C206.789 235.595 207.017 235.632 207.256 235.632C207.436 235.632 207.584 235.623 207.699 235.605C207.814 235.581 207.906 235.563 207.976 235.549L208.307 237.015C208.197 237.056 208.042 237.098 207.844 237.139C207.646 237.186 207.395 237.209 207.091 237.209C206.63 237.209 206.178 237.109 205.735 236.911C205.297 236.713 204.933 236.411 204.643 236.006C204.357 235.6 204.214 235.088 204.214 234.471V223.906ZM214.907 237.292C213.884 237.292 213.001 237.066 212.259 236.614C211.521 236.158 210.952 235.522 210.551 234.706C210.155 233.885 209.956 232.931 209.956 231.843C209.956 230.755 210.155 229.797 210.551 228.967C210.952 228.133 211.51 227.483 212.224 227.017C212.943 226.547 213.782 226.312 214.741 226.312C215.294 226.312 215.84 226.404 216.38 226.589C216.919 226.773 217.41 227.073 217.852 227.487C218.295 227.898 218.647 228.442 218.91 229.119C219.173 229.797 219.304 230.631 219.304 231.622V232.313H211.118V230.903H217.645C217.645 230.304 217.525 229.769 217.285 229.299C217.05 228.829 216.714 228.458 216.276 228.186C215.843 227.914 215.331 227.778 214.741 227.778C214.091 227.778 213.529 227.939 213.054 228.262C212.584 228.58 212.222 228.995 211.968 229.506C211.715 230.018 211.588 230.566 211.588 231.152V232.092C211.588 232.894 211.726 233.574 212.003 234.132C212.284 234.685 212.674 235.107 213.171 235.397C213.669 235.683 214.248 235.826 214.907 235.826C215.336 235.826 215.723 235.766 216.068 235.646C216.419 235.522 216.721 235.337 216.974 235.093C217.228 234.844 217.424 234.535 217.562 234.166L219.138 234.609C218.972 235.144 218.693 235.614 218.302 236.019C217.91 236.42 217.426 236.734 216.85 236.96C216.274 237.181 215.626 237.292 214.907 237.292Z" fill="#B3B3B3"/>
<defs>
<filter id="filter0_d_2183_20" x="0.0150003" y="0.0150785" width="386.35" height="386.35" filterUnits="userSpaceOnUse" color-interpolation-filters="sRGB">
<feFlood flood-opacity="0" result="BackgroundImageFix"/>
<feColorMatrix in="SourceAlpha" type="matrix" values="0 0 0 0 0 0 0 0 0 0 0 0 0 0 0 0 0 0 127 0" result="hardAlpha"/>
<feOffset dx="14.69" dy="14.69"/>
<feGaussianBlur stdDeviation="14.69"/>
<feColorMatrix type="matrix" values="0 0 0 0 0.345098 0 0 0 0 0.34902 0 0 0 0 0.356863 0 0 0 0.2 0"/>
<feBlend mode="normal" in2="BackgroundImageFix" result="effect1_dropShadow_2183_20"/>
<feBlend mode="normal" in="SourceGraphic" in2="effect1_dropShadow_2183_20" result="shape"/>
</filter>
</defs>
</svg>
