<svg width="383" height="383" viewBox="0 0 383 383" fill="none" xmlns="http://www.w3.org/2000/svg">
<g filter="url(#filter0_d_2028_140)">
<path d="M328.19 16H25C20.0294 16 16 20.0294 16 25V328.19C16 333.161 20.0294 337.19 25 337.19H328.19C333.16 337.19 337.19 333.161 337.19 328.19V25C337.19 20.0294 333.16 16 328.19 16Z" stroke="#CCCCCC" stroke-width="2.56" stroke-miterlimit="10" stroke-dasharray="10.25 10.25"/>
</g>
<path d="M176.47 145.75H205.32C206.16 145.75 206.41 146.08 206.41 146.92V148.68C206.41 149.52 206.16 149.77 205.32 149.77H176.47V178.62C176.47 179.46 176.22 179.71 175.38 179.71H173.62C172.78 179.71 172.53 179.46 172.53 178.62V149.77H143.68C142.84 149.77 142.59 149.52 142.59 148.68V146.92C142.59 146.08 142.84 145.75 143.68 145.75H172.53V116.9C172.53 116.14 172.78 115.81 173.62 115.81H175.38C176.22 115.81 176.47 116.14 176.47 116.9V145.75Z" fill="#B3B3B3"/>
<path d="M136.238 210.62H134.462L139.6 196.627H141.349L146.487 210.62H144.71L140.529 198.841H140.42L136.238 210.62ZM136.894 205.154H144.055V206.657H136.894V205.154ZM152.411 210.839C151.536 210.839 150.764 210.618 150.094 210.176C149.425 209.73 148.901 209.101 148.523 208.29C148.145 207.475 147.956 206.512 147.956 205.4C147.956 204.298 148.145 203.341 148.523 202.531C148.901 201.72 149.427 201.093 150.101 200.652C150.775 200.21 151.554 199.989 152.438 199.989C153.121 199.989 153.661 200.103 154.057 200.331C154.458 200.554 154.763 200.809 154.973 201.096C155.187 201.378 155.353 201.61 155.471 201.793H155.608V196.627H157.221V210.62H155.663V209.008H155.471C155.353 209.199 155.185 209.44 154.966 209.732C154.747 210.019 154.435 210.276 154.03 210.504C153.624 210.727 153.085 210.839 152.411 210.839ZM152.629 209.39C153.276 209.39 153.823 209.222 154.269 208.885C154.715 208.543 155.055 208.072 155.287 207.47C155.519 206.865 155.635 206.165 155.635 205.373C155.635 204.589 155.522 203.904 155.294 203.316C155.066 202.724 154.729 202.264 154.283 201.936C153.836 201.604 153.285 201.437 152.629 201.437C151.946 201.437 151.377 201.613 150.921 201.963C150.47 202.31 150.131 202.781 149.903 203.378C149.68 203.97 149.568 204.635 149.568 205.373C149.568 206.12 149.682 206.799 149.91 207.409C150.142 208.015 150.484 208.498 150.935 208.857C151.39 209.213 151.955 209.39 152.629 209.39ZM160.398 210.62V200.126H162.01V210.62H160.398ZM161.218 198.376C160.903 198.376 160.632 198.269 160.404 198.055C160.181 197.841 160.07 197.584 160.07 197.283C160.07 196.983 160.181 196.725 160.404 196.511C160.632 196.297 160.903 196.19 161.218 196.19C161.532 196.19 161.801 196.297 162.024 196.511C162.251 196.725 162.365 196.983 162.365 197.283C162.365 197.584 162.251 197.841 162.024 198.055C161.801 198.269 161.532 198.376 161.218 198.376ZM169.227 210.839C168.243 210.839 167.396 210.606 166.685 210.142C165.975 209.677 165.428 209.037 165.045 208.222C164.663 207.407 164.471 206.475 164.471 205.428C164.471 204.362 164.667 203.421 165.059 202.606C165.455 201.786 166.006 201.146 166.712 200.686C167.423 200.221 168.252 199.989 169.199 199.989C169.937 199.989 170.602 200.126 171.195 200.399C171.787 200.672 172.272 201.055 172.65 201.547C173.028 202.039 173.262 202.613 173.354 203.268H171.741C171.618 202.79 171.345 202.367 170.921 201.998C170.502 201.624 169.937 201.437 169.227 201.437C168.598 201.437 168.047 201.601 167.573 201.929C167.104 202.253 166.738 202.71 166.473 203.303C166.214 203.89 166.084 204.58 166.084 205.373C166.084 206.184 166.211 206.89 166.467 207.491C166.726 208.092 167.091 208.559 167.56 208.892C168.033 209.224 168.589 209.39 169.227 209.39C169.646 209.39 170.026 209.317 170.368 209.172C170.709 209.026 170.999 208.816 171.236 208.543C171.472 208.27 171.641 207.942 171.741 207.559H173.354C173.262 208.179 173.037 208.737 172.677 209.233C172.322 209.725 171.85 210.117 171.263 210.408C170.68 210.695 170.001 210.839 169.227 210.839ZM175.711 210.62V200.126H177.323V210.62H175.711ZM176.531 198.376C176.216 198.376 175.945 198.269 175.718 198.055C175.494 197.841 175.383 197.584 175.383 197.283C175.383 196.983 175.494 196.725 175.718 196.511C175.945 196.297 176.216 196.19 176.531 196.19C176.845 196.19 177.114 196.297 177.337 196.511C177.565 196.725 177.678 196.983 177.678 197.283C177.678 197.584 177.565 197.841 177.337 198.055C177.114 198.269 176.845 198.376 176.531 198.376ZM184.54 210.839C183.592 210.839 182.761 210.613 182.046 210.162C181.335 209.711 180.78 209.081 180.379 208.27C179.983 207.459 179.785 206.512 179.785 205.428C179.785 204.334 179.983 203.38 180.379 202.565C180.78 201.749 181.335 201.116 182.046 200.665C182.761 200.214 183.592 199.989 184.54 199.989C185.487 199.989 186.316 200.214 187.027 200.665C187.742 201.116 188.298 201.749 188.694 202.565C189.095 203.38 189.295 204.334 189.295 205.428C189.295 206.512 189.095 207.459 188.694 208.27C188.298 209.081 187.742 209.711 187.027 210.162C186.316 210.613 185.487 210.839 184.54 210.839ZM184.54 209.39C185.26 209.39 185.852 209.206 186.316 208.837C186.781 208.468 187.125 207.983 187.348 207.382C187.571 206.78 187.683 206.129 187.683 205.428C187.683 204.726 187.571 204.072 187.348 203.467C187.125 202.861 186.781 202.371 186.316 201.998C185.852 201.624 185.26 201.437 184.54 201.437C183.82 201.437 183.228 201.624 182.763 201.998C182.299 202.371 181.955 202.861 181.732 203.467C181.509 204.072 181.397 204.726 181.397 205.428C181.397 206.129 181.509 206.78 181.732 207.382C181.955 207.983 182.299 208.468 182.763 208.837C183.228 209.206 183.82 209.39 184.54 209.39ZM193.369 204.307V210.62H191.757V200.126H193.314V201.765H193.451C193.697 201.232 194.07 200.804 194.572 200.481C195.073 200.153 195.719 199.989 196.512 199.989C197.222 199.989 197.844 200.135 198.377 200.426C198.91 200.713 199.325 201.15 199.621 201.738C199.917 202.321 200.065 203.059 200.065 203.952V210.62H198.452V204.061C198.452 203.237 198.238 202.594 197.81 202.134C197.382 201.67 196.794 201.437 196.047 201.437C195.533 201.437 195.073 201.549 194.667 201.772C194.266 201.995 193.95 202.321 193.717 202.749C193.485 203.177 193.369 203.697 193.369 204.307ZM206.099 210.866C205.434 210.866 204.831 210.741 204.289 210.49C203.747 210.235 203.316 209.869 202.998 209.39C202.679 208.907 202.519 208.324 202.519 207.641C202.519 207.04 202.638 206.553 202.875 206.179C203.111 205.801 203.428 205.505 203.824 205.291C204.221 205.077 204.658 204.917 205.136 204.813C205.619 204.703 206.104 204.617 206.591 204.553C207.229 204.471 207.746 204.409 208.142 204.368C208.543 204.323 208.835 204.248 209.017 204.143C209.204 204.038 209.297 203.856 209.297 203.596V203.542C209.297 202.868 209.113 202.344 208.744 201.97C208.379 201.597 207.826 201.41 207.083 201.41C206.314 201.41 205.71 201.579 205.273 201.916C204.835 202.253 204.528 202.613 204.35 202.995L202.82 202.449C203.093 201.811 203.458 201.314 203.913 200.959C204.373 200.599 204.874 200.349 205.416 200.208C205.963 200.062 206.5 199.989 207.029 199.989C207.366 199.989 207.753 200.03 208.19 200.112C208.632 200.189 209.058 200.351 209.468 200.597C209.882 200.843 210.226 201.214 210.5 201.711C210.773 202.207 210.909 202.872 210.909 203.706V210.62H209.297V209.199H209.215C209.106 209.427 208.924 209.67 208.668 209.93C208.413 210.19 208.074 210.411 207.65 210.593C207.227 210.775 206.71 210.866 206.099 210.866ZM206.345 209.418C206.983 209.418 207.521 209.292 207.958 209.042C208.4 208.791 208.732 208.468 208.955 208.072C209.183 207.675 209.297 207.259 209.297 206.821V205.346C209.229 205.428 209.078 205.503 208.846 205.571C208.618 205.635 208.354 205.692 208.054 205.742C207.757 205.787 207.468 205.828 207.186 205.865C206.908 205.897 206.683 205.924 206.509 205.947C206.09 206.001 205.699 206.09 205.334 206.213C204.974 206.332 204.683 206.512 204.46 206.753C204.241 206.99 204.132 207.313 204.132 207.723C204.132 208.283 204.339 208.707 204.753 208.994C205.173 209.276 205.703 209.418 206.345 209.418ZM213.853 210.62V200.126H215.41V201.711H215.52C215.711 201.191 216.057 200.77 216.558 200.447C217.059 200.123 217.624 199.962 218.253 199.962C218.371 199.962 218.519 199.964 218.697 199.968C218.874 199.973 219.009 199.98 219.1 199.989V201.629C219.045 201.615 218.92 201.595 218.724 201.567C218.533 201.535 218.33 201.519 218.116 201.519C217.606 201.519 217.15 201.626 216.749 201.841C216.353 202.05 216.039 202.342 215.807 202.715C215.579 203.084 215.465 203.505 215.465 203.979V210.62H213.853Z" fill="#B3B3B3"/>
<path d="M138.834 233.71V219.717H147.279V221.22H140.529V225.948H146.842V227.451H140.529V232.207H147.389V233.71H138.834ZM150.115 233.71V223.215H151.673V224.855H151.809C152.028 224.295 152.381 223.86 152.868 223.55C153.356 223.236 153.941 223.079 154.624 223.079C155.316 223.079 155.893 223.236 156.353 223.55C156.817 223.86 157.179 224.295 157.439 224.855H157.548C157.817 224.313 158.22 223.883 158.758 223.564C159.295 223.24 159.94 223.079 160.691 223.079C161.63 223.079 162.397 223.373 162.994 223.96C163.59 224.543 163.889 225.452 163.889 226.686V233.71H162.276V226.686C162.276 225.912 162.065 225.359 161.641 225.026C161.217 224.693 160.719 224.527 160.145 224.527C159.407 224.527 158.835 224.75 158.43 225.197C158.024 225.639 157.822 226.199 157.822 226.878V233.71H156.182V226.522C156.182 225.926 155.988 225.445 155.601 225.081C155.214 224.712 154.715 224.527 154.105 224.527C153.686 224.527 153.294 224.639 152.93 224.862C152.57 225.085 152.278 225.395 152.055 225.791C151.836 226.183 151.727 226.636 151.727 227.151V233.71H150.115ZM166.837 237.645V223.215H168.395V224.883H168.586C168.705 224.7 168.868 224.468 169.078 224.186C169.292 223.899 169.597 223.644 169.994 223.42C170.394 223.193 170.936 223.079 171.62 223.079C172.503 223.079 173.282 223.3 173.956 223.742C174.63 224.183 175.157 224.81 175.535 225.62C175.913 226.431 176.102 227.388 176.102 228.49C176.102 229.601 175.913 230.565 175.535 231.38C175.157 232.191 174.633 232.819 173.963 233.266C173.294 233.708 172.522 233.929 171.647 233.929C170.973 233.929 170.433 233.817 170.028 233.594C169.622 233.366 169.31 233.109 169.092 232.822C168.873 232.53 168.705 232.289 168.586 232.098H168.449V237.645H166.837ZM168.422 228.463C168.422 229.255 168.538 229.954 168.771 230.56C169.003 231.161 169.342 231.633 169.789 231.975C170.235 232.312 170.782 232.48 171.428 232.48C172.102 232.48 172.665 232.302 173.116 231.947C173.571 231.587 173.913 231.105 174.141 230.499C174.373 229.888 174.489 229.21 174.489 228.463C174.489 227.725 174.375 227.06 174.148 226.468C173.924 225.871 173.585 225.4 173.13 225.053C172.679 224.703 172.112 224.527 171.428 224.527C170.772 224.527 170.221 224.693 169.775 225.026C169.329 225.354 168.991 225.814 168.764 226.406C168.536 226.994 168.422 227.679 168.422 228.463ZM178.561 233.71V223.215H180.119V224.801H180.228C180.42 224.281 180.766 223.86 181.267 223.537C181.768 223.213 182.333 223.051 182.961 223.051C183.08 223.051 183.228 223.054 183.406 223.058C183.583 223.063 183.718 223.07 183.809 223.079V224.719C183.754 224.705 183.629 224.684 183.433 224.657C183.242 224.625 183.039 224.609 182.825 224.609C182.315 224.609 181.859 224.716 181.458 224.93C181.062 225.14 180.748 225.431 180.515 225.805C180.288 226.174 180.174 226.595 180.174 227.069V233.71H178.561ZM189.801 233.929C188.789 233.929 187.917 233.705 187.184 233.259C186.455 232.808 185.893 232.18 185.496 231.373C185.105 230.563 184.909 229.62 184.909 228.545C184.909 227.47 185.105 226.522 185.496 225.702C185.893 224.878 186.444 224.236 187.15 223.776C187.86 223.311 188.689 223.079 189.637 223.079C190.183 223.079 190.723 223.17 191.256 223.352C191.789 223.534 192.274 223.83 192.711 224.24C193.148 224.646 193.497 225.183 193.757 225.853C194.016 226.522 194.146 227.347 194.146 228.326V229.009H186.056V227.615H192.506C192.506 227.023 192.388 226.495 192.151 226.03C191.919 225.566 191.586 225.199 191.153 224.93C190.725 224.662 190.22 224.527 189.637 224.527C188.994 224.527 188.439 224.687 187.97 225.006C187.505 225.32 187.147 225.73 186.897 226.235C186.646 226.741 186.521 227.283 186.521 227.861V228.791C186.521 229.583 186.658 230.255 186.931 230.806C187.209 231.353 187.594 231.77 188.086 232.057C188.578 232.339 189.149 232.48 189.801 232.48C190.224 232.48 190.607 232.421 190.948 232.302C191.295 232.18 191.593 231.997 191.844 231.756C192.094 231.51 192.288 231.205 192.424 230.84L193.982 231.278C193.818 231.806 193.543 232.271 193.155 232.671C192.768 233.068 192.29 233.377 191.721 233.601C191.151 233.819 190.511 233.929 189.801 233.929ZM204.032 225.566L202.584 225.976C202.493 225.734 202.359 225.5 202.181 225.272C202.008 225.04 201.771 224.848 201.47 224.698C201.17 224.548 200.785 224.473 200.316 224.473C199.673 224.473 199.138 224.621 198.71 224.917C198.286 225.208 198.075 225.579 198.075 226.03C198.075 226.431 198.22 226.748 198.512 226.98C198.803 227.212 199.259 227.406 199.878 227.561L201.436 227.943C202.375 228.171 203.074 228.52 203.534 228.989C203.994 229.453 204.224 230.052 204.224 230.786C204.224 231.387 204.051 231.924 203.705 232.398C203.363 232.872 202.885 233.245 202.27 233.519C201.655 233.792 200.94 233.929 200.124 233.929C199.054 233.929 198.168 233.696 197.467 233.232C196.765 232.767 196.321 232.088 196.134 231.196L197.665 230.813C197.81 231.378 198.086 231.801 198.491 232.084C198.901 232.366 199.437 232.507 200.097 232.507C200.849 232.507 201.445 232.348 201.887 232.029C202.334 231.706 202.557 231.319 202.557 230.868C202.557 230.503 202.429 230.198 202.174 229.952C201.919 229.702 201.527 229.515 200.999 229.392L199.25 228.982C198.289 228.754 197.583 228.401 197.132 227.923C196.685 227.44 196.462 226.837 196.462 226.112C196.462 225.52 196.628 224.996 196.961 224.541C197.298 224.085 197.756 223.728 198.334 223.468C198.917 223.209 199.578 223.079 200.316 223.079C201.354 223.079 202.17 223.307 202.762 223.762C203.358 224.217 203.782 224.819 204.032 225.566ZM209.739 233.956C209.074 233.956 208.471 233.831 207.929 233.58C207.387 233.325 206.956 232.958 206.637 232.48C206.318 231.997 206.159 231.414 206.159 230.731C206.159 230.13 206.278 229.642 206.514 229.269C206.751 228.891 207.068 228.595 207.464 228.381C207.86 228.167 208.298 228.007 208.776 227.902C209.259 227.793 209.744 227.707 210.231 227.643C210.869 227.561 211.386 227.499 211.782 227.458C212.183 227.413 212.474 227.338 212.657 227.233C212.843 227.128 212.937 226.946 212.937 226.686V226.632C212.937 225.957 212.752 225.434 212.383 225.06C212.019 224.687 211.466 224.5 210.723 224.5C209.953 224.5 209.35 224.668 208.913 225.006C208.475 225.343 208.168 225.702 207.99 226.085L206.46 225.538C206.733 224.901 207.097 224.404 207.553 224.049C208.013 223.689 208.514 223.439 209.056 223.297C209.603 223.152 210.14 223.079 210.668 223.079C211.006 223.079 211.393 223.12 211.83 223.202C212.272 223.279 212.698 223.441 213.108 223.687C213.522 223.933 213.866 224.304 214.139 224.801C214.413 225.297 214.549 225.962 214.549 226.796V233.71H212.937V232.289H212.855C212.745 232.517 212.563 232.76 212.308 233.02C212.053 233.28 211.714 233.5 211.29 233.683C210.867 233.865 210.35 233.956 209.739 233.956ZM209.985 232.507C210.623 232.507 211.16 232.382 211.598 232.132C212.039 231.881 212.372 231.558 212.595 231.161C212.823 230.765 212.937 230.348 212.937 229.911V228.435C212.868 228.517 212.718 228.593 212.486 228.661C212.258 228.725 211.994 228.782 211.693 228.832C211.397 228.877 211.108 228.918 210.826 228.955C210.548 228.987 210.322 229.014 210.149 229.037C209.73 229.091 209.338 229.18 208.974 229.303C208.614 229.421 208.323 229.601 208.099 229.843C207.881 230.08 207.772 230.403 207.772 230.813C207.772 231.373 207.979 231.797 208.393 232.084C208.812 232.366 209.343 232.507 209.985 232.507Z" fill="#B3B3B3"/>
<defs>
<filter id="filter0_d_2028_140" x="0.2" y="0.200214" width="381.83" height="381.83" filterUnits="userSpaceOnUse" color-interpolation-filters="sRGB">
<feFlood flood-opacity="0" result="BackgroundImageFix"/>
<feColorMatrix in="SourceAlpha" type="matrix" values="0 0 0 0 0 0 0 0 0 0 0 0 0 0 0 0 0 0 127 0" result="hardAlpha"/>
<feOffset dx="14.52" dy="14.52"/>
<feGaussianBlur stdDeviation="14.52"/>
<feColorMatrix type="matrix" values="0 0 0 0 0.345098 0 0 0 0 0.34902 0 0 0 0 0.356863 0 0 0 0.2 0"/>
<feBlend mode="normal" in2="BackgroundImageFix" result="effect1_dropShadow_2028_140"/>
<feBlend mode="normal" in="SourceGraphic" in2="effect1_dropShadow_2028_140" result="shape"/>
</filter>
</defs>
</svg>
