<svg width="148" height="136" viewBox="0 0 148 136" fill="none" xmlns="http://www.w3.org/2000/svg">
<path opacity="0.85" d="M15.31 12.4102H132.06C140.51 12.4102 147.37 19.2702 147.37 27.7202V120.64C147.37 129.09 140.51 135.95 132.06 135.95H15.31C6.86 135.95 0 129.09 0 120.64V27.7202C0 19.2702 6.86 12.4102 15.31 12.4102Z" fill="url(#paint0_linear_2097_305)"/>
<path d="M132.06 12.41H44.02V0H29.67V12.41H15.31C6.85 12.41 0 19.26 0 27.72V52.5H147.38V27.72C147.38 19.26 140.52 12.41 132.07 12.41H132.06Z" fill="url(#paint1_linear_2097_305)"/>
<path d="M116.27 0H101.91V27.27H116.27V0Z" fill="#DE616A"/>
<path d="M39.5601 83.4601V76.8201C42.6301 76.6801 44.7901 76.4801 46.0101 76.2101C47.9701 75.7801 49.56 74.9101 50.79 73.6101C51.64 72.7201 52.27 71.53 52.7 70.05C52.95 69.16 53.08 68.5001 53.08 68.0601H61.22V116.28H51.23V83.4601H39.5601Z" fill="white"/>
<path d="M81.3201 104.4C81.7101 106.52 82.44 108.16 83.54 109.31C84.64 110.46 86.2301 111.04 88.3201 111.04C90.7301 111.04 92.5701 110.19 93.8401 108.49C95.1001 106.79 95.7301 104.65 95.7301 102.07C95.7301 99.4902 95.1401 97.4002 93.9601 95.6502C92.7701 93.9002 90.9301 93.0302 88.4301 93.0302C87.2401 93.0302 86.2201 93.1802 85.3501 93.4702C83.8301 94.0202 82.6802 95.0302 81.9102 96.5202L73.1602 96.1102L74.0302 68.7002H100.68V76.9802H82.79L81.9001 87.8302C83.4001 86.8502 84.58 86.2002 85.42 85.8802C86.83 85.3502 88.5501 85.0902 90.5801 85.0902C94.6801 85.0902 98.2601 86.4702 101.31 89.2302C104.36 91.9902 105.89 96.0102 105.89 101.28C105.89 105.87 104.42 109.96 101.48 113.56C98.5401 117.17 94.1402 118.97 88.2802 118.97C83.5602 118.97 79.6902 117.71 76.6602 115.17C73.6302 112.64 71.9401 109.04 71.6001 104.39H81.3201V104.4Z" fill="white"/>
<path d="M132.06 12.4102H73.1899V135.95H132.06C140.52 135.95 147.37 129.09 147.37 120.64V27.7202C147.37 19.2602 140.51 12.4102 132.06 12.4102Z" fill="url(#paint2_linear_2097_305)"/>
<path d="M132.06 12.41H116.27V0H101.91V12.41H73.1899V52.5H147.37V27.72C147.37 19.26 140.51 12.41 132.06 12.41Z" fill="url(#paint3_linear_2097_305)"/>
<path d="M101.31 89.24C98.2597 86.48 94.6797 85.1 90.5797 85.1C88.5497 85.1 86.8297 85.36 85.4197 85.89C84.5797 86.21 83.3998 86.86 81.8998 87.84L82.7897 76.99H100.68V68.71H74.0298L73.1897 94.99V96.12L81.8998 96.53C82.6698 95.05 83.8197 94.03 85.3397 93.48C86.2097 93.18 87.2297 93.04 88.4197 93.04C90.9197 93.04 92.7697 93.91 93.9497 95.66C95.1297 97.41 95.7197 99.54 95.7197 102.08C95.7197 104.62 95.0897 106.8 93.8297 108.5C92.5597 110.2 90.7297 111.05 88.3097 111.05C86.2097 111.05 84.6298 110.47 83.5298 109.32C82.4298 108.17 81.6997 106.53 81.3097 104.41H73.1797V110.73C74.0197 112.47 75.1698 113.96 76.6498 115.19C79.6798 117.72 83.5598 118.99 88.2698 118.99C94.1298 118.99 98.5297 117.19 101.47 113.58C104.41 109.98 105.88 105.88 105.88 101.3C105.88 96.03 104.35 92.01 101.3 89.25L101.31 89.24Z" fill="white"/>
<defs>
<linearGradient id="paint0_linear_2097_305" x1="20.19" y1="63.9502" x2="345.17" y2="126.15" gradientUnits="userSpaceOnUse">
<stop offset="0.14" stop-color="#F6921E"/>
<stop offset="0.41" stop-color="#EE413D"/>
<stop offset="0.93" stop-color="#0000FF"/>
</linearGradient>
<linearGradient id="paint1_linear_2097_305" x1="36.57" y1="-56.66" x2="102.96" y2="113.86" gradientUnits="userSpaceOnUse">
<stop offset="0.14" stop-color="#F6921E"/>
<stop offset="0.41" stop-color="#EE413D"/>
<stop offset="0.93" stop-color="#0000FF"/>
</linearGradient>
<linearGradient id="paint2_linear_2097_305" x1="193.94" y1="25.5302" x2="-191.13" y2="235.19" gradientUnits="userSpaceOnUse">
<stop offset="0.14" stop-color="#F6921E"/>
<stop offset="0.41" stop-color="#EE413D"/>
<stop offset="0.93" stop-color="#0000FF"/>
</linearGradient>
<linearGradient id="paint3_linear_2097_305" x1="174.61" y1="-51.43" x2="55.11" y2="104.42" gradientUnits="userSpaceOnUse">
<stop offset="0.14" stop-color="#F6921E"/>
<stop offset="0.41" stop-color="#EE413D"/>
<stop offset="0.93" stop-color="#0000FF"/>
</linearGradient>
</defs>
</svg>
