<svg width="175" height="138" viewBox="0 0 175 138" fill="none" xmlns="http://www.w3.org/2000/svg">
<path d="M167.79 0.269531H84.5898V107.46H127.74L116.89 131.979C115.34 135.479 119.59 138.66 122.51 136.18L156.41 107.46H167.79C171.67 107.46 174.82 104.31 174.82 100.43V7.2995C174.82 3.4195 171.67 0.269531 167.79 0.269531Z" fill="url(#paint0_linear_2044_4)"/>
<path d="M7.83081 0.269531C3.95081 0.269531 0.800781 3.4195 0.800781 7.2995V100.43C0.800781 104.31 3.95081 107.46 7.83081 107.46H84.5808V0.269531H7.83081Z" fill="url(#paint1_linear_2044_4)"/>
<path d="M28.14 23.6201C26.36 23.6201 24.9199 25.3401 24.9199 27.4701C24.9199 29.6001 26.36 31.3201 28.14 31.3201H85.09V23.6301H28.14V23.6201Z" fill="white"/>
<path d="M147.48 23.6204H85.0898V31.3104H147.48C149.26 31.3104 150.7 29.5904 150.7 27.4604C150.7 25.3304 149.26 23.6104 147.48 23.6104V23.6204Z" fill="white"/>
<path d="M28.14 49.7695C26.36 49.7695 24.9199 51.4895 24.9199 53.6195C24.9199 55.7495 26.36 57.4695 28.14 57.4695H85.09V49.7795H28.14V49.7695Z" fill="white"/>
<path d="M147.48 49.7698H85.0898V57.4598H147.48C149.26 57.4598 150.7 55.7397 150.7 53.6097C150.7 51.4797 149.26 49.7598 147.48 49.7598V49.7698Z" fill="white"/>
<path d="M28.14 75.9199C26.36 75.9199 24.9199 77.64 24.9199 79.77C24.9199 81.9 26.36 83.6199 28.14 83.6199H85.09V75.9299H28.14V75.9199Z" fill="white"/>
<path d="M147.48 75.9202H85.0898V83.6102H147.48C149.26 83.6102 150.7 81.8902 150.7 79.7602C150.7 77.6302 149.26 75.9102 147.48 75.9102V75.9202Z" fill="white"/>
<defs>
<linearGradient id="paint0_linear_2044_4" x1="227.41" y1="40.4095" x2="17.8099" y2="87.8495" gradientUnits="userSpaceOnUse">
<stop offset="0.14" stop-color="#F6921E"/>
<stop offset="0.41" stop-color="#EE413D"/>
<stop offset="0.93" stop-color="#0000FF"/>
</linearGradient>
<linearGradient id="paint1_linear_2044_4" x1="-51.1392" y1="20.2195" x2="307.391" y2="144.88" gradientUnits="userSpaceOnUse">
<stop offset="0.14" stop-color="#F6921E"/>
<stop offset="0.41" stop-color="#EE413D"/>
<stop offset="0.93" stop-color="#0000FF"/>
</linearGradient>
</defs>
</svg>
