<svg width="325" height="325" viewBox="0 0 325 325" fill="none" xmlns="http://www.w3.org/2000/svg">
<path d="M315.29 0.700195H9.7002C4.72963 0.700195 0.700195 4.72962 0.700195 9.70019V315.29C0.700195 320.261 4.72963 324.29 9.7002 324.29H315.29C320.261 324.29 324.29 320.261 324.29 315.29V9.70019C324.29 4.72962 320.261 0.700195 315.29 0.700195Z" fill="url(#paint0_linear_2016_166)"/>
<mask id="mask0_2016_166" style="mask-type:luminance" maskUnits="userSpaceOnUse" x="0" y="0" width="325" height="325">
<path d="M315.329 0H8.98089C4.02088 0 0 4.01803 0 8.97452V315.105C0 320.062 4.02088 324.08 8.98089 324.08H315.329C320.289 324.08 324.31 320.062 324.31 315.105V8.97452C324.31 4.01803 320.289 0 315.329 0Z" fill="white"/>
</mask>
<g mask="url(#mask0_2016_166)">
<path opacity="0.3" d="M323.541 186.89C352.25 52.7902 126.281 155.33 204.066 213.04C243.023 241.94 164.54 299.53 207.109 323.2C249.669 346.86 263.449 308.3 307.545 287.45C362.628 261.41 316.127 221.55 323.541 186.89Z" stroke="#000080" stroke-width="0.45" stroke-miterlimit="10"/>
<path opacity="0.32" d="M325.947 187.2C348.948 58.0802 131.311 151.61 202.4 212.07C237.804 242.19 168.063 303.08 210.592 323.91C253.092 344.75 269.437 308.88 309.731 286.73C360.144 259.25 319.87 221.33 325.947 187.2Z" stroke="#000080" stroke-width="0.45" stroke-miterlimit="10"/>
<path opacity="0.34" d="M328.341 187.5C345.774 63.5 136.29 147.78 200.713 211.1C232.545 242.38 171.575 306.63 214.065 324.62C256.504 342.64 275.324 309.32 311.906 286C357.549 256.91 323.611 221.14 328.341 187.5Z" stroke="#000080" stroke-width="0.45" stroke-miterlimit="10"/>
<path opacity="0.35" d="M330.746 187.81C342.781 69.0602 141.229 143.84 199.046 210.13C227.296 242.52 175.097 310.17 217.547 325.33C259.927 340.53 281.251 309.84 314.082 285.28C354.985 254.68 327.373 221.02 330.736 187.81H330.746Z" stroke="#000080" stroke-width="0.45" stroke-miterlimit="10"/>
<path opacity="0.37" d="M333.152 188.12C339.977 74.7402 146.159 139.77 197.38 209.16C222.058 242.59 178.62 313.72 221.04 326.04C263.36 338.42 287.189 310.37 316.277 284.56C352.431 252.47 331.176 220.93 333.152 188.12Z" stroke="#000080" stroke-width="0.45" stroke-miterlimit="10"/>
<path opacity="0.39" d="M335.546 188.42C337.382 80.5402 151.098 135.55 195.703 208.19C216.819 242.59 182.132 317.27 224.512 326.74C266.772 336.29 293.096 310.91 318.452 283.82C349.856 250.27 334.997 220.87 335.546 188.41V188.42Z" stroke="#000080" stroke-width="0.45" stroke-miterlimit="10"/>
<path opacity="0.41" d="M337.951 188.73C335.057 86.4403 156.118 131.19 194.027 207.22C211.63 242.52 185.645 320.81 227.995 327.45C270.185 334.18 299.014 311.49 320.628 283.1C347.281 248.11 338.859 220.87 337.951 188.72V188.73Z" stroke="#000080" stroke-width="0.45" stroke-miterlimit="10"/>
<path opacity="0.42" d="M340.356 189.03C333.002 92.4302 161.247 126.71 192.361 206.24C206.501 242.38 189.168 324.35 231.478 328.15C273.608 332.06 304.941 312.07 322.813 282.37C344.717 245.97 342.781 220.9 340.356 189.02V189.03Z" stroke="#000080" stroke-width="0.45" stroke-miterlimit="10"/>
<path opacity="0.44" d="M342.761 189.34C331.236 98.4803 166.516 122.15 190.695 205.28C201.442 242.22 192.69 327.91 234.97 328.87C277.041 329.96 310.889 312.7 325.009 281.65C342.192 243.86 346.782 220.96 342.771 189.33L342.761 189.34Z" stroke="#000080" stroke-width="0.45" stroke-miterlimit="10"/>
<path opacity="0.46" d="M345.156 189.64C329.768 104.54 171.934 117.52 189.008 204.3C196.432 242.02 196.193 331.44 238.433 329.57C280.443 327.84 316.836 313.33 327.164 280.92C339.657 241.77 350.824 221.03 345.146 189.63L345.156 189.64Z" stroke="#000080" stroke-width="0.45" stroke-miterlimit="10"/>
<path opacity="0.48" d="M347.561 189.95C328.611 110.6 177.542 112.9 187.342 203.34C191.513 241.84 199.715 335 241.925 330.29C283.876 325.73 322.833 313.98 329.359 280.21C337.193 239.7 355.005 221.12 347.561 189.95Z" stroke="#000080" stroke-width="0.45" stroke-miterlimit="10"/>
<path opacity="0.49" d="M349.965 190.25C327.752 116.59 183.31 108.31 185.675 202.36C186.663 241.65 203.237 338.54 245.408 330.99C287.299 323.61 328.85 314.61 331.544 279.48C334.748 237.61 359.285 221.16 349.965 190.26V190.25Z" stroke="#000080" stroke-width="0.45" stroke-miterlimit="10"/>
<path opacity="0.51" d="M352.36 190.56C327.164 122.47 189.207 103.8 183.998 201.39C181.853 241.51 206.75 342.08 248.89 331.7C290.721 321.5 334.897 315.23 333.72 278.75C332.323 235.51 363.686 221.15 352.36 190.56Z" stroke="#000080" stroke-width="0.45" stroke-miterlimit="10"/>
<path opacity="0.53" d="M354.765 190.86C326.825 128.18 195.235 99.3601 182.322 200.42C177.093 241.4 210.263 345.63 252.373 332.41C294.134 319.39 340.965 315.84 335.905 278.03C329.938 233.39 368.237 221.07 354.765 190.87V190.86Z" stroke="#000080" stroke-width="0.45" stroke-miterlimit="10"/>
<path opacity="0.55" d="M357.17 191.17C326.665 133.68 201.342 95.0403 180.656 199.45C172.354 241.34 213.785 349.18 255.856 333.12C297.557 317.28 347.032 316.43 338.091 277.31C327.553 231.25 372.927 220.87 357.17 191.18V191.17Z" stroke="#000080" stroke-width="0.45" stroke-miterlimit="10"/>
<path opacity="0.56" d="M359.575 191.47C326.635 138.91 207.508 90.8103 178.989 198.47C167.643 241.31 217.308 352.71 259.348 333.82C300.99 315.15 353.129 317 340.276 276.57C325.178 229.07 377.766 220.49 359.575 191.47Z" stroke="#000080" stroke-width="0.45" stroke-miterlimit="10"/>
<path opacity="0.58" d="M361.97 191.78C326.635 143.82 213.685 86.6801 177.313 197.51C162.923 241.34 220.82 356.27 262.821 334.54C304.402 313.05 359.196 317.56 342.451 275.86C322.793 226.9 382.726 219.94 361.97 191.79V191.78Z" stroke="#000080" stroke-width="0.45" stroke-miterlimit="10"/>
<path opacity="0.6" d="M364.375 192.08C326.595 148.39 219.892 82.6301 175.636 196.53C158.203 241.39 224.333 359.81 266.303 335.24C307.825 310.93 365.273 318.1 344.637 275.13C320.418 224.7 387.785 219.15 364.385 192.09L364.375 192.08Z" stroke="#000080" stroke-width="0.45" stroke-miterlimit="10"/>
<path d="M187.402 167.78C-17.6023 154.95 210.991 409.07 267.481 306.65C295.771 255.36 407.104 340.08 426.513 285.31C445.922 230.54 385.021 220.24 339.189 170.78C281.94 109.01 240.379 171.1 187.412 167.78H187.402Z" stroke="#000080" stroke-width="0.45" stroke-miterlimit="10"/>
<g style="mix-blend-mode:hard-light" opacity="0.97">
<path d="M186.992 164.86C-9.00086 158.05 203.717 403.77 266.653 308.81C297.916 261.64 411.016 335.3 426.313 281.03C441.64 226.79 383.754 212.98 337.362 168.29C279.675 112.33 238.672 166.66 187.002 164.86H186.992Z" stroke="#000080" stroke-width="0.45" stroke-miterlimit="10"/>
</g>
<g style="mix-blend-mode:hard-light" opacity="0.94">
<path d="M186.593 161.93C-0.269074 160.98 196.283 398.56 265.825 310.97C299.982 267.95 414.928 330.52 426.104 276.75C437.35 223.03 382.327 205.88 335.527 165.79C277.221 115.85 236.996 162.19 186.583 161.93H186.593Z" stroke="#000080" stroke-width="0.45" stroke-miterlimit="10"/>
</g>
<g style="mix-blend-mode:hard-light" opacity="0.91">
<path d="M186.194 159.01C8.56191 163.73 188.649 393.44 265.006 313.13C301.948 274.28 418.839 325.74 425.914 272.47C433.079 219.28 381.019 198.71 333.71 163.3C274.905 119.29 235.379 157.71 186.184 159.01H186.194Z" stroke="#000080" stroke-width="0.45" stroke-miterlimit="10"/>
</g>
<g style="mix-blend-mode:hard-light" opacity="0.88">
<path d="M185.785 156.08C17.4928 166.24 180.785 388.31 264.178 315.28C303.784 280.6 422.751 320.95 425.714 268.17C428.798 215.51 379.712 191.52 331.884 160.79C272.6 122.7 233.793 153.17 185.785 156.07V156.08Z" stroke="#000080" stroke-width="0.45" stroke-miterlimit="10"/>
</g>
<g style="mix-blend-mode:hard-light" opacity="0.85">
<path d="M185.386 153.15C26.5236 168.5 172.703 383.13 263.36 317.44C305.53 286.88 426.672 316.17 425.515 263.89C424.517 211.75 378.425 184.34 330.068 158.3C270.325 126.13 232.256 148.62 185.386 153.15Z" stroke="#000080" stroke-width="0.45" stroke-miterlimit="10"/>
</g>
<g style="mix-blend-mode:hard-light" opacity="0.82">
<path d="M184.987 150.23C35.6443 170.49 164.43 377.84 262.542 319.6C307.177 293.1 430.594 311.39 425.325 259.61C420.256 208 377.168 177.16 328.252 155.81C268.08 129.55 230.759 144.02 184.987 150.23Z" stroke="#000080" stroke-width="0.45" stroke-miterlimit="10"/>
</g>
<g style="mix-blend-mode:hard-light" opacity="0.79">
<path d="M184.588 147.3C44.8249 172.15 156.008 372.37 261.723 321.75C308.753 299.23 434.506 306.6 425.136 255.32C415.985 204.24 375.941 169.95 326.436 153.3C265.855 132.93 229.302 139.34 184.598 147.29L184.588 147.3Z" stroke="#000080" stroke-width="0.45" stroke-miterlimit="10"/>
</g>
<g style="mix-blend-mode:hard-light" opacity="0.76">
<path d="M184.178 144.38C54.035 173.47 147.466 366.7 260.895 323.92C310.28 305.29 438.417 301.83 424.936 251.05C411.704 200.5 374.703 162.74 324.609 150.82C263.649 136.32 227.865 134.62 184.188 144.39L184.178 144.38Z" stroke="#000080" stroke-width="0.45" stroke-miterlimit="10"/>
</g>
<g style="mix-blend-mode:hard-light" opacity="0.74">
<path d="M183.779 141.45C63.2657 174.42 138.895 360.82 260.067 326.07C311.777 311.24 442.329 297.04 424.727 246.75C407.414 196.72 373.476 155.47 322.774 148.31C261.434 139.64 226.429 129.78 183.769 141.45H183.779Z" stroke="#000080" stroke-width="0.45" stroke-miterlimit="10"/>
</g>
<g style="mix-blend-mode:hard-light" opacity="0.71">
<path d="M183.38 138.53C72.4557 174.99 130.323 354.74 259.248 328.24C313.293 317.13 446.24 292.27 424.537 242.48C403.142 192.98 372.278 148.21 320.957 145.83C259.248 142.96 225.011 124.85 183.37 138.54L183.38 138.53Z" stroke="#000080" stroke-width="0.45" stroke-miterlimit="10"/>
</g>
<g style="mix-blend-mode:hard-light" opacity="0.68">
<path d="M182.971 135.6C81.5468 175.16 121.791 348.46 258.42 330.39C314.83 322.93 450.153 287.48 424.338 238.19C398.862 189.22 371.051 140.9 319.141 143.32C257.053 146.22 223.565 119.77 182.981 135.6H182.971Z" stroke="#000080" stroke-width="0.45" stroke-miterlimit="10"/>
</g>
<g style="mix-blend-mode:hard-light" opacity="0.65">
<path d="M182.572 132.68C90.5075 174.95 113.339 342.05 257.602 332.55C316.397 328.68 454.074 282.7 424.138 233.91C394.581 185.46 369.823 133.58 317.315 140.83C254.838 149.46 222.048 114.55 182.572 132.68Z" stroke="#000080" stroke-width="0.45" stroke-miterlimit="10"/>
</g>
<g style="mix-blend-mode:hard-light" opacity="0.62">
<path d="M182.172 129.75C99.2385 174.39 105.136 341.94 256.783 334.71C317.943 331.79 457.995 277.92 423.948 229.63C390.319 181.71 368.585 126.23 315.498 138.34C252.612 152.69 220.431 109.16 182.172 129.76V129.75Z" stroke="#000080" stroke-width="0.45" stroke-miterlimit="10"/>
</g>
<g style="mix-blend-mode:hard-light" opacity="0.59">
<path d="M181.763 126.83C107.671 173.55 96.6743 328.87 255.955 336.87C319.65 340.07 461.897 273.14 423.749 225.34C386.039 177.95 367.309 118.86 313.673 135.84C250.357 155.88 218.655 103.57 181.763 126.83Z" stroke="#000080" stroke-width="0.45" stroke-miterlimit="10"/>
</g>
<g style="mix-blend-mode:hard-light" opacity="0.56">
<path d="M181.364 123.9C115.724 172.5 88.492 322.16 255.127 339.02C321.337 345.72 465.809 268.35 423.549 221.05C381.758 174.18 366.022 111.48 311.847 133.34C248.073 159.07 216.649 97.78 181.364 123.9Z" stroke="#000080" stroke-width="0.45" stroke-miterlimit="10"/>
</g>
<g style="mix-blend-mode:hard-light" opacity="0.53">
<path d="M180.965 120.97C123.318 171.36 80.3892 315.41 254.309 341.18C323.063 351.36 469.731 263.57 423.35 216.77C377.477 170.43 364.664 104 310.021 130.84C245.698 162.13 214.334 91.7901 180.955 120.97H180.965Z" stroke="#000080" stroke-width="0.45" stroke-miterlimit="10"/>
</g>
<g style="mix-blend-mode:hard-light" opacity="0.5">
<path d="M180.556 118.05C130.363 170.31 72.3563 308.65 253.481 343.34C324.819 357 473.633 258.79 423.15 212.49C373.196 166.68 363.387 96.7402 308.205 128.35C243.442 165.46 211.66 85.6702 180.556 118.05Z" stroke="#000080" stroke-width="0.45" stroke-miterlimit="10"/>
</g>
<path d="M179.189 275.72C89.7989 460.49 445.692 373.31 357.12 269.88C312.765 218.09 444.385 156.27 393.034 111.04C341.683 65.8102 308.204 117.47 238.433 135.7C151.298 158.46 202.29 227.97 179.199 275.72H179.189Z" stroke="#000080" stroke-width="0.45" stroke-miterlimit="10"/>
<path d="M175.916 274.64C96.335 453.89 437.25 377.33 359.126 271.72C320.229 219.14 440.722 150.26 388.384 109.1C336.085 67.9302 299.972 115.06 235.09 136.16C154.012 162.21 196.921 227.33 175.916 274.65V274.64Z" stroke="#000087" stroke-width="0.45" stroke-miterlimit="10"/>
<path d="M172.643 273.57C102.732 447.08 428.868 381.53 361.122 273.56C327.693 220.27 437.05 144.24 383.724 107.17C330.487 70.0701 291.809 112.87 231.737 136.63C156.816 166.25 191.543 226.64 172.633 273.58L172.643 273.57Z" stroke="#00008F" stroke-width="0.45" stroke-miterlimit="10"/>
<path d="M169.37 272.49C108.958 440.04 420.495 385.93 363.128 275.39C335.157 221.48 433.388 138.21 379.084 105.22C324.899 72.1801 283.657 110.55 228.414 137.08C159.62 170.12 186.184 225.86 169.37 272.49Z" stroke="#000096" stroke-width="0.45" stroke-miterlimit="10"/>
<path d="M166.096 271.42C114.975 432.76 412.083 390.55 365.133 277.23C342.591 222.81 429.735 132.2 374.433 103.28C319.31 74.3103 275.504 108.21 225.071 137.54C162.424 173.97 180.795 225.02 166.096 271.42Z" stroke="#00009E" stroke-width="0.45" stroke-miterlimit="10"/>
<path d="M162.823 270.34C120.743 425.25 403.571 395.36 367.129 279.06C349.945 224.23 426.063 126.17 369.783 101.34C313.712 76.4302 267.361 105.85 221.728 138C165.248 177.8 175.377 224.11 162.813 270.34H162.823Z" stroke="#0000A5" stroke-width="0.45" stroke-miterlimit="10"/>
<path d="M159.55 269.27C126.201 417.51 394.91 400.36 369.134 280.9C357.23 225.74 422.401 120.16 365.133 99.4004C308.124 78.5504 259.218 103.47 218.395 138.46C168.072 181.59 169.928 223.14 159.55 269.26V269.27Z" stroke="#0000AD" stroke-width="0.45" stroke-miterlimit="10"/>
<path d="M156.278 268.19C131.331 409.55 386.039 405.47 371.141 282.73C364.415 227.3 418.74 114.13 360.494 97.4602C302.537 80.6802 251.096 101.05 215.063 138.92C170.907 185.34 164.421 222.09 156.288 268.19H156.278Z" stroke="#0000B4" stroke-width="0.45" stroke-miterlimit="10"/>
<path d="M152.995 267.12C136.061 401.41 376.908 410.66 373.136 284.58C371.47 228.92 415.067 108.13 355.833 95.5303C296.938 82.8103 242.933 98.6103 211.71 139.39C173.691 189.06 158.812 220.99 152.995 267.12Z" stroke="#0000BC" stroke-width="0.45" stroke-miterlimit="10"/>
<path d="M149.722 266.04C140.391 393.11 367.538 415.84 375.132 286.41C378.415 230.51 411.405 102.1 351.173 93.5802C291.33 84.9302 234.741 96.1202 208.367 139.84C176.465 192.73 153.114 219.82 149.722 266.03V266.04Z" stroke="#0000C3" stroke-width="0.45" stroke-miterlimit="10"/>
<path d="M146.448 264.97C144.283 384.73 357.919 420.96 377.138 288.25C385.27 232.08 407.743 96.0801 346.533 91.6501C285.752 87.0601 226.538 93.6301 205.034 140.32C179.199 196.4 147.287 218.65 146.448 264.98V264.97Z" stroke="#0000CB" stroke-width="0.45" stroke-miterlimit="10"/>
<path d="M143.175 263.89C147.726 376.3 348.099 425.95 379.143 290.08C392.046 233.59 404.08 90.0601 341.883 89.7001C280.154 89.1801 218.286 91.1201 201.691 140.77C181.883 200.03 141.289 217.43 143.175 263.89Z" stroke="#0000D2" stroke-width="0.45" stroke-miterlimit="10"/>
<path d="M139.902 262.82C150.719 367.92 338.121 430.81 381.149 291.92C398.772 235.04 400.418 84.04 337.242 87.77C274.566 91.31 210.003 88.63 198.358 141.24C184.537 203.7 135.112 216.25 139.902 262.82Z" stroke="#0000DA" stroke-width="0.45" stroke-miterlimit="10"/>
<path d="M136.63 261.74C153.304 359.68 328.022 435.49 383.145 293.75C405.438 236.42 396.756 78.0201 332.583 85.8201C268.968 93.4301 201.681 86.1301 195.015 141.69C187.142 207.36 128.686 215.12 136.63 261.74Z" stroke="#0000E1" stroke-width="0.45" stroke-miterlimit="10"/>
<path d="M133.356 260.67C155.519 351.68 317.844 440.02 385.151 295.59C412.103 237.75 393.094 72.0002 327.942 83.8802C263.38 95.5502 193.349 83.6702 191.682 142.15C189.727 211.05 122.021 214.11 133.356 260.66V260.67Z" stroke="#0000E9" stroke-width="0.45" stroke-miterlimit="10"/>
<path d="M130.084 259.59C157.445 344.02 307.646 444.4 387.157 297.43C418.759 239.01 389.432 65.9901 323.293 81.9501C257.792 97.6901 184.987 81.2401 188.34 142.62C192.281 214.79 115.076 213.28 130.084 259.59Z" stroke="#0000F0" stroke-width="0.45" stroke-miterlimit="10"/>
<path d="M126.81 258.52C159.171 336.81 297.427 448.65 389.152 299.27C425.415 240.22 385.759 59.9701 318.632 80.0101C252.183 99.8101 176.614 78.8201 184.996 143.08C194.835 218.54 107.86 212.69 126.8 258.52H126.81Z" stroke="#0000F8" stroke-width="0.45" stroke-miterlimit="10"/>
<path d="M123.527 257.45C160.838 330.15 287.219 452.78 391.148 301.11C432.081 241.37 382.087 53.9502 313.982 78.0802C246.595 101.95 168.242 76.4302 181.653 143.55C197.39 222.32 100.416 212.41 123.527 257.45Z" stroke="#0000FF" stroke-width="0.45" stroke-miterlimit="10"/>
</g>
<defs>
<linearGradient id="paint0_linear_2016_166" x1="8.64019" y1="-150.72" x2="343.52" y2="531.04" gradientUnits="userSpaceOnUse">
<stop offset="0.14" stop-color="#F6921E"/>
<stop offset="0.41" stop-color="#EE413D"/>
<stop offset="0.86" stop-color="#0000FF"/>
</linearGradient>
</defs>
</svg>
