<svg width="325" height="325" viewBox="0 0 325 325" fill="none" xmlns="http://www.w3.org/2000/svg">
<g filter="url(#filter0_d_2001_4)">
<path d="M329.3 15H23.71C18.7394 15 14.71 19.0294 14.71 24V329.59C14.71 334.561 18.7394 338.59 23.71 338.59H329.3C334.27 338.59 338.3 334.561 338.3 329.59V24C338.3 19.0294 334.27 15 329.3 15Z" fill="white"/>
</g>
<path d="M23.7001 338.59L329.29 338.59C334.261 338.59 338.29 334.561 338.29 329.59L338.29 24C338.29 19.0294 334.261 15 329.29 15L23.7001 15C18.7295 15 14.7001 19.0294 14.7001 24L14.7001 329.59C14.7001 334.561 18.7295 338.59 23.7001 338.59Z" fill="url(#paint0_linear_2001_4)"/>
<mask id="mask0_2001_4" style="mask-type:luminance" maskUnits="userSpaceOnUse" x="14" y="15" width="325" height="325">
<path d="M330 15H23C18.0294 15 14 19.0294 14 24V331C14 335.971 18.0294 340 23 340H330C334.971 340 339 335.971 339 331V24C339 19.0294 334.971 15 330 15Z" fill="white"/>
</mask>
<g mask="url(#mask0_2001_4)">
<path opacity="0.3" d="M325.42 15.48C354.19 -118.62 127.74 -16.08 205.69 41.63C244.73 70.53 166.08 128.12 208.74 151.79C251.39 175.45 265.2 136.89 309.39 116.04C364.59 90 317.99 50.14 325.42 15.48Z" stroke="#000080" stroke-width="0.45" stroke-miterlimit="10"/>
<path opacity="0.32" d="M327.821 15.78C350.871 -113.34 132.771 -19.81 204.011 40.65C239.491 70.77 169.601 131.66 212.221 152.49C254.811 173.33 271.191 137.46 311.571 115.31C362.091 87.83 321.731 49.91 327.821 15.78Z" stroke="#000080" stroke-width="0.45" stroke-miterlimit="10"/>
<path opacity="0.34" d="M330.231 16.09C347.701 -107.91 137.771 -23.63 202.331 39.69C234.231 70.97 173.131 135.22 215.711 153.21C258.241 171.23 277.101 137.91 313.761 114.59C359.501 85.5 325.491 49.73 330.231 16.09Z" stroke="#000080" stroke-width="0.45" stroke-miterlimit="10"/>
<path opacity="0.35" d="M332.64 16.39C344.7 -102.36 142.72 -27.58 200.66 38.71C228.97 71.1 176.66 138.75 219.2 153.91C261.67 169.11 283.04 138.42 315.94 113.86C356.93 83.26 329.26 49.6 332.63 16.39H332.64Z" stroke="#000080" stroke-width="0.45" stroke-miterlimit="10"/>
<path opacity="0.37" d="M335.04 16.7C341.88 -96.68 147.65 -31.65 198.98 37.74C223.71 71.17 180.18 142.3 222.69 154.62C265.1 167 288.98 138.95 318.13 113.14C354.36 81.05 333.06 49.51 335.04 16.7Z" stroke="#000080" stroke-width="0.45" stroke-miterlimit="10"/>
<path opacity="0.39" d="M337.45 17C339.29 -90.88 152.61 -35.8701 197.31 36.7699C218.47 71.1699 183.71 145.85 226.18 155.32C268.53 164.87 294.91 139.49 320.32 112.4C351.79 78.8499 336.9 49.4499 337.45 16.9899V17Z" stroke="#000080" stroke-width="0.45" stroke-miterlimit="10"/>
<path opacity="0.41" d="M339.86 17.31C336.96 -84.98 157.64 -40.23 195.63 35.8C213.27 71.1 187.23 149.39 229.67 156.03C271.95 162.76 300.84 140.07 322.5 111.68C349.21 76.69 340.77 49.45 339.86 17.3V17.31Z" stroke="#000080" stroke-width="0.45" stroke-miterlimit="10"/>
<path opacity="0.42" d="M342.27 17.61C334.9 -78.99 162.78 -44.71 193.96 34.82C208.13 70.96 190.76 152.93 233.16 156.73C275.38 160.64 306.78 140.65 324.69 110.95C346.64 74.55 344.7 49.48 342.27 17.6V17.61Z" stroke="#000080" stroke-width="0.45" stroke-miterlimit="10"/>
<path opacity="0.44" d="M344.67 17.92C333.12 -72.94 168.05 -49.27 192.28 33.86C203.05 70.8 194.28 156.49 236.65 157.45C278.81 158.54 312.73 141.28 326.88 110.23C344.1 72.44 348.7 49.54 344.68 17.91L344.67 17.92Z" stroke="#000080" stroke-width="0.45" stroke-miterlimit="10"/>
<path opacity="0.46" d="M347.08 18.2199C331.66 -66.8801 173.49 -53.9001 190.6 32.8799C198.04 70.5999 197.8 160.02 240.13 158.15C282.23 156.42 318.7 141.91 329.05 109.5C341.57 70.3499 352.76 49.6099 347.07 18.2099L347.08 18.2199Z" stroke="#000080" stroke-width="0.45" stroke-miterlimit="10"/>
<path opacity="0.48" d="M349.49 18.53C330.5 -60.82 179.11 -58.52 188.93 31.92C193.11 70.42 201.33 163.58 243.63 158.87C285.67 154.31 324.71 142.56 331.25 108.79C339.1 68.28 356.95 49.7 349.49 18.53Z" stroke="#000080" stroke-width="0.45" stroke-miterlimit="10"/>
<path opacity="0.49" d="M351.89 18.8301C329.63 -54.8299 184.88 -63.1099 187.25 30.9401C188.24 70.2301 204.85 167.12 247.11 159.57C289.09 152.19 330.73 143.19 333.43 108.06C336.64 66.19 361.23 49.7401 351.89 18.8401V18.8301Z" stroke="#000080" stroke-width="0.45" stroke-miterlimit="10"/>
<path opacity="0.51" d="M354.3 19.1401C329.05 -48.9499 190.8 -67.6199 185.58 29.97C183.43 70.09 208.38 170.66 250.61 160.28C292.53 150.08 336.8 143.81 335.62 107.33C334.22 64.09 365.65 49.7301 354.3 19.1401Z" stroke="#000080" stroke-width="0.45" stroke-miterlimit="10"/>
<path opacity="0.53" d="M356.71 19.4401C328.71 -43.2399 196.84 -72.06 183.9 29C178.66 69.98 211.9 174.21 254.1 160.99C295.95 147.97 342.88 144.42 337.81 106.61C331.83 61.97 370.21 49.6501 356.71 19.4501V19.4401Z" stroke="#000080" stroke-width="0.45" stroke-miterlimit="10"/>
<path opacity="0.55" d="M359.12 19.75C328.55 -37.74 202.96 -76.38 182.23 28.03C173.91 69.92 215.43 177.76 257.59 161.7C299.38 145.86 348.96 145.01 340 105.89C329.44 59.83 374.91 49.45 359.12 19.76V19.75Z" stroke="#000080" stroke-width="0.45" stroke-miterlimit="10"/>
<path opacity="0.56" d="M361.52 20.05C328.51 -32.51 209.13 -80.61 180.55 27.05C169.18 69.89 218.95 181.29 261.08 162.4C302.81 143.73 355.06 145.58 342.18 105.15C327.05 57.65 379.75 49.07 361.52 20.05Z" stroke="#000080" stroke-width="0.45" stroke-miterlimit="10"/>
<path opacity="0.58" d="M363.93 20.36C328.52 -27.6 215.33 -84.74 178.88 26.09C164.46 69.92 222.48 184.85 264.57 163.12C306.24 141.63 361.15 146.14 344.37 104.44C324.67 55.48 384.73 48.52 363.93 20.37V20.36Z" stroke="#000080" stroke-width="0.45" stroke-miterlimit="10"/>
<path opacity="0.6" d="M366.34 20.66C328.48 -23.03 221.55 -88.79 177.2 25.11C159.73 69.97 226 188.39 268.06 163.82C309.67 139.51 367.24 146.68 346.56 103.71C322.29 53.28 389.8 47.73 366.35 20.67L366.34 20.66Z" stroke="#000080" stroke-width="0.45" stroke-miterlimit="10"/>
<path d="M188.98 -3.63994C-16.4598 -16.4699 212.62 237.65 269.23 135.23C297.58 83.9401 409.15 168.66 428.6 113.89C448.05 59.12 387.02 48.8201 341.09 -0.639942C283.72 -62.4099 242.07 -0.319942 188.99 -3.63994H188.98Z" stroke="#000080" stroke-width="0.45" stroke-miterlimit="10"/>
<g style="mix-blend-mode:hard-light" opacity="0.97">
<path d="M188.58 -6.56003C-7.82973 -13.37 205.34 232.35 268.41 137.39C299.74 90.22 413.08 163.88 428.41 109.61C443.77 55.37 385.76 41.56 339.27 -3.13003C281.46 -59.09 240.37 -4.76003 188.59 -6.56003H188.58Z" stroke="#000080" stroke-width="0.45" stroke-miterlimit="10"/>
</g>
<g style="mix-blend-mode:hard-light" opacity="0.94">
<path d="M188.18 -9.48994C0.920242 -10.4399 197.89 227.14 267.58 139.55C301.81 96.5301 417 159.1 428.2 105.33C439.47 51.6101 384.33 34.4601 337.43 -5.62994C279 -55.5699 238.69 -9.22994 188.17 -9.48994H188.18Z" stroke="#000080" stroke-width="0.45" stroke-miterlimit="10"/>
</g>
<g style="mix-blend-mode:hard-light" opacity="0.91">
<path d="M187.77 -12.41C9.76032 -7.68998 190.23 222.02 266.75 141.71C303.77 102.86 420.91 154.32 428 101.05C435.18 47.86 383.01 27.29 335.6 -8.11998C276.67 -52.13 237.06 -13.71 187.76 -12.41H187.77Z" stroke="#000080" stroke-width="0.45" stroke-miterlimit="10"/>
</g>
<g style="mix-blend-mode:hard-light" opacity="0.88">
<path d="M187.37 -15.34C18.7202 -5.18001 182.36 216.89 265.93 143.86C305.62 109.18 424.84 149.53 427.81 96.75C430.9 44.09 381.71 20.1 333.78 -10.63C274.37 -48.72 235.48 -18.25 187.37 -15.35V-15.34Z" stroke="#000080" stroke-width="0.45" stroke-miterlimit="10"/>
</g>
<g style="mix-blend-mode:hard-light" opacity="0.85">
<path d="M186.97 -18.26C27.7704 -2.91001 174.26 211.72 265.11 146.03C307.37 115.47 428.77 144.76 427.61 92.48C426.61 40.34 380.42 12.93 331.96 -13.11C272.09 -45.28 233.94 -22.79 186.97 -18.26Z" stroke="#000080" stroke-width="0.45" stroke-miterlimit="10"/>
</g>
<g style="mix-blend-mode:hard-light" opacity="0.82">
<path d="M186.57 -21.19C36.9104 -0.930017 165.97 206.42 264.29 148.18C309.02 121.68 432.7 139.97 427.42 88.19C422.34 36.58 379.16 5.73998 330.14 -15.61C269.84 -41.87 232.44 -27.4 186.57 -21.19Z" stroke="#000080" stroke-width="0.45" stroke-miterlimit="10"/>
</g>
<g style="mix-blend-mode:hard-light" opacity="0.79">
<path d="M186.16 -24.12C46.1003 0.730047 157.52 200.95 263.46 150.33C310.59 127.81 436.61 135.18 427.22 83.9C418.05 32.82 377.92 -1.46995 328.31 -18.12C267.6 -38.49 230.97 -32.08 186.17 -24.13L186.16 -24.12Z" stroke="#000080" stroke-width="0.45" stroke-miterlimit="10"/>
</g>
<g style="mix-blend-mode:hard-light" opacity="0.76">
<path d="M185.76 -27.04C55.3404 2.05 148.97 195.28 262.64 152.5C312.13 133.87 440.54 130.41 427.03 79.63C413.77 29.08 376.69 -8.68001 326.49 -20.6C265.4 -35.1 229.54 -36.8 185.77 -27.03L185.76 -27.04Z" stroke="#000080" stroke-width="0.45" stroke-miterlimit="10"/>
</g>
<g style="mix-blend-mode:hard-light" opacity="0.74">
<path d="M185.36 -29.97C64.5902 3.00002 140.38 189.4 261.81 154.65C313.63 139.82 444.46 125.62 426.82 75.33C409.47 25.3 375.46 -15.95 324.65 -23.11C263.18 -31.78 228.1 -41.64 185.35 -29.97H185.36Z" stroke="#000080" stroke-width="0.45" stroke-miterlimit="10"/>
</g>
<g style="mix-blend-mode:hard-light" opacity="0.71">
<path d="M184.95 -32.8899C73.79 3.57006 131.78 183.32 260.98 156.82C315.14 145.71 448.37 120.85 426.62 71.06C405.18 21.56 374.25 -23.2099 322.82 -25.5899C260.98 -28.4599 226.67 -46.5699 184.94 -32.8799L184.95 -32.8899Z" stroke="#000080" stroke-width="0.45" stroke-miterlimit="10"/>
</g>
<g style="mix-blend-mode:hard-light" opacity="0.68">
<path d="M184.55 -35.82C82.9102 3.73996 123.24 177.04 260.16 158.97C316.69 151.51 452.3 116.06 426.43 66.77C400.9 17.8 373.03 -30.52 321.01 -28.1C258.79 -25.2 225.23 -51.65 184.56 -35.82H184.55Z" stroke="#000080" stroke-width="0.45" stroke-miterlimit="10"/>
</g>
<g style="mix-blend-mode:hard-light" opacity="0.65">
<path d="M184.15 -38.74C91.8904 3.53 114.77 170.63 259.34 161.13C318.26 157.26 456.23 111.28 426.23 62.49C396.61 14.04 371.8 -37.84 319.18 -30.59C256.57 -21.96 223.71 -56.87 184.15 -38.74Z" stroke="#000080" stroke-width="0.45" stroke-miterlimit="10"/>
</g>
<g style="mix-blend-mode:hard-light" opacity="0.62">
<path d="M183.74 -41.67C100.63 2.97001 106.54 170.52 258.51 163.29C319.8 160.37 460.15 106.5 426.03 58.21C392.33 10.29 370.55 -45.19 317.35 -33.08C254.33 -18.73 222.08 -62.26 183.74 -41.66V-41.67Z" stroke="#000080" stroke-width="0.45" stroke-miterlimit="10"/>
</g>
<g style="mix-blend-mode:hard-light" opacity="0.59">
<path d="M183.34 -44.5899C109.09 2.13006 98.0704 157.45 257.69 165.45C321.52 168.65 464.07 101.72 425.84 53.9201C388.05 6.53005 369.28 -52.5599 315.53 -35.5799C252.08 -15.5399 220.31 -67.8499 183.34 -44.5899Z" stroke="#000080" stroke-width="0.45" stroke-miterlimit="10"/>
</g>
<g style="mix-blend-mode:hard-light" opacity="0.56">
<path d="M182.94 -47.52C117.16 1.07997 89.8704 150.74 256.86 167.6C323.21 174.3 467.99 96.93 425.64 49.63C383.76 2.75998 367.99 -59.94 313.7 -38.08C249.79 -12.35 218.3 -73.64 182.94 -47.52Z" stroke="#000080" stroke-width="0.45" stroke-miterlimit="10"/>
</g>
<g style="mix-blend-mode:hard-light" opacity="0.53">
<path d="M182.53 -50.44C124.76 -0.0499816 81.7404 144 256.03 169.77C324.93 179.95 471.91 92.16 425.43 45.36C379.46 -0.979984 366.62 -67.41 311.86 -40.57C247.4 -9.27998 215.97 -79.62 182.52 -50.44H182.53Z" stroke="#000080" stroke-width="0.45" stroke-miterlimit="10"/>
</g>
<g style="mix-blend-mode:hard-light" opacity="0.5">
<path d="M182.13 -53.37C131.83 -1.11 73.7001 137.23 255.21 171.92C326.7 185.58 475.83 87.37 425.24 41.07C375.18 -4.74 365.35 -74.68 310.05 -43.07C245.15 -5.96 213.3 -85.75 182.13 -53.37Z" stroke="#000080" stroke-width="0.45" stroke-miterlimit="10"/>
</g>
<path d="M180.761 104.3C91.1807 289.07 447.831 201.89 359.071 98.46C314.621 46.67 446.521 -15.15 395.061 -60.38C343.601 -105.61 310.051 -53.95 240.131 -35.72C152.811 -12.96 203.911 56.55 180.771 104.3H180.761Z" stroke="#000080" stroke-width="0.45" stroke-miterlimit="10"/>
<path d="M177.481 103.22C97.7306 282.47 439.371 205.91 361.081 100.3C322.101 47.7201 442.851 -21.1599 390.401 -62.3199C337.991 -103.49 301.801 -56.3599 236.781 -35.2599C155.531 -9.20994 198.531 55.9101 177.481 103.23V103.22Z" stroke="#000087" stroke-width="0.45" stroke-miterlimit="10"/>
<path d="M174.201 102.15C104.141 275.66 430.971 210.11 363.081 102.14C329.581 48.85 439.171 -27.1799 385.731 -64.2499C332.381 -101.35 293.621 -58.5499 233.421 -34.7899C158.341 -5.16994 193.141 55.2201 174.191 102.16L174.201 102.15Z" stroke="#00008F" stroke-width="0.45" stroke-miterlimit="10"/>
<path d="M170.92 101.07C110.38 268.62 422.58 214.51 365.09 103.97C337.06 50.06 435.5 -33.21 381.08 -66.2C326.78 -99.24 285.45 -60.87 230.09 -34.34C161.15 -1.30003 187.77 54.44 170.92 101.07Z" stroke="#000096" stroke-width="0.45" stroke-miterlimit="10"/>
<path d="M167.64 100C116.41 261.34 414.15 219.13 367.1 105.81C344.51 51.39 431.84 -39.22 376.42 -68.14C321.18 -97.11 277.28 -63.21 226.74 -33.88C163.96 2.55005 182.37 53.6 167.64 100Z" stroke="#00009E" stroke-width="0.45" stroke-miterlimit="10"/>
<path d="M164.351 98.9201C122.181 253.83 405.611 223.94 369.091 107.64C351.871 52.8101 428.151 -45.2499 371.751 -70.0799C315.561 -94.9899 269.111 -65.5699 223.381 -33.4199C166.781 6.38006 176.931 52.6901 164.341 98.9201H164.351Z" stroke="#0000A5" stroke-width="0.45" stroke-miterlimit="10"/>
<path d="M161.071 97.8501C127.651 246.09 396.93 228.94 371.1 109.48C359.17 54.3201 424.48 -51.2599 367.09 -72.0199C309.96 -92.8699 260.95 -67.9499 220.04 -32.9599C169.61 10.1701 171.471 51.7201 161.071 97.8401V97.8501Z" stroke="#0000AD" stroke-width="0.45" stroke-miterlimit="10"/>
<path d="M157.79 96.7701C132.79 238.13 388.04 234.05 373.11 111.31C366.37 55.8801 420.81 -57.2899 362.44 -73.9599C304.36 -90.7399 252.81 -70.3699 216.7 -32.4999C172.45 13.9201 165.95 50.6701 157.8 96.7701H157.79Z" stroke="#0000B4" stroke-width="0.45" stroke-miterlimit="10"/>
<path d="M154.511 95.7C137.541 229.99 378.901 239.24 375.121 113.16C373.451 57.5 417.141 -63.29 357.781 -75.89C298.761 -88.61 244.641 -72.81 213.351 -32.03C175.251 17.64 160.341 49.57 154.511 95.7Z" stroke="#0000BC" stroke-width="0.45" stroke-miterlimit="10"/>
<path d="M151.23 94.62C141.88 221.69 369.51 244.42 377.12 114.99C380.41 59.09 413.47 -69.32 353.11 -77.84C293.14 -86.49 236.431 -75.3 210.001 -31.58C178.031 21.31 154.63 48.4 151.23 94.61V94.62Z" stroke="#0000C3" stroke-width="0.45" stroke-miterlimit="10"/>
<path d="M147.95 93.55C145.78 213.31 359.871 249.54 379.131 116.83C387.281 60.66 409.8 -75.34 348.46 -79.77C287.55 -84.36 228.21 -77.79 206.66 -31.1C180.77 24.98 148.79 47.23 147.95 93.56V93.55Z" stroke="#0000CB" stroke-width="0.45" stroke-miterlimit="10"/>
<path d="M144.671 92.47C149.231 204.88 350.031 254.53 381.141 118.66C394.071 62.17 406.131 -81.36 343.801 -81.72C281.941 -82.24 219.941 -80.3 203.311 -30.65C183.461 28.61 142.781 46.01 144.671 92.47Z" stroke="#0000D2" stroke-width="0.45" stroke-miterlimit="10"/>
<path d="M141.39 91.4C152.23 196.5 340.03 259.39 383.15 120.5C400.81 63.62 402.46 -87.38 339.15 -83.65C276.34 -80.11 211.64 -82.79 199.97 -30.18C186.12 32.28 136.59 44.83 141.39 91.4Z" stroke="#0000DA" stroke-width="0.45" stroke-miterlimit="10"/>
<path d="M138.111 90.3201C154.821 188.26 329.911 264.07 385.151 122.33C407.491 65 398.791 -93.3999 334.481 -85.5999C270.731 -77.9899 203.301 -85.29 196.621 -29.7299C188.731 35.94 130.151 43.7001 138.111 90.3201Z" stroke="#0000E1" stroke-width="0.45" stroke-miterlimit="10"/>
<path d="M134.83 89.25C157.04 180.26 319.71 268.6 387.16 124.17C414.17 66.33 395.12 -99.42 329.83 -87.54C265.13 -75.87 194.95 -87.75 193.28 -29.27C191.32 39.63 123.47 42.69 134.83 89.24V89.25Z" stroke="#0000E9" stroke-width="0.45" stroke-miterlimit="10"/>
<path d="M131.54 88.18C158.96 172.61 309.48 272.99 389.16 126.02C420.83 67.6 391.44 -105.42 325.16 -89.46C259.52 -73.72 186.56 -90.17 189.92 -28.79C193.87 43.38 116.5 41.87 131.54 88.18Z" stroke="#0000F0" stroke-width="0.45" stroke-miterlimit="10"/>
<path d="M128.26 87.1C160.69 165.39 299.241 277.23 391.161 127.85C427.501 68.8 387.76 -111.45 320.49 -91.41C253.9 -71.61 178.17 -92.6 186.57 -28.34C196.43 47.12 109.27 41.27 128.25 87.1H128.26Z" stroke="#0000F8" stroke-width="0.45" stroke-miterlimit="10"/>
<path d="M124.98 86.03C162.37 158.73 289.02 281.36 393.17 129.69C434.19 69.95 384.09 -117.47 315.84 -93.34C248.31 -69.47 169.79 -94.99 183.23 -27.87C199 50.9 101.82 40.99 124.98 86.03Z" stroke="#0000FF" stroke-width="0.45" stroke-miterlimit="10"/>
</g>
<defs>
<filter id="filter0_d_2001_4" x="0.0799608" y="0.37" width="382.11" height="382.11" filterUnits="userSpaceOnUse" color-interpolation-filters="sRGB">
<feFlood flood-opacity="0" result="BackgroundImageFix"/>
<feColorMatrix in="SourceAlpha" type="matrix" values="0 0 0 0 0 0 0 0 0 0 0 0 0 0 0 0 0 0 127 0" result="hardAlpha"/>
<feOffset dx="14.63" dy="14.63"/>
<feGaussianBlur stdDeviation="14.63"/>
<feColorMatrix type="matrix" values="0 0 0 0 0.345098 0 0 0 0 0.34902 0 0 0 0 0.356863 0 0 0 0.2 0"/>
<feBlend mode="normal" in2="BackgroundImageFix" result="effect1_dropShadow_2001_4"/>
<feBlend mode="normal" in="SourceGraphic" in2="effect1_dropShadow_2001_4" result="shape"/>
</filter>
<linearGradient id="paint0_linear_2001_4" x1="342.98" y1="515.72" x2="8.10002" y2="-166.04" gradientUnits="userSpaceOnUse">
<stop offset="0.14" stop-color="#F6921E"/>
<stop offset="0.41" stop-color="#EE413D"/>
<stop offset="0.86" stop-color="#0000FF"/>
</linearGradient>
</defs>
</svg>
