<svg width="155" height="183" viewBox="0 0 155 183" fill="none" xmlns="http://www.w3.org/2000/svg">
<path d="M77 182.49L0 137.37L0.0198975 45.3799L77.0299 90.4999L77 182.49Z" fill="url(#paint0_linear_2052_74)"/>
<path d="M77.0593 182.49L154.069 137.37L154.039 45.3799L77.0293 90.4999L77.0593 182.49Z" fill="url(#paint1_linear_2052_74)"/>
<path d="M77.0001 90.54L154.02 45.4L77.6201 0L0.0800781 45.42L77.0001 90.54Z" fill="url(#paint2_linear_2052_74)"/>
<path d="M35.7793 66.5003L36.0093 66.3604V66.6303L35.7793 66.5003Z" fill="#363738"/>
<path d="M43.5691 71.1197L43.6791 71.0497V97.5897L35.8491 92.8197L35.7891 66.4297L43.5691 71.1197Z" fill="#D9D5CA"/>
<path d="M112.21 21.1904L119.97 25.7304L43.6798 71.0504L43.5698 71.1204L36.0098 66.6304V66.3604L112.21 21.1904Z" fill="#F1EDE1"/>
<defs>
<linearGradient id="paint0_linear_2052_74" x1="-6.47999" y1="125.18" x2="265.57" y2="57.17" gradientUnits="userSpaceOnUse">
<stop offset="0.14" stop-color="#F6921E"/>
<stop offset="0.41" stop-color="#EE413D"/>
<stop offset="0.93" stop-color="#0000FF"/>
</linearGradient>
<linearGradient id="paint1_linear_2052_74" x1="223.239" y1="195.69" x2="-0.250672" y2="26.0198" gradientUnits="userSpaceOnUse">
<stop offset="0.14" stop-color="#F6921E"/>
<stop offset="0.41" stop-color="#EE413D"/>
<stop offset="0.93" stop-color="#0000FF"/>
</linearGradient>
<linearGradient id="paint2_linear_2052_74" x1="65.7501" y1="4.73" x2="121.83" y2="206.63" gradientUnits="userSpaceOnUse">
<stop offset="0.14" stop-color="#F6921E"/>
<stop offset="0.41" stop-color="#EE413D"/>
<stop offset="0.93" stop-color="#0000FF"/>
</linearGradient>
</defs>
</svg>
