<svg width="142" height="139" viewBox="0 0 142 139" fill="none" xmlns="http://www.w3.org/2000/svg">
<path d="M47.2891 0C38.4491 0 31.2891 7.16 31.2891 16V47.4H43.879V16C43.879 14.12 45.4191 12.59 47.2891 12.59H86.269V0H47.2891Z" fill="url(#paint0_linear_2052_16)"/>
<path d="M47.2891 126.32C45.4091 126.32 43.879 124.78 43.879 122.91V91.5098H31.2891V122.91C31.2891 131.75 38.4491 138.91 47.2891 138.91H86.269V126.32H47.2891Z" fill="url(#paint1_linear_2052_16)"/>
<path d="M125.25 0H86.2695V12.59H125.25C127.13 12.59 128.66 14.13 128.66 16V122.9C128.66 124.78 127.12 126.31 125.25 126.31H86.2695V138.9H125.25C134.09 138.9 141.25 131.74 141.25 122.9V16C141.25 7.16 134.09 0 125.25 0Z" fill="url(#paint2_linear_2052_16)"/>
<path d="M0.0200195 69.4502V75.8002C0.0200195 77.0302 1.02 78.0302 2.25 78.0302H62.4401V95.0102C62.4401 96.8402 64.42 97.9902 66.01 97.0702L88.14 84.2902L110.27 71.5102C111.06 71.0502 111.46 70.2502 111.46 69.4502H0H0.0200195Z" fill="url(#paint3_linear_2052_16)"/>
<path d="M110.289 67.3898L88.1591 54.6098L66.0291 41.8298C64.4391 40.9098 62.459 42.0598 62.459 43.8898V60.8698H2.26904C1.03904 60.8698 0.0390625 61.8698 0.0390625 63.0998V69.4498H111.499C111.499 68.6498 111.099 67.8498 110.309 67.3898H110.289Z" fill="url(#paint4_linear_2052_16)"/>
<defs>
<linearGradient id="paint0_linear_2052_16" x1="-10.4409" y1="7.44" x2="260.069" y2="71.02" gradientUnits="userSpaceOnUse">
<stop offset="0.14" stop-color="#F6921E"/>
<stop offset="0.41" stop-color="#EE413D"/>
<stop offset="0.93" stop-color="#0000FF"/>
</linearGradient>
<linearGradient id="paint1_linear_2052_16" x1="-31.5609" y1="97.2898" x2="238.949" y2="160.87" gradientUnits="userSpaceOnUse">
<stop offset="0.14" stop-color="#F6921E"/>
<stop offset="0.41" stop-color="#EE413D"/>
<stop offset="0.93" stop-color="#0000FF"/>
</linearGradient>
<linearGradient id="paint2_linear_2052_16" x1="-18.1204" y1="40.11" x2="252.389" y2="103.7" gradientUnits="userSpaceOnUse">
<stop offset="0.14" stop-color="#F6921E"/>
<stop offset="0.41" stop-color="#EE413D"/>
<stop offset="0.93" stop-color="#0000FF"/>
</linearGradient>
<linearGradient id="paint3_linear_2052_16" x1="52.92" y1="138.92" x2="58.31" y2="6.36021" gradientUnits="userSpaceOnUse">
<stop offset="0.14" stop-color="#F6921E"/>
<stop offset="0.41" stop-color="#EE413D"/>
<stop offset="0.93" stop-color="#0000FF"/>
</linearGradient>
<linearGradient id="paint4_linear_2052_16" x1="54.559" y1="118.83" x2="59.949" y2="-120.43" gradientUnits="userSpaceOnUse">
<stop offset="0.14" stop-color="#F6921E"/>
<stop offset="0.41" stop-color="#EE413D"/>
<stop offset="0.93" stop-color="#0000FF"/>
</linearGradient>
</defs>
</svg>
