<svg width="138" height="138" viewBox="0 0 138 138" fill="none" xmlns="http://www.w3.org/2000/svg">
<path d="M105.69 137.42H0V35.2998H105.69V137.42Z" fill="url(#paint0_linear_2007_38)"/>
<path d="M77.05 120.46C60.94 120.46 45.8001 114.2 34.4401 102.84C23.0801 91.48 16.8201 76.34 16.8201 60.23C16.8201 44.12 23.0801 28.98 34.4401 17.62C45.8001 6.26 60.94 0 77.05 0C93.16 0 108.3 6.26 119.66 17.62C131.02 28.98 137.28 44.12 137.28 60.23C137.28 76.34 131.02 91.48 119.66 102.84C108.3 114.2 93.16 120.46 77.05 120.46Z" fill="url(#paint1_linear_2007_38)"/>
<defs>
<linearGradient id="paint0_linear_2007_38" x1="31.65" y1="120.27" x2="94.32" y2="20.0098" gradientUnits="userSpaceOnUse">
<stop offset="0.14" stop-color="#F6921E"/>
<stop offset="0.41" stop-color="#EE413D"/>
<stop offset="0.93" stop-color="#0000FF"/>
</linearGradient>
<linearGradient id="paint1_linear_2007_38" x1="151.22" y1="-15.63" x2="-75.55" y2="216.29" gradientUnits="userSpaceOnUse">
<stop offset="0.14" stop-color="#F6921E"/>
<stop offset="0.41" stop-color="#EE413D"/>
<stop offset="0.93" stop-color="#0000FF"/>
</linearGradient>
</defs>
</svg>
