<svg width="181" height="137" viewBox="0 0 181 137" fill="none" xmlns="http://www.w3.org/2000/svg">
<path d="M155.35 43.1301H90.3701V55.4401H148.16V95.7601H90.3701V136.7H155.35C159.93 136.7 163.65 133.12 163.65 128.69V51.1301C163.65 46.7101 159.94 43.1201 155.35 43.1201V43.1301Z" fill="url(#paint0_linear_2097_304)"/>
<path d="M90.4298 49.6499H90.3698V43.1299H25.3898C20.8098 43.1299 17.0898 46.7099 17.0898 51.1399V128.69C17.0898 133.11 20.7998 136.7 25.3898 136.7H90.3698V109.43H90.4298V49.6499ZM32.5798 55.4299H75.1698V136.69H32.5798V55.4299Z" fill="url(#paint1_linear_2097_304)"/>
<path d="M133.73 2.18015C133.73 1.20015 132.94 0.410156 131.96 0.410156H48.9101C47.9301 0.410156 47.1401 1.20015 47.1401 2.18015C47.1401 3.16015 47.9301 3.95016 48.9101 3.95016H131.96C132.94 3.95016 133.73 3.16015 133.73 2.18015Z" fill="url(#paint2_linear_2097_304)"/>
<path d="M66.3502 2.18018H56.7402L54.9102 8.12018H65.0402L66.3502 2.18018Z" fill="url(#paint3_linear_2097_304)"/>
<path d="M75.9501 2.18018H66.35L65.04 8.12018H75.17L75.9501 2.18018Z" fill="url(#paint4_linear_2097_304)"/>
<path d="M133.6 2.18018H124L125.83 8.12018H135.96L133.6 2.18018Z" fill="url(#paint5_linear_2097_304)"/>
<path d="M56.7402 2.18018H47.1403L44.7803 8.12018H54.9102L56.7402 2.18018Z" fill="url(#paint6_linear_2097_304)"/>
<path d="M85.5699 2.18018H75.95L75.1699 8.12018H85.2999L85.5699 2.18018Z" fill="url(#paint7_linear_2097_304)"/>
<path d="M95.1698 2.18018H85.5698L85.2998 8.12018H95.4298L95.1698 2.18018Z" fill="url(#paint8_linear_2097_304)"/>
<path d="M104.79 2.18018H95.1699L95.4299 8.12018H105.57L104.79 2.18018Z" fill="url(#paint9_linear_2097_304)"/>
<path d="M114.39 2.18018H104.79L105.57 8.12018H115.7L114.39 2.18018Z" fill="url(#paint10_linear_2097_304)"/>
<path d="M124 2.18018H114.39L115.7 8.12018H125.83L124 2.18018Z" fill="url(#paint11_linear_2097_304)"/>
<path d="M33.4502 52.3198H27.4302C23.5802 52.3198 20.4502 50.4898 20.4502 48.2298V23.8898C20.4502 21.6298 23.5702 19.7998 27.4302 19.7998H33.4502C37.3002 19.7998 40.4302 21.6298 40.4302 23.8898V48.2298C40.4302 50.4898 37.3102 52.3198 33.4502 52.3198Z" fill="white"/>
<path d="M53.4199 52.3198H47.4C43.55 52.3198 40.4199 50.4898 40.4199 48.2298V23.8898C40.4199 21.6298 43.54 19.7998 47.4 19.7998H53.4199C57.2699 19.7998 60.4 21.6298 60.4 23.8898V48.2298C60.4 50.4898 57.2799 52.3198 53.4199 52.3198Z" fill="url(#paint12_linear_2097_304)"/>
<path d="M173.29 52.3198H167.27C163.42 52.3198 160.29 50.4898 160.29 48.2298V23.8898C160.29 21.6298 163.41 19.7998 167.27 19.7998L168.48 21.7698C172.33 21.7698 170.59 23.2298 180.27 24.4298V48.2298C180.27 50.4898 177.15 52.3198 173.29 52.3198Z" fill="url(#paint13_linear_2097_304)"/>
<path d="M13.4697 52.32H7.44977C3.59977 52.32 0.469727 50.49 0.469727 48.23V24.43C11.7097 21.74 9.60978 22.4 13.4598 22.4V19.79C17.3198 19.79 20.4498 21.62 20.4498 23.88V48.22C20.4498 50.48 17.3297 52.31 13.4697 52.31V52.32Z" fill="url(#paint14_linear_2097_304)"/>
<path d="M73.3999 52.3198H67.3799C63.5299 52.3198 60.3999 50.4898 60.3999 48.2298V23.8898C60.3999 21.6298 63.5199 19.7998 67.3799 19.7998H73.3999C77.2499 19.7998 80.3799 21.6298 80.3799 23.8898V48.2298C80.3799 50.4898 77.2599 52.3198 73.3999 52.3198Z" fill="white"/>
<path d="M93.3799 52.3198H87.3599C83.5099 52.3198 80.3799 50.4898 80.3799 48.2298V23.8898C80.3799 21.6298 83.4999 19.7998 87.3599 19.7998H93.3799C97.2299 19.7998 100.36 21.6298 100.36 23.8898V48.2298C100.36 50.4898 97.2399 52.3198 93.3799 52.3198Z" fill="url(#paint15_linear_2097_304)"/>
<path d="M113.36 52.3198H107.34C103.49 52.3198 100.36 50.4898 100.36 48.2298V23.8898C100.36 21.6298 103.48 19.7998 107.34 19.7998H113.36C117.21 19.7998 120.34 21.6298 120.34 23.8898V48.2298C120.34 50.4898 117.22 52.3198 113.36 52.3198Z" fill="white"/>
<path d="M133.33 52.3198H127.31C123.46 52.3198 120.33 50.4898 120.33 48.2298V23.8898C120.33 21.6298 123.45 19.7998 127.31 19.7998H133.33C137.18 19.7998 140.31 21.6298 140.31 23.8898V48.2298C140.31 50.4898 137.19 52.3198 133.33 52.3198Z" fill="url(#paint16_linear_2097_304)"/>
<path d="M153.31 52.3198H147.29C143.44 52.3198 140.31 50.4898 140.31 48.2298V23.8898C140.31 21.6298 143.43 19.7998 147.29 19.7998H153.31C157.16 19.7998 160.29 21.6298 160.29 23.8898V48.2298C160.29 50.4898 157.17 52.3198 153.31 52.3198Z" fill="white"/>
<path d="M54.9102 8.12012L20.4502 24.4301H40.4202L65.0402 8.12012H54.9102Z" fill="white"/>
<path d="M65.0399 8.12012L40.4199 24.4301H60.4L75.1699 8.12012H65.0399Z" fill="url(#paint17_linear_2097_304)"/>
<path d="M180.27 24.4301L135.96 8.12012H125.83L160.29 24.4301H180.27Z" fill="url(#paint18_linear_2097_304)"/>
<path d="M44.7798 8.12012L0.469727 24.4301H20.4498L54.9097 8.12012H44.7798Z" fill="url(#paint19_linear_2097_304)"/>
<path d="M75.1699 8.12012L60.3999 24.4301H80.3799L85.2999 8.12012H75.1699Z" fill="white"/>
<path d="M85.2999 8.12012L80.3799 24.4301H100.36L95.4299 8.12012H85.2999Z" fill="url(#paint20_linear_2097_304)"/>
<path d="M95.4302 8.12012L100.36 24.4301H120.33L105.57 8.12012H95.4302Z" fill="white"/>
<path d="M105.57 8.12012L120.33 24.4301H140.31L115.7 8.12012H105.57Z" fill="url(#paint21_linear_2097_304)"/>
<path d="M160.29 24.4301L125.83 8.12012H115.7L140.31 24.4301H160.29Z" fill="white"/>
<defs>
<linearGradient id="paint0_linear_2097_304" x1="207.95" y1="15.3801" x2="29.9401" y2="174.34" gradientUnits="userSpaceOnUse">
<stop offset="0.14" stop-color="#F6921E"/>
<stop offset="0.41" stop-color="#EE413D"/>
<stop offset="0.93" stop-color="#0000FF"/>
</linearGradient>
<linearGradient id="paint1_linear_2097_304" x1="-20.2501" y1="67.5299" x2="220.75" y2="137.12" gradientUnits="userSpaceOnUse">
<stop offset="0.14" stop-color="#F6921E"/>
<stop offset="0.41" stop-color="#EE413D"/>
<stop offset="0.93" stop-color="#0000FF"/>
</linearGradient>
<linearGradient id="paint2_linear_2097_304" x1="149.25" y1="-50.35" x2="-28.7503" y2="108.62" gradientUnits="userSpaceOnUse">
<stop offset="0.14" stop-color="#F6921E"/>
<stop offset="0.41" stop-color="#EE413D"/>
<stop offset="0.93" stop-color="#0000FF"/>
</linearGradient>
<linearGradient id="paint3_linear_2097_304" x1="2.60014" y1="-11.5998" x2="243.6" y2="57.9902" gradientUnits="userSpaceOnUse">
<stop offset="0.14" stop-color="#F6921E"/>
<stop offset="0.41" stop-color="#EE413D"/>
<stop offset="0.93" stop-color="#0000FF"/>
</linearGradient>
<linearGradient id="paint4_linear_2097_304" x1="3.34984" y1="-14.2298" x2="244.36" y2="55.3605" gradientUnits="userSpaceOnUse">
<stop offset="0.14" stop-color="#F6921E"/>
<stop offset="0.41" stop-color="#EE413D"/>
<stop offset="0.93" stop-color="#0000FF"/>
</linearGradient>
<linearGradient id="paint5_linear_2097_304" x1="168.27" y1="-29.0498" x2="-9.73003" y2="129.92" gradientUnits="userSpaceOnUse">
<stop offset="0.14" stop-color="#F6921E"/>
<stop offset="0.41" stop-color="#EE413D"/>
<stop offset="0.93" stop-color="#0000FF"/>
</linearGradient>
<linearGradient id="paint6_linear_2097_304" x1="1.84042" y1="-8.96983" x2="242.84" y2="60.6197" gradientUnits="userSpaceOnUse">
<stop offset="0.14" stop-color="#F6921E"/>
<stop offset="0.41" stop-color="#EE413D"/>
<stop offset="0.93" stop-color="#0000FF"/>
</linearGradient>
<linearGradient id="paint7_linear_2097_304" x1="4.10976" y1="-16.8698" x2="245.12" y2="52.7304" gradientUnits="userSpaceOnUse">
<stop offset="0.14" stop-color="#F6921E"/>
<stop offset="0.41" stop-color="#EE413D"/>
<stop offset="0.93" stop-color="#0000FF"/>
</linearGradient>
<linearGradient id="paint8_linear_2097_304" x1="150.76" y1="-48.6598" x2="-27.2502" y2="110.3" gradientUnits="userSpaceOnUse">
<stop offset="0.14" stop-color="#F6921E"/>
<stop offset="0.41" stop-color="#EE413D"/>
<stop offset="0.93" stop-color="#0000FF"/>
</linearGradient>
<linearGradient id="paint9_linear_2097_304" x1="155.14" y1="-43.7598" x2="-22.87" y2="115.201" gradientUnits="userSpaceOnUse">
<stop offset="0.14" stop-color="#F6921E"/>
<stop offset="0.41" stop-color="#EE413D"/>
<stop offset="0.93" stop-color="#0000FF"/>
</linearGradient>
<linearGradient id="paint10_linear_2097_304" x1="159.52" y1="-38.8498" x2="-18.4899" y2="120.111" gradientUnits="userSpaceOnUse">
<stop offset="0.14" stop-color="#F6921E"/>
<stop offset="0.41" stop-color="#EE413D"/>
<stop offset="0.93" stop-color="#0000FF"/>
</linearGradient>
<linearGradient id="paint11_linear_2097_304" x1="163.9" y1="-33.9498" x2="-14.1099" y2="125.01" gradientUnits="userSpaceOnUse">
<stop offset="0.14" stop-color="#F6921E"/>
<stop offset="0.41" stop-color="#EE413D"/>
<stop offset="0.93" stop-color="#0000FF"/>
</linearGradient>
<linearGradient id="paint12_linear_2097_304" x1="-6.43018" y1="19.6498" x2="234.58" y2="89.24" gradientUnits="userSpaceOnUse">
<stop offset="0.14" stop-color="#F6921E"/>
<stop offset="0.41" stop-color="#EE413D"/>
<stop offset="0.93" stop-color="#0000FF"/>
</linearGradient>
<linearGradient id="paint13_linear_2097_304" x1="201.51" y1="8.1698" x2="23.5" y2="167.13" gradientUnits="userSpaceOnUse">
<stop offset="0.14" stop-color="#F6921E"/>
<stop offset="0.41" stop-color="#EE413D"/>
<stop offset="0.93" stop-color="#0000FF"/>
</linearGradient>
<linearGradient id="paint14_linear_2097_304" x1="-9.50029" y1="30.3" x2="231.5" y2="99.8903" gradientUnits="userSpaceOnUse">
<stop offset="0.14" stop-color="#F6921E"/>
<stop offset="0.41" stop-color="#EE413D"/>
<stop offset="0.93" stop-color="#0000FF"/>
</linearGradient>
<linearGradient id="paint15_linear_2097_304" x1="166.06" y1="-31.5302" x2="-11.9503" y2="127.43" gradientUnits="userSpaceOnUse">
<stop offset="0.14" stop-color="#F6921E"/>
<stop offset="0.41" stop-color="#EE413D"/>
<stop offset="0.93" stop-color="#0000FF"/>
</linearGradient>
<linearGradient id="paint16_linear_2097_304" x1="183.78" y1="-11.6802" x2="5.77994" y2="147.28" gradientUnits="userSpaceOnUse">
<stop offset="0.14" stop-color="#F6921E"/>
<stop offset="0.41" stop-color="#EE413D"/>
<stop offset="0.93" stop-color="#0000FF"/>
</linearGradient>
<linearGradient id="paint17_linear_2097_304" x1="-0.590076" y1="-0.579881" x2="240.42" y2="69.0101" gradientUnits="userSpaceOnUse">
<stop offset="0.14" stop-color="#F6921E"/>
<stop offset="0.41" stop-color="#EE413D"/>
<stop offset="0.93" stop-color="#0000FF"/>
</linearGradient>
<linearGradient id="paint18_linear_2097_304" x1="184.04" y1="-11.3999" x2="6.0301" y2="147.57" gradientUnits="userSpaceOnUse">
<stop offset="0.14" stop-color="#F6921E"/>
<stop offset="0.41" stop-color="#EE413D"/>
<stop offset="0.93" stop-color="#0000FF"/>
</linearGradient>
<linearGradient id="paint19_linear_2097_304" x1="-2.90027" y1="7.44012" x2="238.1" y2="77.0301" gradientUnits="userSpaceOnUse">
<stop offset="0.14" stop-color="#F6921E"/>
<stop offset="0.41" stop-color="#EE413D"/>
<stop offset="0.93" stop-color="#0000FF"/>
</linearGradient>
<linearGradient id="paint20_linear_2097_304" x1="157.32" y1="-41.3099" x2="-20.6902" y2="117.65" gradientUnits="userSpaceOnUse">
<stop offset="0.14" stop-color="#F6921E"/>
<stop offset="0.41" stop-color="#EE413D"/>
<stop offset="0.93" stop-color="#0000FF"/>
</linearGradient>
<linearGradient id="paint21_linear_2097_304" x1="170.68" y1="-26.3499" x2="-7.33017" y2="132.61" gradientUnits="userSpaceOnUse">
<stop offset="0.14" stop-color="#F6921E"/>
<stop offset="0.41" stop-color="#EE413D"/>
<stop offset="0.93" stop-color="#0000FF"/>
</linearGradient>
</defs>
</svg>
