<svg width="176" height="138" viewBox="0 0 176 138" fill="none" xmlns="http://www.w3.org/2000/svg">
<path d="M168.27 0H84.43V108.01H127.91L116.98 132.72C115.42 136.24 119.7 139.45 122.64 136.96L156.8 108.01H168.27C172.18 108.01 175.35 104.84 175.35 100.93V7.07996C175.35 3.16996 172.18 0 168.27 0Z" fill="url(#paint0_linear_2183_2)"/>
<path d="M7.08002 0C3.17002 0 0 3.16996 0 7.07996V100.93C0 104.84 3.17002 108.01 7.08002 108.01H84.43V0H7.08002Z" fill="url(#paint1_linear_2183_2)"/>
<path d="M27.55 49.8799C25.76 49.8799 24.3 51.6099 24.3 53.7599C24.3 55.9099 25.75 57.6398 27.55 57.6398H84.94V49.8898H27.55V49.8799Z" fill="white"/>
<path d="M147.81 49.8801H84.94V57.6301H147.81C149.6 57.6301 151.06 55.8901 151.06 53.7501C151.06 51.6101 149.61 49.8701 147.81 49.8701V49.8801Z" fill="white"/>
<path d="M27.55 22.54C25.76 22.54 24.3 24.27 24.3 26.42C24.3 28.57 25.75 30.3 27.55 30.3H84.94V22.55H27.55V22.54Z" fill="white"/>
<path d="M147.81 22.5403H84.94V30.2903H147.81C149.6 30.2903 151.06 28.5503 151.06 26.4103C151.06 24.2703 149.61 22.5303 147.81 22.5303V22.5403Z" fill="white"/>
<path d="M27.55 76.2305C25.76 76.2305 24.3 77.9705 24.3 80.1105C24.3 82.2505 25.75 83.9905 27.55 83.9905H84.94V76.2405H27.55V76.2305Z" fill="white"/>
<path d="M147.81 76.2297H84.94V83.9797H147.81C149.6 83.9797 151.06 82.2397 151.06 80.0997C151.06 77.9597 149.61 76.2197 147.81 76.2197V76.2297Z" fill="white"/>
<defs>
<linearGradient id="paint0_linear_2183_2" x1="228.36" y1="40.45" x2="17.14" y2="88.2601" gradientUnits="userSpaceOnUse">
<stop offset="0.14" stop-color="#F6921E"/>
<stop offset="0.41" stop-color="#EE413D"/>
<stop offset="0.93" stop-color="#0000FF"/>
</linearGradient>
<linearGradient id="paint1_linear_2183_2" x1="-52.34" y1="20.11" x2="308.95" y2="145.73" gradientUnits="userSpaceOnUse">
<stop offset="0.14" stop-color="#F6921E"/>
<stop offset="0.41" stop-color="#EE413D"/>
<stop offset="0.93" stop-color="#0000FF"/>
</linearGradient>
</defs>
</svg>
