<svg width="326" height="325" viewBox="0 0 326 325" fill="none" xmlns="http://www.w3.org/2000/svg">
<path d="M10.5302 324.29L316.12 324.29C321.091 324.29 325.12 320.26 325.12 315.29L325.12 9.69992C325.12 4.72937 321.091 0.699921 316.12 0.699921L10.5302 0.699921C5.5596 0.699921 1.53015 4.72937 1.53015 9.69992L1.53015 315.29C1.53015 320.26 5.5596 324.29 10.5302 324.29Z" fill="url(#paint0_linear_2002_69)"/>
<mask id="mask0_2002_69" style="mask-type:luminance" maskUnits="userSpaceOnUse" x="0" y="0" width="325" height="324">
<path d="M316.023 0.699951H9.80709C4.84922 0.699951 0.830078 4.7083 0.830078 9.65287V315.047C0.830078 319.992 4.84922 324 9.80709 324H316.023C320.981 324 325 319.992 325 315.047V9.65287C325 4.7083 320.981 0.699951 316.023 0.699951Z" fill="white"/>
</mask>
<g mask="url(#mask0_2002_69)">
<path opacity="0.3" d="M311.455 1.17743C340.151 -132.221 114.28 -30.2175 192.031 27.1907C230.971 55.9395 152.522 113.228 195.073 136.774C237.614 160.311 251.389 121.952 295.466 101.211C350.525 75.3077 304.044 35.6561 311.455 1.17743Z" stroke="#000080" stroke-width="0.45" stroke-miterlimit="10"/>
<path opacity="0.32" d="M313.849 1.47592C336.84 -126.969 119.297 -33.9279 190.355 26.2158C225.744 56.1783 156.033 116.75 198.544 137.471C241.025 158.202 257.363 122.519 297.64 100.485C348.031 73.149 307.774 35.4274 313.849 1.47592Z" stroke="#000080" stroke-width="0.45" stroke-miterlimit="10"/>
<path opacity="0.34" d="M316.252 1.78419C333.678 -121.567 124.284 -37.728 188.679 25.2608C220.498 56.3771 159.554 120.291 202.025 138.187C244.446 156.113 263.258 122.967 299.824 99.769C345.448 70.8311 311.524 35.2482 316.252 1.78419Z" stroke="#000080" stroke-width="0.45" stroke-miterlimit="10"/>
<path opacity="0.35" d="M318.656 2.08271C330.685 -116.046 129.221 -41.6573 187.013 24.286C215.251 56.5065 163.075 123.803 205.506 138.883C247.867 154.004 269.183 123.474 301.999 99.0429C342.884 68.6029 315.285 35.119 318.646 2.08271H318.656Z" stroke="#000080" stroke-width="0.45" stroke-miterlimit="10"/>
<path opacity="0.37" d="M321.05 2.39107C327.873 -110.396 134.139 -45.706 185.338 23.321C210.004 56.5762 166.586 127.334 208.987 139.59C251.289 151.905 275.108 124.002 304.183 98.3266C340.321 66.4045 319.075 35.0295 321.05 2.39107Z" stroke="#000080" stroke-width="0.45" stroke-miterlimit="10"/>
<path opacity="0.39" d="M323.454 2.68948C325.289 -104.626 139.086 -49.904 183.672 22.3561C204.778 56.5761 170.107 130.866 212.468 140.286C254.71 149.786 281.023 124.539 306.368 97.5905C337.757 64.216 322.905 34.9697 323.454 2.67953V2.68948Z" stroke="#000080" stroke-width="0.45" stroke-miterlimit="10"/>
<path opacity="0.41" d="M325.858 2.99783C322.965 -98.7571 144.103 -54.2412 181.996 21.3911C199.591 56.5065 173.618 134.387 215.949 140.992C258.121 147.687 286.937 125.116 308.542 96.8742C335.184 62.0672 326.765 34.9697 325.858 2.98788V2.99783Z" stroke="#000080" stroke-width="0.45" stroke-miterlimit="10"/>
<path opacity="0.42" d="M328.262 3.29625C320.911 -92.7985 149.23 -58.6978 180.33 20.4162C194.464 56.3672 177.139 137.908 219.43 141.689C261.542 145.578 292.862 125.693 310.727 96.148C332.62 59.9384 330.685 34.9995 328.262 3.2863V3.29625Z" stroke="#000080" stroke-width="0.45" stroke-miterlimit="10"/>
<path opacity="0.44" d="M330.655 3.60467C319.135 -86.7801 154.487 -63.2339 178.655 19.4613C189.397 56.2081 180.65 141.45 222.911 142.405C264.964 143.489 298.797 126.319 312.911 95.4318C330.087 57.8395 334.675 35.0593 330.665 3.59472L330.655 3.60467Z" stroke="#000080" stroke-width="0.45" stroke-miterlimit="10"/>
<path opacity="0.46" d="M333.059 3.9031C317.679 -80.7518 159.913 -67.8397 176.979 18.4864C184.4 56.0091 184.161 144.961 226.383 143.101C268.375 141.38 304.752 126.946 315.075 94.7057C327.563 55.7604 338.725 35.1289 333.049 3.89316L333.059 3.9031Z" stroke="#000080" stroke-width="0.45" stroke-miterlimit="10"/>
<path opacity="0.48" d="M335.463 4.21148C316.522 -74.7235 165.518 -72.4355 175.313 17.5314C179.483 55.8301 187.682 148.503 229.874 143.817C271.806 139.281 310.747 127.593 317.27 93.9994C325.1 53.7013 342.904 35.2184 335.463 4.21148Z" stroke="#000080" stroke-width="0.45" stroke-miterlimit="10"/>
<path opacity="0.49" d="M337.857 4.5099C315.654 -68.7648 171.274 -77.0015 173.638 16.5566C174.625 55.641 191.193 152.024 233.345 144.514C275.217 137.172 316.751 128.219 319.444 93.2732C322.646 51.6222 347.173 35.2582 337.857 4.51985V4.5099Z" stroke="#000080" stroke-width="0.45" stroke-miterlimit="10"/>
<path opacity="0.51" d="M340.261 4.81832C315.075 -62.9155 177.178 -81.4879 171.972 15.5917C169.827 55.5018 194.714 155.546 236.836 145.22C278.649 135.073 322.806 128.836 321.629 92.547C320.232 49.5332 351.582 35.2483 340.261 4.81832Z" stroke="#000080" stroke-width="0.45" stroke-miterlimit="10"/>
<path opacity="0.53" d="M342.665 5.11672C314.736 -57.2354 183.203 -85.9047 170.296 14.6267C165.069 55.3924 198.225 159.077 240.317 145.926C282.06 132.974 328.87 129.443 323.813 91.8308C317.848 47.4243 356.13 35.1687 342.665 5.12667V5.11672Z" stroke="#000080" stroke-width="0.45" stroke-miterlimit="10"/>
<path opacity="0.55" d="M345.069 5.4251C314.577 -51.7642 189.307 -90.2021 168.63 13.6618C160.332 55.3327 201.746 162.609 243.798 146.633C285.481 130.875 334.935 130.03 325.997 91.1145C315.464 45.2954 360.818 34.9697 345.069 5.43504V5.4251Z" stroke="#000080" stroke-width="0.45" stroke-miterlimit="10"/>
<path opacity="0.56" d="M347.462 5.72354C314.537 -46.5615 195.462 -94.4099 166.955 12.6869C155.614 55.3028 205.257 166.12 247.279 147.329C288.902 128.757 341.019 130.597 328.172 90.3784C313.08 43.1269 365.646 34.5917 347.462 5.72354Z" stroke="#000080" stroke-width="0.45" stroke-miterlimit="10"/>
<path opacity="0.58" d="M349.866 6.0319C314.547 -41.6772 201.646 -98.5184 165.289 11.7319C150.906 55.3327 208.778 169.662 250.76 148.045C292.324 126.668 347.093 131.154 330.356 89.6721C310.707 40.9682 370.613 34.0446 349.866 6.04185V6.0319Z" stroke="#000080" stroke-width="0.45" stroke-miterlimit="10"/>
<path opacity="0.6" d="M352.27 6.33038C314.507 -37.1311 207.85 -102.547 163.613 10.7571C146.188 55.3825 212.289 173.183 254.241 148.742C295.745 124.559 353.168 131.691 332.541 88.946C308.333 38.7798 375.67 33.2588 352.28 6.34033L352.27 6.33038Z" stroke="#000080" stroke-width="0.45" stroke-miterlimit="10"/>
<path d="M175.363 -17.8425C-29.5522 -30.6054 198.943 222.185 255.408 120.301C283.686 69.2794 394.971 153.556 414.371 99.0727C433.771 44.5892 372.897 34.3431 327.085 -14.8582C269.861 -76.3051 228.318 -14.5399 175.373 -17.8425H175.363Z" stroke="#000080" stroke-width="0.45" stroke-miterlimit="10"/>
<g style="mix-blend-mode:hard-light" opacity="0.97">
<path d="M174.964 -20.7473C-20.9442 -27.5217 191.681 216.913 254.59 122.45C285.84 75.5265 398.891 148.801 414.182 94.8151C429.502 40.8588 371.641 27.121 325.269 -17.3353C267.607 -73.0025 226.622 -18.9567 174.974 -20.7473H174.964Z" stroke="#000080" stroke-width="0.45" stroke-miterlimit="10"/>
</g>
<g style="mix-blend-mode:hard-light" opacity="0.94">
<path d="M174.565 -23.662C-12.2165 -24.607 184.25 211.73 253.762 124.598C287.905 81.8035 402.801 144.046 413.972 90.5574C425.213 37.1184 370.214 20.0581 323.434 -19.8222C265.153 -69.501 224.946 -23.4033 174.555 -23.662H174.565Z" stroke="#000080" stroke-width="0.45" stroke-miterlimit="10"/>
</g>
<g style="mix-blend-mode:hard-light" opacity="0.91">
<path d="M174.156 -26.5667C-3.39913 -21.8714 176.61 206.637 252.935 126.747C289.86 88.1004 406.701 139.291 413.773 86.2999C420.934 33.3881 368.898 12.9257 321.609 -22.2991C262.829 -66.0789 223.32 -27.8599 174.146 -26.5667H174.156Z" stroke="#000080" stroke-width="0.45" stroke-miterlimit="10"/>
</g>
<g style="mix-blend-mode:hard-light" opacity="0.88">
<path d="M173.757 -29.4813C5.53802 -19.3745 168.76 201.534 252.117 128.886C291.705 94.3873 410.621 134.526 413.583 82.0224C416.665 29.6378 367.601 5.7733 319.793 -24.796C260.535 -62.6867 221.744 -32.3761 173.757 -29.4913V-29.4813Z" stroke="#000080" stroke-width="0.45" stroke-miterlimit="10"/>
</g>
<g style="mix-blend-mode:hard-light" opacity="0.85">
<path d="M173.358 -32.3861C14.5649 -17.1164 160.681 196.391 251.299 131.045C293.451 100.644 414.541 129.781 413.384 77.7747C412.386 25.9074 366.314 -1.35924 317.978 -27.263C258.261 -59.2648 220.208 -36.8924 173.358 -32.3861Z" stroke="#000080" stroke-width="0.45" stroke-miterlimit="10"/>
</g>
<g style="mix-blend-mode:hard-light" opacity="0.82">
<path d="M172.959 -35.3008C23.6816 -15.1468 152.412 191.119 250.481 133.183C295.097 106.822 418.461 125.016 413.194 73.5071C408.127 22.167 365.057 -8.51164 316.163 -29.75C256.017 -55.8726 218.712 -41.4783 172.959 -35.3008Z" stroke="#000080" stroke-width="0.45" stroke-miterlimit="10"/>
</g>
<g style="mix-blend-mode:hard-light" opacity="0.79">
<path d="M172.55 -38.2154C32.8481 -13.4954 143.983 185.677 249.653 135.322C296.663 112.92 422.361 120.251 412.995 69.2395C403.848 18.4267 363.821 -15.6839 314.337 -32.2468C253.782 -52.5103 217.246 -46.1338 172.56 -38.2254L172.55 -38.2154Z" stroke="#000080" stroke-width="0.45" stroke-miterlimit="10"/>
</g>
<g style="mix-blend-mode:hard-light" opacity="0.76">
<path d="M172.151 -41.1202C42.0645 -12.1823 135.455 180.037 248.835 137.481C298.199 118.948 426.281 115.506 412.805 64.9919C399.579 14.7063 362.594 -22.8562 312.522 -34.7139C251.588 -49.138 215.82 -50.8291 172.161 -41.1102L172.151 -41.1202Z" stroke="#000080" stroke-width="0.45" stroke-miterlimit="10"/>
</g>
<g style="mix-blend-mode:hard-light" opacity="0.74">
<path d="M171.752 -44.0348C51.2908 -11.2373 126.887 174.188 248.007 139.619C299.695 124.867 430.191 110.741 412.596 60.7144C395.29 10.9461 361.367 -30.0882 310.687 -37.2107C249.374 -45.8354 214.383 -55.6438 171.742 -44.0348H171.752Z" stroke="#000080" stroke-width="0.45" stroke-miterlimit="10"/>
</g>
<g style="mix-blend-mode:hard-light" opacity="0.71">
<path d="M171.343 -46.9396C60.4673 -10.6703 118.309 168.14 247.179 141.778C301.201 130.726 434.091 105.996 412.396 56.4667C391.011 7.22562 360.16 -37.3102 308.861 -39.6777C247.179 -42.5327 212.957 -60.548 171.334 -46.9296L171.343 -46.9396Z" stroke="#000080" stroke-width="0.45" stroke-miterlimit="10"/>
</g>
<g style="mix-blend-mode:hard-light" opacity="0.68">
<path d="M170.944 -49.8542C69.564 -10.5011 109.791 161.892 246.361 143.917C302.747 136.496 438.011 101.231 412.207 52.1992C386.742 3.48533 358.943 -44.5819 307.056 -42.1746C244.995 -39.2898 211.521 -65.6014 170.954 -49.8542H170.944Z" stroke="#000080" stroke-width="0.45" stroke-miterlimit="10"/>
</g>
<g style="mix-blend-mode:hard-light" opacity="0.65">
<path d="M170.545 -52.7589C78.5211 -10.71 101.343 155.516 245.543 146.066C304.313 142.216 441.931 96.4764 412.007 47.9416C382.463 -0.255004 357.716 -51.8636 305.231 -44.6516C242.78 -36.0667 210.004 -70.7941 170.545 -52.7589Z" stroke="#000080" stroke-width="0.45" stroke-miterlimit="10"/>
</g>
<g style="mix-blend-mode:hard-light" opacity="0.62">
<path d="M170.137 -55.6736C87.2388 -11.2671 93.1337 155.406 244.716 148.214C305.849 145.31 445.841 91.7214 411.808 43.6839C378.194 -3.9854 356.469 -59.1752 303.405 -47.1286C240.546 -32.8536 208.379 -76.1559 170.137 -55.6637V-55.6736Z" stroke="#000080" stroke-width="0.45" stroke-miterlimit="10"/>
</g>
<g style="mix-blend-mode:hard-light" opacity="0.59">
<path d="M169.738 -58.5783C95.6772 -12.1027 84.6853 142.405 243.898 150.363C307.565 153.546 449.751 86.9664 411.618 39.4164C373.925 -7.72573 355.203 -66.5066 301.59 -49.6155C238.302 -29.6803 206.613 -81.7167 169.738 -58.5783Z" stroke="#000080" stroke-width="0.45" stroke-miterlimit="10"/>
</g>
<g style="mix-blend-mode:hard-light" opacity="0.56">
<path d="M169.339 -61.493C103.727 -13.1473 76.5063 135.73 243.07 152.502C309.25 159.167 453.661 82.2014 411.419 35.1488C369.646 -11.476 353.916 -73.8481 299.765 -52.1024C236.018 -26.507 204.608 -87.4764 169.339 -61.493Z" stroke="#000080" stroke-width="0.45" stroke-miterlimit="10"/>
</g>
<g style="mix-blend-mode:hard-light" opacity="0.53">
<path d="M168.93 -64.3977C111.307 -14.2713 68.3971 129.025 242.242 154.66C310.966 164.787 457.57 77.4564 411.209 30.9012C365.357 -15.1964 352.549 -81.279 297.929 -54.5794C233.634 -23.453 202.284 -93.4251 168.92 -64.3977H168.93Z" stroke="#000080" stroke-width="0.45" stroke-miterlimit="10"/>
</g>
<g style="mix-blend-mode:hard-light" opacity="0.5">
<path d="M168.531 -67.3124C118.359 -15.3258 60.3776 122.291 241.424 156.799C312.731 170.388 461.481 72.6914 411.02 26.6336C361.088 -18.9368 351.283 -88.511 296.124 -57.0663C231.39 -20.1504 199.621 -99.5231 168.531 -67.3124Z" stroke="#000080" stroke-width="0.45" stroke-miterlimit="10"/>
</g>
<path d="M167.164 89.5329C77.8129 273.336 433.552 186.612 345.019 83.7234C300.682 32.2043 432.245 -29.2923 380.917 -74.2857C329.588 -119.279 296.124 -67.8894 226.383 -49.7547C139.286 -27.1138 190.255 42.0326 167.174 89.5329H167.164Z" stroke="#000080" stroke-width="0.45" stroke-miterlimit="10"/>
<path d="M163.893 88.4585C84.3462 266.771 425.114 190.611 347.024 85.5538C308.143 33.2488 428.585 -35.2709 376.269 -76.2156C323.993 -117.17 287.895 -70.2868 223.041 -49.2971C141.999 -23.3834 184.889 41.396 163.893 88.4685V88.4585Z" stroke="#000087" stroke-width="0.45" stroke-miterlimit="10"/>
<path d="M160.621 87.3941C90.7398 259.997 416.735 194.789 349.018 87.3841C315.604 34.3729 424.914 -41.2594 371.611 -78.1355C318.397 -115.041 279.736 -72.4653 219.69 -48.8296C144.801 -19.3645 179.513 40.7096 160.611 87.404L160.621 87.3941Z" stroke="#00008F" stroke-width="0.45" stroke-miterlimit="10"/>
<path d="M157.349 86.3198C96.9639 252.993 408.367 199.166 351.023 89.2046C323.065 35.5766 421.254 -47.2578 366.973 -80.0753C312.811 -112.942 271.587 -74.7731 216.368 -48.3819C147.604 -15.5147 174.156 39.9337 157.349 86.3198Z" stroke="#000096" stroke-width="0.45" stroke-miterlimit="10"/>
<path d="M154.078 85.2553C102.978 245.751 399.958 203.762 353.028 91.0349C330.496 36.8996 417.603 -53.2365 362.324 -82.0052C307.225 -110.824 263.438 -77.101 213.027 -47.9244C150.407 -11.685 168.77 39.098 154.078 85.2553Z" stroke="#00009E" stroke-width="0.45" stroke-miterlimit="10"/>
<path d="M150.796 84.181C108.734 238.281 391.44 208.547 355.013 92.8554C337.837 38.3122 413.922 -59.2349 357.666 -83.935C301.62 -108.715 255.289 -79.4486 209.675 -47.4668C153.22 -7.87495 163.344 38.1928 150.786 84.181H150.796Z" stroke="#0000A5" stroke-width="0.45" stroke-miterlimit="10"/>
<path d="M147.524 83.1166C114.19 230.581 382.782 213.521 357.018 94.6858C345.118 39.8143 410.262 -65.2135 353.018 -85.8649C296.034 -106.606 247.149 -81.8162 206.344 -47.0092C156.043 -4.10477 157.898 37.2279 147.524 83.1067V83.1166Z" stroke="#0000AD" stroke-width="0.45" stroke-miterlimit="10"/>
<path d="M144.253 82.0422C119.317 222.663 373.915 218.604 359.023 96.5062C352.3 41.3661 406.601 -71.2119 348.38 -87.7947C290.448 -104.487 239.03 -84.2235 203.012 -46.5516C158.875 -0.374405 152.392 36.1834 144.263 82.0422H144.253Z" stroke="#0000B4" stroke-width="0.45" stroke-miterlimit="10"/>
<path d="M140.981 80.9779C124.055 214.565 364.798 223.767 361.028 98.3465C359.362 42.9777 402.94 -77.1805 343.732 -89.7146C284.863 -102.368 230.881 -86.6507 199.671 -46.084C161.668 3.32616 146.796 35.0892 140.981 80.9779Z" stroke="#0000BC" stroke-width="0.45" stroke-miterlimit="10"/>
<path d="M137.71 79.9035C128.383 206.309 355.432 228.92 363.023 100.167C366.304 44.5593 399.28 -83.179 339.074 -91.6544C279.257 -100.259 222.692 -89.1277 196.329 -45.6364C164.441 6.97696 141.101 33.9253 137.71 79.8935V79.9035Z" stroke="#0000C3" stroke-width="0.45" stroke-miterlimit="10"/>
<path d="M134.438 78.8391C132.273 197.973 345.817 234.013 365.028 101.997C373.157 46.1211 395.619 -89.1675 334.436 -93.5743C273.681 -98.1403 214.493 -91.6047 192.998 -45.1589C167.174 10.6278 135.276 32.7614 134.438 78.8491V78.8391Z" stroke="#0000CB" stroke-width="0.45" stroke-miterlimit="10"/>
<path d="M131.166 77.7648C135.715 189.587 336.002 238.977 367.032 103.818C379.929 47.6233 391.958 -95.156 329.788 -95.5141C268.086 -96.0314 206.244 -94.1015 189.657 -44.7112C169.857 14.2388 129.281 31.5478 131.166 77.7648Z" stroke="#0000D2" stroke-width="0.45" stroke-miterlimit="10"/>
<path d="M127.895 76.7003C138.707 181.251 326.027 243.812 369.037 105.648C386.652 49.0656 388.298 -101.145 325.15 -97.4341C262.5 -93.9126 197.965 -96.5786 186.325 -44.2437C172.51 17.8896 123.107 30.3739 127.895 76.7003Z" stroke="#0000DA" stroke-width="0.45" stroke-miterlimit="10"/>
<path d="M124.623 75.626C141.29 173.054 315.933 248.467 371.032 107.469C393.315 50.4384 384.637 -107.133 320.492 -99.3739C256.904 -91.8037 189.647 -99.0655 182.984 -43.7961C175.114 21.5304 116.683 29.2498 124.623 75.626Z" stroke="#0000E1" stroke-width="0.45" stroke-miterlimit="10"/>
<path d="M121.351 74.5616C143.505 165.096 305.759 252.973 373.037 109.299C399.978 51.7615 380.977 -113.122 315.853 -101.304C251.319 -89.6947 181.318 -101.513 179.652 -43.3385C177.697 25.2011 110.02 28.2451 121.351 74.5517V74.5616Z" stroke="#0000E9" stroke-width="0.45" stroke-miterlimit="10"/>
<path d="M118.07 73.4972C145.42 157.486 295.555 257.341 375.032 111.139C406.621 53.0249 377.306 -119.09 311.195 -103.214C245.723 -87.556 172.949 -103.92 176.301 -42.861C180.241 28.9315 103.068 27.4294 118.07 73.4972Z" stroke="#0000F0" stroke-width="0.45" stroke-miterlimit="10"/>
<path d="M114.798 72.4228C147.145 150.303 285.342 261.558 377.027 112.96C413.274 54.2186 373.635 -125.089 306.537 -105.153C240.117 -85.457 164.581 -106.337 172.959 -42.4133C182.794 32.6519 95.8567 26.8326 114.788 72.4228H114.798Z" stroke="#0000F8" stroke-width="0.45" stroke-miterlimit="10"/>
<path d="M111.527 71.3584C148.821 143.678 275.148 265.667 379.032 114.79C419.947 55.3625 369.975 -131.077 301.899 -107.073C234.542 -83.3282 156.222 -108.715 169.628 -41.9458C185.358 36.4122 88.4258 26.554 111.527 71.3584Z" stroke="#0000FF" stroke-width="0.45" stroke-miterlimit="10"/>
</g>
<defs>
<linearGradient id="paint0_linear_2002_69" x1="329.81" y1="501.42" x2="-5.0699" y2="-180.34" gradientUnits="userSpaceOnUse">
<stop offset="0.14" stop-color="#F6921E"/>
<stop offset="0.41" stop-color="#EE413D"/>
<stop offset="0.86" stop-color="#0000FF"/>
</linearGradient>
</defs>
</svg>
