<svg width="168" height="199" viewBox="0 0 168 199" fill="none" xmlns="http://www.w3.org/2000/svg">
<path d="M83.6 198.12L0 149.13L0.0300293 49.2598L83.63 98.2398L83.6 198.12Z" fill="url(#paint0_linear_2104_345)"/>
<path d="M83.6599 198.12L167.26 149.13L167.23 49.2598L83.6299 98.2398L83.6599 198.12Z" fill="url(#paint1_linear_2104_345)"/>
<path d="M83.5998 98.29L167.21 49.28L84.2698 0L0.0898438 49.3L83.5998 98.29Z" fill="url(#paint2_linear_2104_345)"/>
<path d="M38.8496 72.19L39.0897 72.04V72.3401L38.8496 72.19Z" fill="#363738"/>
<path d="M47.3004 77.2101L47.4304 77.1301V105.94L38.9203 100.77L38.8604 72.1201L47.3004 77.2101Z" fill="#D9D5CA"/>
<path d="M121.82 23L130.24 27.93L47.4298 77.13L47.2998 77.21L39.0898 72.34V72.04L121.82 23Z" fill="#F1EDE1"/>
<defs>
<linearGradient id="paint0_linear_2104_345" x1="-7.04" y1="135.9" x2="288.31" y2="62.0597" gradientUnits="userSpaceOnUse">
<stop offset="0.14" stop-color="#F6921E"/>
<stop offset="0.41" stop-color="#EE413D"/>
<stop offset="0.93" stop-color="#0000FF"/>
</linearGradient>
<linearGradient id="paint1_linear_2104_345" x1="242.36" y1="212.45" x2="-0.270091" y2="28.2397" gradientUnits="userSpaceOnUse">
<stop offset="0.14" stop-color="#F6921E"/>
<stop offset="0.41" stop-color="#EE413D"/>
<stop offset="0.93" stop-color="#0000FF"/>
</linearGradient>
<linearGradient id="paint2_linear_2104_345" x1="71.3898" y1="5.14" x2="132.27" y2="224.32" gradientUnits="userSpaceOnUse">
<stop offset="0.14" stop-color="#F6921E"/>
<stop offset="0.41" stop-color="#EE413D"/>
<stop offset="0.93" stop-color="#0000FF"/>
</linearGradient>
</defs>
</svg>
