<svg width="171" height="137" viewBox="0 0 171 137" fill="none" xmlns="http://www.w3.org/2000/svg">
<path d="M149.08 107.09C152.03 107.09 154.42 104.7 154.42 101.75C154.42 98.8002 152.03 96.4102 149.08 96.4102H102.8V107.08H149.08V107.09Z" fill="url(#paint0_linear_2056_257)"/>
<path opacity="0.85" d="M65.95 79.03H102.8V11.73H46.39L43.53 3.57001C42.78 1.43001 40.76 0 38.49 0H5.33002C2.38002 0 0 2.39003 0 5.34003C0 8.29003 2.39002 10.68 5.33002 10.68H34.71L56.64 73.2C56.61 73.29 56.55 73.37 56.53 73.47L48.13 100.16C47.62 101.78 47.91 103.55 48.92 104.92C49.93 106.29 51.52 107.1 53.22 107.1H102.82V96.43H60.5L65.97 79.05L65.95 79.03ZM80.44 22.41H98.75V39.64H80.44V22.41ZM80.44 50.31H98.75V68.36H80.44V50.31ZM56.17 39.64L50.13 22.41H69.78V39.64H56.17ZM69.77 50.31V68.36H66.24L59.91 50.31H69.77Z" fill="url(#paint1_linear_2056_257)"/>
<path d="M144.59 79.03C146.84 79.03 148.85 77.62 149.61 75.5L170.01 18.88C170.6 17.24 170.36 15.43 169.36 14C168.36 12.58 166.73 11.73 164.99 11.73H102.79V79.03H144.58H144.59ZM138.4 22.41H157.4L151.19 39.64H138.4V22.41ZM138.4 50.31H147.34L140.84 68.36H138.4V50.31ZM109.42 22.41H127.73V39.64H109.42V22.41ZM127.73 50.31V68.36H109.42V50.31H127.73Z" fill="url(#paint2_linear_2056_257)"/>
<path opacity="0.85" d="M63.3399 107.56C55.3499 107.56 48.8599 114.06 48.8599 122.04C48.8599 130.02 55.3599 136.52 63.3399 136.52C71.3199 136.52 77.8199 130.02 77.8199 122.04C77.8199 114.06 71.3199 107.56 63.3399 107.56ZM63.3399 125.85C61.2399 125.85 59.5299 124.14 59.5299 122.04C59.5299 119.94 61.2399 118.23 63.3399 118.23C65.4399 118.23 67.1499 119.94 67.1499 122.04C67.1499 124.14 65.4399 125.85 63.3399 125.85Z" fill="url(#paint3_linear_2056_257)"/>
<path d="M128.39 107.56C120.4 107.56 113.91 114.06 113.91 122.04C113.91 130.02 120.41 136.52 128.39 136.52C136.37 136.52 142.87 130.02 142.87 122.04C142.87 114.06 136.37 107.56 128.39 107.56ZM128.39 125.85C126.29 125.85 124.58 124.14 124.58 122.04C124.58 119.94 126.29 118.23 128.39 118.23C130.49 118.23 132.2 119.94 132.2 122.04C132.2 124.14 130.49 125.85 128.39 125.85Z" fill="url(#paint4_linear_2056_257)"/>
<defs>
<linearGradient id="paint0_linear_2056_257" x1="246.75" y1="37.9402" x2="35.6299" y2="150.07" gradientUnits="userSpaceOnUse">
<stop offset="0.14" stop-color="#F6921E"/>
<stop offset="0.41" stop-color="#EE413D"/>
<stop offset="0.93" stop-color="#0000FF"/>
</linearGradient>
<linearGradient id="paint1_linear_2056_257" x1="12.31" y1="45.66" x2="267.86" y2="99.39" gradientUnits="userSpaceOnUse">
<stop offset="0.14" stop-color="#F6921E"/>
<stop offset="0.41" stop-color="#EE413D"/>
<stop offset="0.93" stop-color="#0000FF"/>
</linearGradient>
<linearGradient id="paint2_linear_2056_257" x1="222.91" y1="-6.95002" x2="11.7796" y2="105.17" gradientUnits="userSpaceOnUse">
<stop offset="0.14" stop-color="#F6921E"/>
<stop offset="0.41" stop-color="#EE413D"/>
<stop offset="0.93" stop-color="#0000FF"/>
</linearGradient>
<linearGradient id="paint3_linear_2056_257" x1="-0.910174" y1="108.53" x2="254.64" y2="162.27" gradientUnits="userSpaceOnUse">
<stop offset="0.14" stop-color="#F6921E"/>
<stop offset="0.41" stop-color="#EE413D"/>
<stop offset="0.93" stop-color="#0000FF"/>
</linearGradient>
<linearGradient id="paint4_linear_2056_257" x1="255.549" y1="54.5101" x2="44.4298" y2="166.63" gradientUnits="userSpaceOnUse">
<stop offset="0.14" stop-color="#F6921E"/>
<stop offset="0.41" stop-color="#EE413D"/>
<stop offset="0.93" stop-color="#0000FF"/>
</linearGradient>
</defs>
</svg>
