<svg width="138" height="138" viewBox="0 0 138 138" fill="none" xmlns="http://www.w3.org/2000/svg">
<path d="M68.75 137.5C106.72 137.5 137.5 106.72 137.5 68.75C137.5 30.7804 106.72 0 68.75 0C30.7804 0 0 30.7804 0 68.75C0 106.72 30.7804 137.5 68.75 137.5Z" fill="url(#paint0_linear_2023_2)"/>
<path d="M68.75 0V137.5C106.72 137.5 137.5 106.72 137.5 68.75C137.5 30.78 106.72 0 68.75 0Z" fill="url(#paint1_linear_2023_2)"/>
<path d="M70.2798 30.1499H68.7498H67.2197C61.8997 30.1499 57.8097 32.7299 58.0597 37.7299L60.2498 81.5399C60.3998 84.5699 63.6998 86.9599 67.6298 86.9599H68.7598H69.8898C73.8098 86.9599 77.1098 84.5799 77.2698 81.5399L79.4597 37.7299C79.7097 32.7299 75.6097 30.1499 70.2997 30.1499H70.2798Z" fill="white"/>
<path d="M71.2598 91.28H66.2397C63.1897 91.28 60.7197 93.75 60.7197 96.8V101.82C60.7197 104.87 63.1897 107.34 66.2397 107.34H68.7498H71.2598C74.3098 107.34 76.7798 104.87 76.7798 101.82V96.8C76.7798 93.75 74.3098 91.28 71.2598 91.28Z" fill="white"/>
<path d="M77.25 81.5399L79.4399 37.7299C79.6899 32.7299 75.59 30.1499 70.28 30.1499H68.75V86.9499H69.88C73.8 86.9499 77.1 84.5699 77.26 81.5299L77.25 81.5399Z" fill="white"/>
<path d="M71.26 107.35C74.31 107.35 76.78 104.88 76.78 101.83V96.8101C76.78 93.7601 74.31 91.29 71.26 91.29H68.75V107.36H71.26V107.35Z" fill="white"/>
<defs>
<linearGradient id="paint0_linear_2023_2" x1="-1.94" y1="128.23" x2="321.95" y2="-144.32" gradientUnits="userSpaceOnUse">
<stop offset="0.14" stop-color="#F6921E"/>
<stop offset="0.41" stop-color="#EE413D"/>
<stop offset="0.93" stop-color="#0000FF"/>
</linearGradient>
<linearGradient id="paint1_linear_2023_2" x1="280.32" y1="-75.55" x2="-134.01" y2="222.67" gradientUnits="userSpaceOnUse">
<stop offset="0.14" stop-color="#F6921E"/>
<stop offset="0.41" stop-color="#EE413D"/>
<stop offset="0.93" stop-color="#0000FF"/>
</linearGradient>
</defs>
</svg>
