<svg width="120" height="120" viewBox="0 0 120 120" fill="none" xmlns="http://www.w3.org/2000/svg">
  <g filter="url(#filter0_d)">
    <circle cx="60" cy="56" r="40" fill="#25D366"/>
  </g>
  <path d="M80.05 75.95L75.4 74.2C74.85 74 74.25 74.1 73.8 74.45L71.25 76.5C70.75 76.9 70.05 76.95 69.5 76.65C66.55 75.05 44.95 53.45 43.35 50.5C43.05 49.95 43.1 49.25 43.5 48.75L45.55 46.2C45.9 45.75 46 45.15 45.8 44.6L44.05 39.95C43.75 39.2 43 38.7 42.2 38.8C40.85 38.95 37.55 39.65 36.35 40.85C34.85 42.35 34.85 44.65 36.35 48.5C38.2 53.25 42.45 59.65 48.5 65.7C54.55 71.75 61 76.05 65.75 77.9C69.6 79.4 71.9 79.4 73.4 77.9C74.6 76.7 75.3 73.4 75.45 72.05C75.5 71.2 75 70.45 74.25 70.15L80.05 75.95Z" fill="white"/>
  <path d="M60 36C49 36 40 45 40 56C40 60.5 41.5 64.65 44.05 67.95L41.5 76.5L50.35 74C53.5 76.2 56.65 77.5 60 77.5C71 77.5 80 68.5 80 57.5C80 46.5 71 36 60 36ZM60 73.5C57.3 73.5 54.65 72.65 52.5 71.15L52 70.85L46.5 72.15L47.85 66.8L47.5 66.25C45.8 63.95 44.85 61.05 44.85 58C44.85 47.75 51.75 40.85 60 40.85C68.25 40.85 75.15 47.75 75.15 56C75.15 65.75 68.25 73.5 60 73.5Z" fill="white"/>
  <defs>
    <filter id="filter0_d" x="0" y="0" width="120" height="120" filterUnits="userSpaceOnUse" color-interpolation-filters="sRGB">
      <feFlood flood-opacity="0" result="BackgroundImageFix"/>
      <feColorMatrix in="SourceAlpha" type="matrix" values="0 0 0 0 0 0 0 0 0 0 0 0 0 0 0 0 0 0 127 0" result="hardAlpha"/>
      <feOffset dy="4"/>
      <feGaussianBlur stdDeviation="10"/>
      <feComposite in2="hardAlpha" operator="out"/>
      <feColorMatrix type="matrix" values="0 0 0 0 0 0 0 0 0 0 0 0 0 0 0 0 0 0 0.1 0"/>
      <feBlend mode="normal" in2="BackgroundImageFix" result="effect1_dropShadow"/>
      <feBlend mode="normal" in="SourceGraphic" in2="effect1_dropShadow" result="shape"/>
    </filter>
  </defs>
</svg>