<svg width="138" height="138" viewBox="0 0 138 138" fill="none" xmlns="http://www.w3.org/2000/svg">
<path d="M0 137.281L9.03998 102.991C-18.44 53.4412 20.4 -5.82872 77.09 0.461284C109.05 4.01128 135.46 31.8413 137.2 64.0113C140.15 118.441 83.67 154.341 35.6 128.951L0 137.281ZM19.33 118.601L37.82 114.421C75.82 138.521 125.13 111.681 123.35 66.2713C121.41 16.8813 60.04 -4.61872 27.37 32.4513C10.16 51.9813 9.87001 79.6413 23.82 101.071L19.33 118.601Z" fill="url(#paint0_linear_2020_6)"/>
<path d="M44.04 36.8911C48.54 36.2711 50.03 36.9311 51.9 40.7811C53.43 43.9111 56.0701 49.8311 57.0101 53.0611C58.3201 57.5411 51.4901 61.1211 51.5001 63.7111C51.5001 65.2611 56.22 71.4611 57.47 72.8911C59.89 75.6711 63.3 78.7011 66.36 80.7511C68.19 81.9711 75.73 86.3311 77.54 85.8811C79.62 85.3611 82.94 79.4911 84.67 77.8711C86.4 76.2511 88.4001 77.5011 90.3701 78.3111C92.0001 78.9811 103.02 84.1911 103.3 85.0211C104.79 94.0911 97.2401 100.981 88.7001 101.551C81.4301 102.031 69.0601 97.1111 62.8101 93.3111C51.1101 86.2011 32.7 65.9611 33.8 51.4811C34.2 46.2411 38.3 37.7011 44.02 36.9111L44.04 36.8911Z" fill="url(#paint1_linear_2020_6)"/>
<path d="M88.7198 101.531C97.2598 100.971 104.82 94.0709 103.32 85.0009C103.04 84.1709 92.0198 78.9609 90.3898 78.2909C88.4198 77.4809 86.4499 76.2009 84.6899 77.8509C82.9599 79.4709 79.6399 85.3409 77.5599 85.8609C76.4799 86.1309 73.3599 84.6909 70.6299 83.2209L65.5499 94.8109C72.2099 98.2709 82.3999 101.951 88.7299 101.531H88.7198ZM137.2 64.0009C135.96 41.1709 122.29 20.5409 103.04 9.21094L97.5399 21.9909C112 30.8009 122.56 46.2409 123.34 66.2709C124.87 105.201 88.8298 130.481 54.5798 121.721L49.0898 134.451C93.5998 147.541 139.87 113.411 137.2 64.0109V64.0009Z" fill="url(#paint2_linear_2020_6)"/>
<defs>
<linearGradient id="paint0_linear_2020_6" x1="-7.17" y1="-2.88871" x2="188.28" y2="238.741" gradientUnits="userSpaceOnUse">
<stop offset="0.14" stop-color="#F6921E"/>
<stop offset="0.41" stop-color="#EE413D"/>
<stop offset="0.93" stop-color="#0000FF"/>
</linearGradient>
<linearGradient id="paint1_linear_2020_6" x1="0.970044" y1="-9.47891" x2="196.43" y2="232.161" gradientUnits="userSpaceOnUse">
<stop offset="0.14" stop-color="#F6921E"/>
<stop offset="0.41" stop-color="#EE413D"/>
<stop offset="0.93" stop-color="#0000FF"/>
</linearGradient>
<linearGradient id="paint2_linear_2020_6" x1="242.77" y1="94.3509" x2="-55.7702" y2="54.7609" gradientUnits="userSpaceOnUse">
<stop offset="0.14" stop-color="#F6921E"/>
<stop offset="0.41" stop-color="#EE413D"/>
<stop offset="0.93" stop-color="#0000FF"/>
</linearGradient>
</defs>
</svg>
