<svg width="28" height="26" viewBox="0 0 28 26" fill="none" xmlns="http://www.w3.org/2000/svg">
<path d="M18.0999 1.05994C18.0999 0.769937 18.1899 0.679932 18.4799 0.679932H19.1299C19.3999 0.679932 19.5099 0.769937 19.5099 1.05994V3.49994H22.9799C25.6599 3.49994 27.8699 5.67995 27.8699 8.38995V21.1099C27.8699 23.7899 25.6599 25.9699 22.9799 25.9699H5.77989C3.06989 25.9699 0.889893 23.7899 0.889893 21.1099V8.38995C0.889893 5.67995 3.06989 3.49994 5.77989 3.49994H9.24989V1.05994C9.24989 0.769937 9.33989 0.679932 9.62989 0.679932H10.2799C10.5399 0.679932 10.6599 0.769937 10.6599 1.05994V3.49994H18.0799V1.05994H18.0999ZM5.78989 4.90991C3.87989 4.90991 2.31989 6.46994 2.31989 8.37994V21.0999C2.31989 23.0099 3.87989 24.5699 5.78989 24.5699H22.9899C24.8999 24.5699 26.4599 23.0099 26.4599 21.0999V8.37994C26.4599 6.46994 24.8999 4.90991 22.9899 4.90991H19.5199V6.43994C19.5199 6.69994 19.3999 6.81995 19.1399 6.81995H18.4899C18.1999 6.81995 18.1099 6.69994 18.1099 6.43994V4.90991H10.6899V6.43994C10.6899 6.69994 10.5699 6.81995 10.3099 6.81995H9.6599C9.3699 6.81995 9.27989 6.69994 9.27989 6.43994V4.90991H5.80989H5.78989ZM9.2599 11.89C9.2599 12.86 8.45989 13.6599 7.48989 13.6599C6.51989 13.6599 5.71989 12.86 5.71989 11.89C5.71989 10.92 6.48989 10.1199 7.48989 10.1199C8.45989 10.1199 9.2599 10.91 9.2599 11.89ZM9.2599 18.14C9.2599 19.11 8.45989 19.9099 7.48989 19.9099C6.51989 19.9099 5.71989 19.12 5.71989 18.14C5.71989 17.14 6.48989 16.3699 7.48989 16.3699C8.48989 16.3699 9.2599 17.14 9.2599 18.14ZM16.1499 11.89C16.1499 12.86 15.3499 13.6599 14.3799 13.6599C13.4099 13.6599 12.6099 12.86 12.6099 11.89C12.6099 10.92 13.4099 10.1199 14.3799 10.1199C15.3499 10.1199 16.1499 10.91 16.1499 11.89ZM16.1499 18.14C16.1499 19.11 15.3499 19.9099 14.3799 19.9099C13.4099 19.9099 12.6099 19.12 12.6099 18.14C12.6099 17.16 13.4099 16.3699 14.3799 16.3699C15.3499 16.3699 16.1499 17.14 16.1499 18.14ZM23.0399 11.89C23.0399 12.86 22.2399 13.6599 21.2699 13.6599C20.2999 13.6599 19.4999 12.86 19.4999 11.89C19.4999 10.92 20.2899 10.1199 21.2699 10.1199C22.2499 10.1199 23.0399 10.91 23.0399 11.89ZM23.0399 18.14C23.0399 19.11 22.2399 19.9099 21.2699 19.9099C20.2999 19.9099 19.4999 19.12 19.4999 18.14C19.4999 17.16 20.2899 16.3699 21.2699 16.3699C22.2499 16.3699 23.0399 17.14 23.0399 18.14Z" fill="#5F6368"/>
</svg>
