<svg width="26" height="25" viewBox="0 0 26 25" fill="none" xmlns="http://www.w3.org/2000/svg">
<path d="M6.16995 0.280029H20.5999C23.4899 0.280029 25.8099 2.61002 25.8099 5.46002V14.29C25.8099 17.15 23.4799 19.5 20.5999 19.5H12.47L7.16995 24.42C6.31995 25.21 4.89995 24.63 4.89995 23.45V19.33C2.59995 18.77 0.949951 16.68 0.949951 14.29V5.46002C0.949951 2.60002 3.30995 0.280029 6.15995 0.280029H6.16995ZM20.5999 1.66003H6.16995C4.07995 1.66003 2.36995 3.40002 2.36995 5.46002V14.29C2.36995 16.71 4.13995 17.91 6.28995 18.18V23.33L11.91 18.09H20.5999C22.6899 18.09 24.4 16.38 24.4 14.29V5.46002C24.4 3.40002 22.6899 1.66003 20.5999 1.66003Z" fill="#5F6368"/>
</svg>
