<svg width="23" height="23" viewBox="0 0 23 23" fill="none" xmlns="http://www.w3.org/2000/svg">
<path d="M11.4109 22.2495C17.4805 22.2495 22.4009 17.3292 22.4009 11.2596C22.4009 5.18994 17.4805 0.269531 11.4109 0.269531C5.34128 0.269531 0.420898 5.18994 0.420898 11.2596C0.420898 17.3292 5.34128 22.2495 11.4109 22.2495Z" fill="#39B54A"/>
<path d="M16.0906 7.29928C16.1806 7.17928 16.2605 7.1593 16.3805 7.2493L16.6405 7.44931C16.7605 7.53931 16.7605 7.6193 16.6705 7.7193C14.5405 10.5693 12.4105 13.4093 10.2705 16.2493C10.1605 16.4193 9.92051 16.3993 9.80051 16.2493C8.59051 14.4993 7.3705 12.7793 6.1605 11.0193C6.0805 10.8793 6.0805 10.8193 6.2205 10.7293L6.48051 10.5493C6.60051 10.4693 6.68053 10.4893 6.75053 10.6093L10.0605 15.3793C12.0805 12.6793 14.0805 9.9893 16.1005 7.2893L16.0906 7.29928Z" fill="white" stroke="white" stroke-width="1.07"/>
</svg>
