<svg width="44" height="29" viewBox="0 0 44 29" fill="none" xmlns="http://www.w3.org/2000/svg">
<path d="M3.51006 21.5601L10.5201 18.1901C9.62006 17.4801 8.36006 16.21 8.11006 13.8L7.46006 8.30005C6.90006 3.39005 11.1001 0.830078 15.4601 0.830078C19.8201 0.830078 24.0201 3.39005 23.4601 8.30005L22.8101 13.8C22.5601 16.21 21.3001 17.4801 20.4001 18.1901L27.4101 21.5601C31.2401 23.3801 31.3001 28.5101 26.4201 28.5101H4.49007C-0.389935 28.5101 -0.329937 23.3801 3.50006 21.5601H3.51006ZM11.8801 19.1501L4.13006 22.8901C1.84006 23.9701 1.13006 27.0601 4.50006 27.0601H26.4301C29.8001 27.0601 29.0901 23.9701 26.8001 22.8901L18.9501 19.1201C18.0901 18.7201 18.3001 17.8501 19.0101 17.3901C19.6601 16.9301 21.1101 15.9401 21.3601 13.6501L22.0101 8.12006C22.4401 4.17006 18.8901 2.31006 15.4601 2.31006C12.0301 2.31006 8.48007 4.16006 8.91007 8.12006L9.56006 13.6501C9.81006 15.9401 11.2301 16.92 11.9701 17.42C12.7701 17.98 12.7701 18.7501 11.8801 19.1501ZM29.3901 16.2501C28.7701 15.7201 28.0601 14.8301 27.9101 13.3201L27.4501 9.52008C27.0501 6.00008 30.0801 4.12006 33.1901 4.12006C36.3001 4.12006 39.3401 6.00008 38.9301 9.52008L38.5001 13.3201C38.3101 14.8301 37.6401 15.7301 37.0201 16.2501L41.5301 18.41C44.4001 19.8 44.3401 23.66 40.7601 23.66H31.6201C31.3101 23.66 31.2201 23.5401 31.2201 23.2601V22.5801C31.2201 22.2701 31.3101 22.1801 31.6201 22.1801H40.7601C42.8601 22.1801 42.2401 20.3901 40.9101 19.7401L35.5701 17.2101C34.7701 16.8101 34.8001 16.0701 35.5101 15.5701C35.9401 15.2601 36.8701 14.61 37.0501 13.16L37.4801 9.33008C37.7601 6.77008 35.4101 5.59009 33.1901 5.59009C30.9701 5.59009 28.6201 6.76008 28.9301 9.33008L29.3601 13.16C29.5101 14.61 30.4401 15.2601 30.8701 15.5701C31.5801 16.0601 31.5801 16.8101 30.7801 17.2101L26.8601 19.1201C26.5801 19.2701 26.4601 19.2101 26.3001 18.9301L26.0201 18.3401C25.8701 18.0601 25.9301 17.9401 26.2101 17.8101L29.3901 16.23V16.2501Z" fill="#5F6368"/>
</svg>
