<svg width="338" height="329" viewBox="0 0 338 329" fill="none" xmlns="http://www.w3.org/2000/svg">
<path d="M337.091 163.632C336.012 73.0784 260.978 0 168.545 0C76.1124 0 1.07822 73.0784 0 163.632C0 163.632 0 164.113 0 164.354C0 164.595 0 164.835 0 165.076C0.29406 190.928 6.66533 215.336 17.7416 237.047V167.146C18.7708 108.318 68.0748 60.5617 128.014 60.5617C187.953 60.5617 237.355 108.318 238.384 167.146C238.384 167.387 238.384 167.579 238.384 167.82C238.384 167.916 238.384 168.253 238.384 168.35C238.384 168.446 238.384 168.59 238.384 168.687C238.384 168.927 238.384 169.12 238.384 169.361C237.355 228.189 188.002 275.945 128.014 275.945C100.912 275.945 75.2793 266.413 55.1362 248.938L37.0515 266.702C67.9278 304.541 115.369 328.756 168.545 328.756C214.762 328.756 256.616 310.462 287.1 280.856L335.865 328.756C335.865 328.756 337.139 164.643 337.139 164.402C337.139 164.161 337.139 163.921 337.139 163.68L337.091 163.632Z" fill="url(#paint0_linear_2053_2)"/>
<defs>
<linearGradient id="paint0_linear_2053_2" x1="-109.978" y1="-109.232" x2="329.289" y2="337.913" gradientUnits="userSpaceOnUse">
<stop offset="0.37" stop-color="#F6921E"/>
<stop offset="0.65" stop-color="#EE413D"/>
<stop offset="0.67" stop-color="#E53E43"/>
<stop offset="0.71" stop-color="#CE3856"/>
<stop offset="0.76" stop-color="#A82D75"/>
<stop offset="0.81" stop-color="#731FA0"/>
<stop offset="0.87" stop-color="#310DD7"/>
<stop offset="0.91" stop-color="#0000FF"/>
</linearGradient>
</defs>
</svg>
