<svg width="26" height="26" viewBox="0 0 26 26" fill="none" xmlns="http://www.w3.org/2000/svg">
<path d="M3.12067 9.90912V1.18912C3.12067 0.919117 3.20068 0.829102 3.48068 0.829102H4.06067C4.34067 0.829102 4.42068 0.909117 4.42068 1.18912V9.90912C6.10068 10.2091 7.36066 11.6991 7.36066 13.4591C7.36066 15.2191 6.09068 16.7091 4.42068 17.0091V24.9891C4.42068 25.2591 4.34067 25.3491 4.06067 25.3491H3.48068C3.20068 25.3491 3.12067 25.2691 3.12067 24.9891V17.0091C1.44067 16.7091 0.180664 15.2191 0.180664 13.4591C0.180664 11.6991 1.45067 10.2091 3.12067 9.90912ZM3.78067 11.1691C2.49067 11.1691 1.47067 12.1891 1.47067 13.4491C1.47067 14.7091 2.49067 15.7291 3.78067 15.7291C5.07067 15.7291 6.06067 14.7091 6.06067 13.4491C6.06067 12.1891 5.04067 11.1691 3.78067 11.1691ZM11.9507 14.7491V1.18912C11.9507 0.919117 12.0307 0.829102 12.3107 0.829102H12.9207C13.1707 0.829102 13.2807 0.909117 13.2807 1.18912V14.7491C14.9607 15.0791 16.2207 16.5391 16.2207 18.2991C16.2207 20.0591 14.9507 21.5491 13.2807 21.8491V24.9891C13.2807 25.2591 13.1707 25.3491 12.9207 25.3491H12.3107C12.0407 25.3491 11.9507 25.2691 11.9507 24.9891V21.8491C10.2707 21.5491 9.01068 20.0591 9.01068 18.2991C9.01068 16.5391 10.2807 15.0791 11.9507 14.7491ZM12.6107 16.0191C11.3407 16.0191 10.3307 17.0391 10.3307 18.2991C10.3307 19.5591 11.3507 20.5791 12.6107 20.5791C13.8707 20.5791 14.8907 19.5591 14.8907 18.2991C14.8907 17.0391 13.8707 16.0191 12.6107 16.0191ZM20.7907 3.7991V1.18912C20.7907 0.919117 20.9007 0.829102 21.1807 0.829102H21.7607C22.0307 0.829102 22.1207 0.909117 22.1207 1.18912V3.7991C23.8007 4.0991 25.0607 5.58912 25.0607 7.34912C25.0607 9.10912 23.7907 10.5991 22.1207 10.8991V24.9891C22.1207 25.2591 22.0407 25.3491 21.7607 25.3491H21.1807C20.9107 25.3491 20.7907 25.2691 20.7907 24.9891V10.8991C19.1407 10.5991 17.8507 9.10912 17.8507 7.34912C17.8507 5.58912 19.1407 4.0991 20.7907 3.7991ZM21.4507 5.06912C20.1807 5.06912 19.1707 6.08912 19.1707 7.34912C19.1707 8.60912 20.1907 9.62912 21.4507 9.62912C22.7107 9.62912 23.7607 8.60912 23.7607 7.34912C23.7607 6.08912 22.7107 5.06912 21.4507 5.06912Z" fill="#5F6368"/>
</svg>
