<svg width="23" height="23" viewBox="0 0 23 23" fill="none" xmlns="http://www.w3.org/2000/svg">
<path d="M11.1511 22.0503C17.2207 22.0503 22.1411 17.1299 22.1411 11.0603C22.1411 4.99069 17.2207 0.0703125 11.1511 0.0703125C5.08151 0.0703125 0.161133 4.99069 0.161133 11.0603C0.161133 17.1299 5.08151 22.0503 11.1511 22.0503Z" fill="#F7931E"/>
<path d="M4.92088 14.5007L10.4009 5.0307C10.6009 4.7007 11.0909 4.7007 11.3009 5.0307L16.7809 14.5007C16.9809 14.8507 16.7308 15.2807 16.3408 15.2807H5.37083C4.98083 15.2807 4.73089 14.8507 4.93089 14.5007H4.92088ZM16.2408 14.7107L10.8408 5.4007L5.44078 14.7107H16.2308H16.2408ZM10.8608 12.9207H10.8208C10.5208 12.9207 10.4408 13.0207 10.4408 13.3007V13.3607C10.4408 13.6507 10.5208 13.7307 10.8208 13.7307H10.8608C11.1608 13.7307 11.2408 13.6507 11.2408 13.3607V13.3007C11.2408 13.0107 11.1608 12.9207 10.8608 12.9207ZM11.0209 8.19068H10.6908C10.5608 8.19068 10.5008 8.2307 10.5108 8.3407L10.5808 11.4507C10.5908 11.5607 10.6308 11.6006 10.7608 11.6006H10.9408C11.0708 11.6006 11.1108 11.5607 11.1208 11.4507L11.2008 8.3407C11.2108 8.2307 11.1509 8.19068 11.0209 8.19068Z" fill="white" stroke="white" stroke-width="0.45"/>
</svg>
