<svg width="32" height="32" viewBox="0 0 32 32" fill="none" xmlns="http://www.w3.org/2000/svg">
<path d="M3.90888e-05 31.185L2.05009 23.395C-4.18991 12.135 4.63005 -1.32502 17.51 0.104975C24.77 0.914975 30.7701 7.23496 31.1701 14.545C31.8401 26.915 19.0101 35.065 8.09007 29.295L3.90888e-05 31.185ZM4.39005 26.945L8.59007 25.995C17.2201 31.465 28.4201 25.375 28.0201 15.055C27.5801 3.83497 13.6401 -1.04504 6.22007 7.37496C2.31007 11.815 2.24007 18.095 5.41007 22.965L4.39005 26.945Z" fill="#808080"/>
<path d="M9.99992 8.16109C11.0199 8.02109 11.36 8.17108 11.79 9.04108C12.14 9.75108 12.7399 11.1011 12.9499 11.8311C13.2499 12.8511 11.6999 13.6611 11.6999 14.2511C11.6999 14.6011 12.7699 16.0111 13.0599 16.3411C13.6099 16.9711 14.3799 17.6611 15.0799 18.1211C15.4999 18.4011 17.2099 19.3911 17.6199 19.2811C18.0899 19.1611 18.8499 17.8311 19.2399 17.4611C19.6299 17.0911 20.09 17.3811 20.54 17.5611C20.91 17.7111 23.41 18.9011 23.48 19.0811C23.82 21.1411 22.0999 22.7111 20.1599 22.8311C18.5099 22.9411 15.6999 21.8211 14.2799 20.9611C11.6199 19.3511 7.43992 14.7511 7.68992 11.4611C7.77992 10.2711 8.70993 8.33108 10.0099 8.15108L9.99992 8.16109Z" fill="#808080"/>
</svg>
